<mxfile host="app.diagrams.net" agent="Mozilla/5.0 (Windows NT 10.0; Win64; x64) AppleWebKit/537.36 (KHTML, like Gecko) Chrome/135.0.0.0 Safari/537.36 Edg/135.0.0.0" version="26.2.12">
  <diagram name="Page-1" id="1QpWhXDali4vpMjyYr1k">
    <mxGraphModel dx="709" dy="460" grid="1" gridSize="10" guides="1" tooltips="1" connect="1" arrows="1" fold="1" page="1" pageScale="1" pageWidth="850" pageHeight="1100" math="0" shadow="0">
      <root>
        <mxCell id="0" />
        <mxCell id="1" parent="0" />
        <mxCell id="hQ6L5W1EYwP2sgtElhuc-1" value="data:application/pdf;base64,JVBERi0xLjcNCiWhs8XXDQoxIDAgb2JqDQo8PC9DcmVhdGlvbkRhdGUoRDoyMDI1MDQxNTE4MzMzMSswMCcwMCcpL0NyZWF0b3IoTW96aWxsYS81LjAgXChXaW5kb3dzIE5UIDEwLjA7IFdpbjY0OyB4NjRcKSBBcHBsZVdlYktpdC81MzcuMzYgXChLSFRNTCwgbGlrZSBHZWNrb1wpIEhlYWRsZXNzQ2hyb21lLzEyNy4wLjAuMCBTYWZhcmkvNTM3LjM2KS9Nb2REYXRlKEQ6MjAyNTA0MTUxODMzMzFaKS9Qcm9kdWNlcjxGRUZGMDA3MDAwNjQwMDY2MDAyRDAwNkMwMDY5MDA2MjAwMjAwMDI4MDA2ODAwNzQwMDc0MDA3MDAwNzMwMDNBMDAyRjAwMkYwMDY3MDA2OTAwNzQwMDY4MDA3NTAwNjIwMDJFMDA2MzAwNkYwMDZEMDAyRjAwNDgwMDZGMDA3MDAwNjQwMDY5MDA2RTAwNjcwMDJGMDA3MDAwNjQwMDY2MDAyRDAwNkMwMDY5MDA2MjAwMjk+L1N1YmplY3Q8RkVGRjAwMjUwMDMzMDA0MzAwNkQwMDc4MDA2NjAwNjkwMDZDMDA2NTAwMjUwMDMyMDAzMDAwNjgwMDZGMDA3MzAwNzQwMDI1MDAzMzAwNDQwMDI1MDAzMjAwMzIwMDYxMDA3MDAwNzAwMDJFMDA2NDAwNjkwMDYxMDA2NzAwNzIwMDYxMDA2RDAwNzMwMDJFMDA2RTAwNjUwMDc0MDAyNTAwMzIwMDMyMDAyNTAwMzIwMDMwMDA2MTAwNjcwMDY1MDA2RTAwNzQwMDI1MDAzMzAwNDQwMDI1MDAzMjAwMzIwMDREMDA2RjAwN0EwMDY5MDA2QzAwNkMwMDYxMDAyNTAwMzIwMDQ2MDAzNTAwMkUwMDMwMDAyNTAwMzIwMDMwMDA1QzAwMjgwMDU3MDA2OTAwNkUwMDY0MDA2RjAwNzcwMDczMDAyNTAwMzIwMDMwMDA0RTAwNTQwMDI1MDAzMjAwMzAwMDMxMDAzMDAwMkUwMDMwMDAyNTAwMzMwMDQyMDAyNTAwMzIwMDMwMDA1NzAwNjkwMDZFMDAzNjAwMzQwMDI1MDAzMzAwNDIwMDI1MDAzMjAwMzAwMDc4MDAzNjAwMzQwMDVDMDAyOTAwMjUwMDMyMDAzMDAwNDEwMDcwMDA3MDAwNkMwMDY1MDA1NzAwNjUwMDYyMDA0QjAwNjkwMDc0MDAyNTAwMzIwMDQ2MDAzNTAwMzMwMDM3MDAyRTAwMzMwMDM2MDAyNTAwMzIwMDMwMDA1QzAwMjgwMDRCMDA0ODAwNTQwMDREMDA0QzAwMjUwMDMyMDA0MzAwMjUwMDMyMDAzMDAwNkMwMDY5MDA2QjAwNjUwMDI1MDAzMjAwMzAwMDQ3MDA2NTAwNjMwMDZCMDA2RjAwNUMwMDI5MDAyNTAwMzIwMDMwMDA0MzAwNjgwMDcyMDA2RjAwNkQwMDY1MDAyNTAwMzIwMDQ2MDAzMTAwMzMwMDM1MDAyRTAwMzAwMDJFMDAzMDAwMkUwMDMwMDAyNTAwMzIwMDMwMDA1MzAwNjEwMDY2MDA2MTAwNzIwMDY5MDAyNTAwMzIwMDQ2MDAzNTAwMzMwMDM3MDAyRTAwMzMwMDM2MDAyNTAwMzIwMDMwMDA0NTAwNjQwMDY3MDAyNTAwMzIwMDQ2MDAzMTAwMzMwMDM1MDAyRTAwMzAwMDJFMDAzMDAwMkUwMDMwMDAyNTAwMzIwMDMyMDAyNTAwMzIwMDMwMDA3NjAwNjUwMDcyMDA3MzAwNjkwMDZGMDA2RTAwMjUwMDMzMDA0NDAwMjUwMDMyMDAzMjAwMzIwMDM2MDAyRTAwMzIwMDJFMDAzMTAwMzIwMDI1MDAzMjAwMzIwMDI1MDAzMzAwNDUwMDI1MDAzMDAwNDEwMDI1MDAzMjAwMzAwMDI1MDAzMjAwMzAwMDI1MDAzMzAwNDMwMDY0MDA2OTAwNjEwMDY3MDA3MjAwNjEwMDZEMDAyNTAwMzIwMDMwMDA2RTAwNjEwMDZEMDA2NTAwMjUwMDMzMDA0NDAwMjUwMDMyMDAzMjAwNTAwMDYxMDA2NzAwNjUwMDJEMDAzMTAwMjUwMDMyMDAzMjAwMjUwMDMyMDAzMDAwNjkwMDY0MDAyNTAwMzMwMDQ0MDAyNTAwMzIwMDMyMDAzMTAwNTEwMDcwMDA1NzAwNjgwMDU4MDA0NDAwNjEwMDZDMDA2OTAwMzQwMDc2MDA3MDAwNEQwMDZBMDA3OTAwNTkwMDcyMDAzMTAwNkIwMDI1MDAzMjAwMzIwMDI1MDAzMzAwNDUwMDI1MDAzMDAwNDEwMDI1MDAzMjAwMzAwMDI1MDAzMjAwMzAwMDI1MDAzMjAwMzAwMDI1MDAzMjAwMzAwMDI1MDAzMzAwNDMwMDZEMDA3ODAwNDcwMDcyMDA2MTAwNzAwMDY4MDA0RDAwNkYwMDY0MDA2NTAwNkMwMDI1MDAzMjAwMzAwMDY0MDA3ODAwMjUwMDMzMDA0NDAwMjUwMDMyMDAzMjAwMzcwMDM4MDAzMDAwMjUwMDMyMDAzMjAwMjUwMDMyMDAzMDAwNjQwMDc5MDAyNTAwMzMwMDQ0MDAyNTAwMzIwMDMyMDAzNTAwMzAwMDM2MDAyNTAwMzIwMDMyMDAyNTAwMzIwMDMwMDA2NzAwNzIwMDY5MDA2NDAwMjUwMDMzMDA0NDAwMjUwMDMyMDAzMjAwMzEwMDI1MDAzMjAwMzIwMDI1MDAzMjAwMzAwMDY3MDA3MjAwNjkwMDY0MDA1MzAwNjkwMDdBMDA2NTAwMjUwMDMzMDA0NDAwMjUwMDMyMDAzMjAwMzEwMDMwMDAyNTAwMzIwMDMyMDAyNTAwMzIwMDMwMDA2NzAwNzUwMDY5MDA2NDAwNjUwMDczMDAyNTAwMzMwMDQ0MDAyNTAwMzIwMDMyMDAzMTAwMjUwMDMyMDAzMjAwMjUwMDMyMDAzMDAwNzQwMDZGMDA2RjAwNkMwMDc0MDA2OTAwNzAwMDczMDAyNTAwMzMwMDQ0MDAyNTAwMzIwMDMyMDAzMTAwMjUwMDMyMDAzMjAwMjUwMDMyMDAzMDAwNjMwMDZGMDA2RTAwNkUwMDY1MDA2MzAwNzQwMDI1MDAzMzAwNDQwMDI1MDAzMjAwMzIwMDMxMDAyNTAwMzIwMDMyMDAyNTAwMzIwMDMwMDA2MTAwNzIwMDcyMDA2RjAwNzcwMDczMDAyNTAwMzMwMDQ0MDAyNTAwMzIwMDMyMDAzMTAwMjUwMDMyMDAzMjAwMjUwMDMyMDAzMDAwNjYwMDZGMDA2QzAwNjQwMDI1MDAzMzAwNDQwMDI1MDAzMjAwMzIwMDMxMDAyNTAwMzIwMDMyMDAyNTAwMzIwMDMwMDA3MDAwNjEwMDY3MDA2NTAwMjUwMDMzMDA0NDAwMjUwMDMyMDAzMjAwMzEwMDI1MDAzMjAwMzIwMDI1MDAzMjAwMzAwMDcwMDA2MTAwNjcwMDY1MDA1MzAwNjMwMDYxMDA2QzAwNjUwMDI1MDAzMzAwNDQwMDI1MDAzMjAwMzIwMDMxMDAyNTAwMzIwMDMyMDAyNTAwMzIwMDMwMDA3MDAwNjEwMDY3MDA2NTAwNTcwMDY5MDA2NDAwNzQwMDY4MDAyNTAwMzMwMDQ0MDAyNTAwMzIwMDMyMDAzODAwMzUwMDMwMDAyNTAwMzIwMDMyMDAyNTAwMzIwMDMwMDA3MDAwNjEwMDY3MDA2NTAwNDgwMDY1MDA2OTAwNjcwMDY4MDA3NDAwMjUwMDMzMDA0NDAwMjUwMDMyMDAzMjAwMzEwMDMxMDAzMDAwMzAwMDI1MDAzMjAwMzIwMDI1MDAzMjAwMzAwMDZEMDA2MTAwNzQwMDY4MDAyNTAwMzMwMDQ0MDAyNTAwMzIwMDMyMDAzMDAwMjUwMDMyMDAzMjAwMjUwMDMyMDAzMDAwNzMwMDY4MDA2MTAwNjQwMDZGMDA3NzAwMjUwMDMzMDA0NDAwMjUwMDMyMDAzMjAwMzAwMDI1MDAzMjAwMzIwMDI1MDAzMzAwNDUwMDI1MDAzMDAwNDEwMDI1MDAzMjAwMzAwMDI1MDAzMjAwMzAwMDI1MDAzMjAwMzAwMDI1MDAzMjAwMzAwMDI1MDAzMjAwMzAwMDI1MDAzMjAwMzAwMDI1MDAzMzAwNDMwMDcyMDA2RjAwNkYwMDc0MDAyNTAwMzMwMDQ1MDAyNTAwMzAwMDQxMDAyNTAwMzIwMDMwMDAyNTAwMzIwMDMwMDAyNTAwMzIwMDMwMDAyNTAwMzIwMDMwMDAyNTAwMzIwMDMwMDAyNTAwMzIwMDMwMDAyNTAwMzIwMDMwMDAyNTAwMzIwMDMwMDAyNTAwMzMwMDQzMDA2RDAwNzgwMDQzMDA2NTAwNkMwMDZDMDAyNTAwMzIwMDMwMDA2OTAwNjQwMDI1MDAzMzAwNDQwMDI1MDAzMjAwMzIwMDMwMDAyNTAwMzIwMDMyMDAyNTAwMzIwMDMwMDAyNTAwMzIwMDQ2MDAyNTAwMzMwMDQ1MDAyNTAwMzAwMDQxMDAyNTAwMzIwMDMwMDAyNTAwMzIwMDMwMDAyNTAwMzIwMDMwMDAyNTAwMzIwMDMwMDAyNTAwMzIwMDMwMDAyNTAwMzIwMDMwMDAyNTAwMzIwMDMwMDAyNTAwMzIwMDMwMDAyNTAwMzMwMDQzMDA2RDAwNzgwMDQzMDA2NTAwNkMwMDZDMDAyNTAwMzIwMDMwMDA2OTAwNjQwMDI1MDAzMzAwNDQwMDI1MDAzMjAwMzIwMDMxMDAyNTAwMzIwMDMyMDAyNTAwMzIwMDMwMDA3MDAwNjEwMDcyMDA2NTAwNkUwMDc0MDAyNTAwMzMwMDQ0MDAyNTAwMzIwMDMyMDAzMDAwMjUwMDMyMDAzMjAwMjUwMDMyMDAzMDAwMjUwMDMyMDA0NjAwMjUwMDMzMDA0NTAwMjUwMDMwMDA0MTAwMjUwMDMyMDAzMDAwMjUwMDMyMDAzMDAwMjUwMDMyMDAzMDAwMjUwMDMyMDAzMDAwMjUwMDMyMDAzMDAwMjUwMDMyMDAzMDAwMjUwMDMyMDAzMDAwMjUwMDMyMDAzMDAwMjUwMDMzMDA0MzAwNkQwMDc4MDA0MzAwNjUwMDZDMDA2QzAwMjUwMDMyMDAzMDAwNjkwMDY0MDAyNTAwMzMwMDQ0MDAyNTAwMzIwMDMyMDA1QTAwNjkwMDU2MDA0MjAwNTYwMDRFMDA0QTAwNDUwMDRBMDAzNjAwNjUwMDM2MDA2NzAwNTQwMDRBMDA3MjAwNkEwMDREMDA0ODAwNDMwMDJEMDAzMTAwMjUwMDMyMDAzMjAwMjUwMDMyMDAzMDAwNzYwMDYxMDA2QzAwNzUwMDY1MDAyNTAwMzMwMDQ0MDAyNTAwMzIwMDMyMDAyNTAwMzIwMDMyMDAyNTAwMzIwMDMwMDA3MzAwNzQwMDc5MDA2QzAwNjUwMDI1MDAzMzAwNDQwMDI1MDAzMjAwMzIwMDczMDA3NzAwNjkwMDZEMDA2QzAwNjEwMDZFMDA2NTAwMjUwMDMzMDA0MjAwNzMwMDc0MDA2MTAwNzIwMDc0MDA1MzAwNjkwMDdBMDA2NTAwMjUwMDMzMDA0NDAwMzAwMDI1MDAzMzAwNDIwMDI1MDAzMjAwMzIwMDI1MDAzMjAwMzAwMDc2MDA2NTAwNzIwMDc0MDA2NTAwNzgwMDI1MDAzMzAwNDQwMDI1MDAzMjAwMzIwMDMxMDAyNTAwMzIwMDMyMDAyNTAwMzIwMDMwMDA3MDAwNjEwMDcyMDA2NTAwNkUwMDc0MDAyNTAwMzMwMDQ0MDAyNTAwMzIwMDMyMDAzMTAwMjUwMDMyMDAzMjAwMjUwMDMzMDA0NTAwMjUwMDMwMDA0MTAwMjUwMDMyMDAzMDAwMjUwMDMyMDAzMDAwMjUwMDMyMDAzMDAwMjUwMDMyMDAzMDAwMjUwMDMyMDAzMDAwMjUwMDMyMDAzMDAwMjUwMDMyMDAzMDAwMjUwMDMyMDAzMDAwMjUwMDMyMDAzMDAwMjUwMDMyMDAzMDAwMjUwMDMzMDA0MzAwNkQwMDc4MDA0NzAwNjUwMDZGMDA2RDAwNjUwMDc0MDA3MjAwNzkwMDI1MDAzMjAwMzAwMDc4MDAyNTAwMzMwMDQ0MDAyNTAwMzIwMDMyMDAzMzAwMzIwMDM1MDAyNTAwMzIwMDMyMDAyNTAwMzIwMDMwMDA3OTAwMjUwMDMzMDA0NDAwMjUwMDMyMDAzMjAwMzkwMDMwMDAyNTAwMzIwMDMyMDAyNTAwMzIwMDMwMDA3NzAwNjkwMDY0MDA3NDAwNjgwMDI1MDAzMzAwNDQwMDI1MDAzMjAwMzIwMDMyMDAzMDAwMzAwMDI1MDAzMjAwMzIwMDI1MDAzMjAwMzAwMDY4MDA2NTAwNjkwMDY3MDA2ODAwNzQwMDI1MDAzMzAwNDQwMDI1MDAzMjAwMzIwMDM0MDAzNTAwMzAwMDI1MDAzMjAwMzIwMDI1MDAzMjAwMzAwMDYxMDA3MzAwMjUwMDMzMDA0NDAwMjUwMDMyMDAzMjAwNjcwMDY1MDA2RjAwNkQwMDY1MDA3NDAwNzIwMDc5MDAyNTAwMzIwMDMyMDAyNTAwMzIwMDMwMDAyNTAwMzIwMDQ2MDAyNTAwMzMwMDQ1MDAyNTAwMzAwMDQxMDAyNTAwMzIwMDMwMDAyNTAwMzIwMDMwMDAyNTAwMzIwMDMwMDAyNTAwMzIwMDMwMDAyNTAwMzIwMDMwMDAyNTAwMzIwMDMwMDAyNTAwMzIwMDMwMDAyNTAwMzIwMDMwMDAyNTAwMzMwMDQzMDAyNTAwMzIwMDQ2MDA2RDAwNzgwMDQzMDA2NTAwNkMwMDZDMDAyNTAwMzMwMDQ1MDAyNTAwMzAwMDQxMDAyNTAwMzIwMDMwMDAyNTAwMzIwMDMwMDAyNTAwMzIwMDMwMDAyNTAwMzIwMDMwMDAyNTAwMzIwMDMwMDAyNTAwMzIwMDMwMDAyNTAwMzIwMDMwMDAyNTAwMzIwMDMwMDAyNTAwMzMwMDQzMDA2RDAwNzgwMDQzMDA2NTAwNkMwMDZDMDAyNTAwMzIwMDMwMDA2OTAwNjQwMDI1MDAzMzAwNDQwMDI1MDAzMjAwMzIwMDVBMDA2OTAwNTYwMDQyMDA1NjAwNEUwMDRBMDA0NTAwNEEwMDM2MDA2NTAwMzYwMDY3MDA1NDAwNEEwMDcyMDA2QTAwNEQwMDQ4MDA0MzAwMkQwMDMyMDAyNTAwMzIwMDMyMDAyNTAwMzIwMDMwMDA3NjAwNjEwMDZDMDA3NTAwNjUwMDI1MDAzMzAwNDQwMDI1MDAzMjAwMzIwMDQxMDA3MzAwNzMwMDY5MDA2NzAwNkUwMDI1MDAzMjAwMzAwMDYxMDA2RTAwNjQwMDI1MDAzMjAwMzAwMDREMDA2MTAwNkUwMDYxMDA2NzAwNjUwMDI1MDAzMjAwMzAwMDU0MDA2MTAwNzMwMDZCMDAyNTAwMzIwMDMyMDAyNTAwMzIwMDMwMDA3MzAwNzQwMDc5MDA2QzAwNjUwMDI1MDAzMzAwNDQwMDI1MDAzMjAwMzIwMDY1MDA2QzAwNkMwMDY5MDA3MDAwNzMwMDY1MDAyNTAwMzMwMDQyMDA3NzAwNjgwMDY5MDA3NDAwNjUwMDUzMDA3MDAwNjEwMDYzMDA2NTAwMjUwMDMzMDA0NDAwNzcwMDcyMDA2MTAwNzAwMDI1MDAzMzAwNDIwMDY4MDA3NDAwNkQwMDZDMDAyNTAwMzMwMDQ0MDAzMTAwMjUwMDMzMDA0MjAwMjUwMDMyMDAzMjAwMjUwMDMyMDAzMDAwNzYwMDY1MDA3MjAwNzQwMDY1MDA3ODAwMjUwMDMzMDA0NDAwMjUwMDMyMDAzMjAwMzEwMDI1MDAzMjAwMzIwMDI1MDAzMjAwMzAwMDcwMDA2MTAwNzIwMDY1MDA2RTAwNzQwMDI1MDAzMzAwNDQwMDI1MDAzMjAwMzIwMDVBMDA2OTAwNTYwMDQyMDA1NjAwNEUwMDRBMDA0NTAwNEEwMDM2MDA2NTAwMzYwMDY3MDA1NDAwNEEwMDcyMDA2QTAwNEQwMDQ4MDA0MzAwMkQwMDMxMDAyNTAwMzIwMDMyMDAyNTAwMzMwMDQ1MDAyNTAwMzAwMDQxMDAyNTAwMzIwMDMwMDAyNTAwMzIwMDMwMDAyNTAwMzIwMDMwMDAyNTAwMzIwMDMwMDAyNTAwMzIwMDMwMDAyNTAwMzIwMDMwMDAyNTAwMzIwMDMwMDAyNTAwMzIwMDMwMDAyNTAwMzIwMDMwMDAyNTAwMzIwMDMwMDAyNTAwMzMwMDQzMDA2RDAwNzgwMDQ3MDA2NTAwNkYwMDZEMDA2NTAwNzQwMDcyMDA3OTAwMjUwMDMyMDAzMDAwNzgwMDI1MDAzMzAwNDQwMDI1MDAzMjAwMzIwMDMyMDAzMDAwMjUwMDMyMDAzMjAwMjUwMDMyMDAzMDAwNzkwMDI1MDAzMzAwNDQwMDI1MDAzMjAwMzIwMDMzMDAzMDAwMjUwMDMyMDAzMjAwMjUwMDMyMDAzMDAwNzcwMDY5MDA2NDAwNzQwMDY4MDAyNTAwMzMwMDQ0MDAyNTAwMzIwMDMyMDAzMTAwMzYwMDMwMDAyNTAwMzIwMDMyMDAyNTAwMzIwMDMwMDA2ODAwNjUwMDY5MDA2NzAwNjgwMDc0MDAyNTAwMzMwMDQ0MDAyNTAwMzIwMDMyMDAzNTAwMzAwMDI1MDAzMjAwMzIwMDI1MDAzMjAwMzAwMDYxMDA3MzAwMjUwMDMzMDA0NDAwMjUwMDMyMDAzMjAwNjcwMDY1MDA2RjAwNkQwMDY1MDA3NDAwNzIwMDc5MDAyNTAwMzIwMDMyMDAyNTAwMzIwMDMwMDAyNTAwMzIwMDQ2MDAyNTAwMzMwMDQ1MDAyNTAwMzAwMDQxMDAyNTAwMzIwMDMwMDAyNTAwMzIwMDMwMDAyNTAwMzIwMDMwMDAyNTAwMzIwMDMwMDAyNTAwMzIwMDMwMDAyNTAwMzIwMDMwMDAyNTAwMzIwMDMwMDAyNTAwMzIwMDMwMDAyNTAwMzMwMDQzMDAyNTAwMzIwMDQ2MDA2RDAwNzgwMDQzMDA2NTAwNkMwMDZDMDAyNTAwMzMwMDQ1MDAyNTAwMzAwMDQxMDAyNTAwMzIwMDMwMDAyNTAwMzIwMDMwMDAyNTAwMzIwMDMwMDAyNTAwMzIwMDMwMDAyNTAwMzIwMDMwMDAyNTAwMzIwMDMwMDAyNTAwMzIwMDMwMDAyNTAwMzIwMDMwMDAyNTAwMzMwMDQzMDA2RDAwNzgwMDQzMDA2NTAwNkMwMDZDMDAyNTAwMzIwMDMwMDA2OTAwNjQwMDI1MDAzMzAwNDQwMDI1MDAzMjAwMzIwMDVBMDA2OTAwNTYwMDQyMDA1NjAwNEUwMDRBMDA0NTAwNEEwMDM2MDA2NTAwMzYwMDY3MDA1NDAwNEEwMDcyMDA2QTAwNEQwMDQ4MDA0MzAwMkQwMDMzMDAyNTAwMzIwMDMyMDAyNTAwMzIwMDMwMDA3NjAwNjEwMDZDMDA3NTAwNjUwMDI1MDAzMzAwNDQwMDI1MDAzMjAwMzIwMDU0MDA2MTAwNzMwMDZCMDAyNTAwMzIwMDMwMDA0RDAwNkYwMDZFMDA2OTAwNzQwMDZGMDA3MjAwNjkwMDZFMDA2NzAwMjUwMDMyMDAzMDAwNjEwMDZFMDA2NDAwMjUwMDMyMDAzMDAwNEUwMDZGMDA3NDAwNjkwMDY2MDA2OTAwNjMwMDYxMDA3NDAwNjkwMDZGMDA2RTAwNzMwMDI1MDAzMjAwMzIwMDI1MDAzMjAwMzAwMDczMDA3NDAwNzkwMDZDMDA2NTAwMjUwMDMzMDA0NDAwMjUwMDMyMDAzMjAwNjUwMDZDMDA2QzAwNjkwMDcwMDA3MzAwNjUwMDI1MDAzMzAwNDIwMDc3MDA2ODAwNjkwMDc0MDA2NTAwNTMwMDcwMDA2MTAwNjMwMDY1MDAyNTAwMzMwMDQ0MDA3NzAwNzIwMDYxMDA3MDAwMjUwMDMzMDA0MjAwNjgwMDc0MDA2RDAwNkMwMDI1MDAzMzAwNDQwMDMxMDAyNTAwMzMwMDQyMDAyNTAwMzIwMDMyMDAyNTAwMzIwMDMwMDA3NjAwNjUwMDcyMDA3NDAwNjUwMDc4MDAyNTAwMzMwMDQ0MDAyNTAwMzIwMDMyMDAzMTAwMjUwMDMyMDAzMjAwMjUwMDMyMDAzMDAwNzAwMDYxMDA3MjAwNjUwMDZFMDA3NDAwMjUwMDMzMDA0NDAwMjUwMDMyMDAzMjAwNUEwMDY5MDA1NjAwNDIwMDU2MDA0RTAwNEEwMDQ1MDA0QTAwMzYwMDY1MDAzNjAwNjcwMDU0MDA0QTAwNzIwMDZBMDA0RDAwNDgwMDQzMDAyRDAwMzEwMDI1MDAzMjAwMzIwMDI1MDAzMzAwNDUwMDI1MDAzMDAwNDEwMDI1MDAzMjAwMzAwMDI1MDAzMjAwMzAwMDI1MDAzMjAwMzAwMDI1MDAzMjAwMzAwMDI1MDAzMjAwMzAwMDI1MDAzMjAwMzAwMDI1MDAzMjAwMzAwMDI1MDAzMjAwMzAwMDI1MDAzMjAwMzAwMDI1MDAzMjAwMzAwMDI1MDAzMzAwNDMwMDZEMDA3ODAwNDcwMDY1MDA2RjAwNkQwMDY1MDA3NDAwNzIwMDc5MDAyNTAwMzIwMDMwMDA3ODAwMjUwMDMzMDA0NDAwMjUwMDMyMDAzMjAwMzIwMDMwMDAyNTAwMzIwMDMyMDAyNTAwMzIwMDMwMDA3OTAwMjUwMDMzMDA0NDAwMjUwMDMyMDAzMjAwMzEwMDMwMDAzMDAwMjUwMDMyMDAzMjAwMjUwMDMyMDAzMDAwNzcwMDY5MDA2NDAwNzQwMDY4MDAyNTAwMzMwMDQ0MDAyNTAwMzIwMDMyMDAzMTAwMzYwMDMwMDAyNTAwMzIwMDMyMDAyNTAwMzIwMDMwMDA2ODAwNjUwMDY5MDA2NzAwNjgwMDc0MDAyNTAwMzMwMDQ0MDAyNTAwMzIwMDMyMDAzNTAwMzAwMDI1MDAzMjAwMzIwMDI1MDAzMjAwMzAwMDYxMDA3MzAwMjUwMDMzMDA0NDAwMjUwMDMyMDAzMjAwNjcwMDY1MDA2RjAwNkQwMDY1MDA3NDAwNzIwMDc5MDAyNTAwMzIwMDMyMDAyNTAwMzIwMDMwMDAyNTAwMzIwMDQ2MDAyNTAwMzMwMDQ1MDAyNTAwMzAwMDQxMDAyNTAwMzIwMDMwMDAyNTAwMzIwMDMwMDAyNTAwMzIwMDMwMDAyNTAwMzIwMDMwMDAyNTAwMzIwMDMwMDAyNTAwMzIwMDMwMDAyNTAwMzIwMDMwMDAyNTAwMzIwMDMwMDAyNTAwMzMwMDQzMDAyNTAwMzIwMDQ2MDA2RDAwNzgwMDQzMDA2NTAwNkMwMDZDMDAyNTAwMzMwMDQ1MDAyNTAwMzAwMDQxMDAyNTAwMzIwMDMwMDAyNTAwMzIwMDMwMDAyNTAwMzIwMDMwMDAyNTAwMzIwMDMwMDAyNTAwMzIwMDMwMDAyNTAwMzIwMDMwMDAyNTAwMzIwMDMwMDAyNTAwMzIwMDMwMDAyNTAwMzMwMDQzMDA2RDAwNzgwMDQzMDA2NTAwNkMwMDZDMDAyNTAwMzIwMDMwMDA2OTAwNjQwMDI1MDAzMzAwNDQwMDI1MDAzMjAwMzIwMDVBMDA2OTAwNTYwMDQyMDA1NjAwNEUwMDRBMDA0NTAwNEEwMDM2MDA2NTAwMzYwMDY3MDA1NDAwNEEwMDcyMDA2QTAwNEQwMDQ4MDA0MzAwMkQwMDM0MDAyNTAwMzIwMDMyMDAyNTAwMzIwMDMwMDA3NjAwNjEwMDZDMDA3NTAwNjUwMDI1MDAzMzAwNDQwMDI1MDAzMjAwMzIwMDQxMDA3MzAwNzkwMDZFMDA2MzAwNjgwMDcyMDA2RjAwNkUwMDZGMDA3NTAwNzMwMDI1MDAzMjAwMzAwMDQzMDA2RjAwNkQwMDZEMDA3NTAwNkUwMDY5MDA2MzAwNjEwMDc0MDA2OTAwNkYwMDZFMDAyNTAwMzIwMDMyMDAyNTAwMzIwMDMwMDA3MzAwNzQwMDc5MDA2QzAwNjUwMDI1MDAzMzAwNDQwMDI1MDAzMjAwMzIwMDY1MDA2QzAwNkMwMDY5MDA3MDAwNzMwMDY1MDAyNTAwMzMwMDQyMDA3NzAwNjgwMDY5MDA3NDAwNjUwMDUzMDA3MDAwNjEwMDYzMDA2NTAwMjUwMDMzMDA0NDAwNzcwMDcyMDA2MTAwNzAwMDI1MDAzMzAwNDIwMDY4MDA3NDAwNkQwMDZDMDAyNTAwMzMwMDQ0MDAzMTAwMjUwMDMzMDA0MjAwMjUwMDMyMDAzMjAwMjUwMDMyMDAzMDAwNzYwMDY1MDA3MjAwNzQwMDY1MDA3ODAwMjUwMDMzMDA0NDAwMjUwMDMyMDAzMjAwMzEwMDI1MDAzMjAwMzIwMDI1MDAzMjAwMzAwMDcwMDA2MTAwNzIwMDY1MDA2RTAwNzQwMDI1MDAzMzAwNDQwMDI1MDAzMjAwMzIwMDVBMDA2OTAwNTYwMDQyMDA1NjAwNEUwMDRBMDA0NTAwNEEwMDM2MDA2NTAwMzYwMDY3MDA1NDAwNEEwMDcyMDA2QTAwNEQwMDQ4MDA0MzAwMkQwMDMxMDAyNTAwMzIwMDMyMDAyNTAwMzMwMDQ1MDAyNTAwMzAwMDQxMDAyNTAwMzIwMDMwMDAyNTAwMzIwMDMwMDAyNTAwMzIwMDMwMDAyNTAwMzIwMDMwMDAyNTAwMzIwMDMwMDAyNTAwMzIwMDMwMDAyNTAwMzIwMDMwMDAyNTAwMzIwMDMwMDAyNTAwMzIwMDMwMDAyNTAwMzIwMDMwMDAyNTAwMzMwMDQzMDA2RDAwNzgwMDQ3MDA2NTAwNkYwMDZEMDA2NTAwNzQwMDcyMDA3OTAwMjUwMDMyMDAzMDAwNzgwMDI1MDAzMzAwNDQwMDI1MDAzMjAwMzIwMDMyMDAzMDAwMjUwMDMyMDAzMjAwMjUwMDMyMDAzMDAwNzkwMDI1MDAzMzAwNDQwMDI1MDAzMjAwMzIwMDMxMDAzNzAwMzAwMDI1MDAzMjAwMzIwMDI1MDAzMjAwMzAwMDc3MDA2OTAwNjQwMDc0MDA2ODAwMjUwMDMzMDA0NDAwMjUwMDMyMDAzMjAwMzEwMDM2MDAzMDAwMjUwMDMyMDAzMjAwMjUwMDMyMDAzMDAwNjgwMDY1MDA2OTAwNjcwMDY4MDA3NDAwMjUwMDMzMDA0NDAwMjUwMDMyMDAzMjAwMzUwMDMwMDAyNTAwMzIwMDMyMDAyNTAwMzIwMDMwMDA2MTAwNzMwMDI1MDAzMzAwNDQwMDI1MDAzMjAwMzIwMDY3MDA2NTAwNkYwMDZEMDA2NTAwNzQwMDcyMDA3OTAwMjUwMDMyMDAzMjAwMjUwMDMyMDAzMDAwMjUwMDMyMDA0NjAwMjUwMDMzMDA0NTAwMjUwMDMwMDA0MTAwMjUwMDMyMDAzMDAwMjUwMDMyMDAzMDAwMjUwMDMyMDAzMDAwMjUwMDMyMDAzMDAwMjUwMDMyMDAzMDAwMjUwMDMyMDAzMDAwMjUwMDMyMDAzMDAwMjUwMDMyMDAzMDAwMjUwMDMzMDA0MzAwMjUwMDMyMDA0NjAwNkQwMDc4MDA0MzAwNjUwMDZDMDA2QzAwMjUwMDMzMDA0NTAwMjUwMDMwMDA0MTAwMjUwMDMyMDAzMDAwMjUwMDMyMDAzMDAwMjUwMDMyMDAzMDAwMjUwMDMyMDAzMDAwMjUwMDMyMDAzMDAwMjUwMDMyMDAzMDAwMjUwMDMyMDAzMDAwMjUwMDMyMDAzMDAwMjUwMDMzMDA0MzAwNkQwMDc4MDA0MzAwNjUwMDZDMDA2QzAwMjUwMDMyMDAzMDAwNjkwMDY0MDAyNTAwMzMwMDQ0MDAyNTAwMzIwMDMyMDA1QTAwNjkwMDU2MDA0MjAwNTYwMDRFMDA0QTAwNDUwMDRBMDAzNjAwNjUwMDM2MDA2NzAwNTQwMDRBMDA3MjAwNkEwMDREMDA0ODAwNDMwMDJEMDAzNTAwMjUwMDMyMDAzMjAwMjUwMDMyMDAzMDAwNzYwMDYxMDA2QzAwNzUwMDY1MDAyNTAwMzMwMDQ0MDAyNTAwMzIwMDMyMDA0NDAwNkYwMDYzMDA3NTAwNkQwMDY1MDA2RTAwNzQwMDI1MDAzMjAwMzAwMDUzMDA2ODAwNjEwMDcyMDA2OTAwNkUwMDY3MDAyNTAwMzIwMDMwMDA2MTAwNkUwMDY0MDAyNTAwMzIwMDMwMDA0MzAwNkYwMDZDMDA2QzAwNjEwMDYyMDA2RjAwNzIwMDYxMDA3NDAwNjkwMDZGMDA2RTAwMjUwMDMyMDAzMjAwMjUwMDMyMDAzMDAwNzMwMDc0MDA3OTAwNkMwMDY1MDAyNTAwMzMwMDQ0MDAyNTAwMzIwMDMyMDA2NTAwNkMwMDZDMDA2OTAwNzAwMDczMDA2NTAwMjUwMDMzMDA0MjAwNzcwMDY4MDA2OTAwNzQwMDY1MDA1MzAwNzAwMDYxMDA2MzAwNjUwMDI1MDAzMzAwNDQwMDc3MDA3MjAwNjEwMDcwMDAyNTAwMzMwMDQyMDA2ODAwNzQwMDZEMDA2QzAwMjUwMDMzMDA0NDAwMzEwMDI1MDAzMzAwNDIwMDI1MDAzMjAwMzIwMDI1MDAzMjAwMzAwMDc2MDA2NTAwNzIwMDc0MDA2NTAwNzgwMDI1MDAzMzAwNDQwMDI1MDAzMjAwMzIwMDMxMDAyNTAwMzIwMDMyMDAyNTAwMzIwMDMwMDA3MDAwNjEwMDcyMDA2NTAwNkUwMDc0MDAyNTAwMzMwMDQ0MDAyNTAwMzIwMDMyMDA1QTAwNjkwMDU2MDA0MjAwNTYwMDRFMDA0QTAwNDUwMDRBMDAzNjAwNjUwMDM2MDA2NzAwNTQwMDRBMDA3MjAwNkEwMDREMDA0ODAwNDMwMDJEMDAzMTAwMjUwMDMyMDAzMjAwMjUwMDMzMDA0NTAwMjUwMDMwMDA0MTAwMjUwMDMyMDAzMDAwMjUwMDMyMDAzMDAwMjUwMDMyMDAzMDAwMjUwMDMyMDAzMDAwMjUwMDMyMDAzMDAwMjUwMDMyMDAzMDAwMjUwMDMyMDAzMDAwMjUwMDMyMDAzMDAwMjUwMDMyMDAzMDAwMjUwMDMyMDAzMDAwMjUwMDMzMDA0MzAwNkQwMDc4MDA0NzAwNjUwMDZGMDA2RDAwNjUwMDc0MDA3MjAwNzkwMDI1MDAzMjAwMzAwMDc4MDAyNTAwMzMwMDQ0MDAyNTAwMzIwMDMyMDAzMjAwMzAwMDI1MDAzMjAwMzIwMDI1MDAzMjAwMzAwMDc5MDAyNTAwMzMwMDQ0MDAyNTAwMzIwMDMyMDAzMjAwMzQwMDMwMDAyNTAwMzIwMDMyMDAyNTAwMzIwMDMwMDA3NzAwNjkwMDY0MDA3NDAwNjgwMDI1MDAzMzAwNDQwMDI1MDAzMjAwMzIwMDMxMDAzNjAwMzAwMDI1MDAzMjAwMzIwMDI1MDAzMjAwMzAwMDY4MDA2NTAwNjkwMDY3MDA2ODAwNzQwMDI1MDAzMzAwNDQwMDI1MDAzMjAwMzIwMDM1MDAzMDAwMjUwMDMyMDAzMjAwMjUwMDMyMDAzMDAwNjEwMDczMDAyNTAwMzMwMDQ0MDAyNTAwMzIwMDMyMDA2NzAwNjUwMDZGMDA2RDAwNjUwMDc0MDA3MjAwNzkwMDI1MDAzMjAwMzIwMDI1MDAzMjAwMzAwMDI1MDAzMjAwNDYwMDI1MDAzMzAwNDUwMDI1MDAzMDAwNDEwMDI1MDAzMjAwMzAwMDI1MDAzMjAwMzAwMDI1MDAzMjAwMzAwMDI1MDAzMjAwMzAwMDI1MDAzMjAwMzAwMDI1MDAzMjAwMzAwMDI1MDAzMjAwMzAwMDI1MDAzMjAwMzAwMDI1MDAzMzAwNDMwMDI1MDAzMjAwNDYwMDZEMDA3ODAwNDMwMDY1MDA2QzAwNkMwMDI1MDAzMzAwNDUwMDI1MDAzMDAwNDEwMDI1MDAzMjAwMzAwMDI1MDAzMjAwMzAwMDI1MDAzMjAwMzAwMDI1MDAzMjAwMzAwMDI1MDAzMjAwMzAwMDI1MDAzMjAwMzAwMDI1MDAzMjAwMzAwMDI1MDAzMjAwMzAwMDI1MDAzMzAwNDMwMDZEMDA3ODAwNDMwMDY1MDA2QzAwNkMwMDI1MDAzMjAwMzAwMDY5MDA2NDAwMjUwMDMzMDA0NDAwMjUwMDMyMDAzMjAwNUEwMDY5MDA1NjAwNDIwMDU2MDA0RTAwNEEwMDQ1MDA0QTAwMzYwMDY1MDAzNjAwNjcwMDU0MDA0QTAwNzIwMDZBMDA0RDAwNDgwMDQzMDAyRDAwMzYwMDI1MDAzMjAwMzIwMDI1MDAzMjAwMzAwMDc2MDA2MTAwNkMwMDc1MDA2NTAwMjUwMDMzMDA0NDAwMjUwMDMyMDAzMjAwNDEwMDYzMDA3NDAwNjkwMDc2MDA2OTAwNzQwMDc5MDAyNTAwMzIwMDMwMDA1NDAwNzIwMDYxMDA2MzAwNkIwMDY5MDA2RTAwNjcwMDI1MDAzMjAwMzAwMDYxMDA2RTAwNjQwMDI1MDAzMjAwMzAwMDQxMDA2MzAwNjMwMDZGMDA3NTAwNkUwMDc0MDA2MTAwNjIwMDY5MDA2QzAwNjkwMDc0MDA3OTAwMjUwMDMyMDAzMjAwMjUwMDMyMDAzMDAwNzMwMDc0MDA3OTAwNkMwMDY1MDAyNTAwMzMwMDQ0MDAyNTAwMzIwMDMyMDA2NTAwNkMwMDZDMDA2OTAwNzAwMDczMDA2NTAwMjUwMDMzMDA0MjAwNzcwMDY4MDA2OTAwNzQwMDY1MDA1MzAwNzAwMDYxMDA2MzAwNjUwMDI1MDAzMzAwNDQwMDc3MDA3MjAwNjEwMDcwMDAyNTAwMzMwMDQyMDA2ODAwNzQwMDZEMDA2QzAwMjUwMDMzMDA0NDAwMzEwMDI1MDAzMzAwNDIwMDI1MDAzMjAwMzIwMDI1MDAzMjAwMzAwMDc2MDA2NTAwNzIwMDc0MDA2NTAwNzgwMDI1MDAzMzAwNDQwMDI1MDAzMjAwMzIwMDMxMDAyNTAwMzIwMDMyMDAyNTAwMzIwMDMwMDA3MDAwNjEwMDcyMDA2NTAwNkUwMDc0MDAyNTAwMzMwMDQ0MDAyNTAwMzIwMDMyMDA1QTAwNjkwMDU2MDA0MjAwNTYwMDRFMDA0QTAwNDUwMDRBMDAzNjAwNjUwMDM2MDA2NzAwNTQwMDRBMDA3MjAwNkEwMDREMDA0ODAwNDMwMDJEMDAzMTAwMjUwMDMyMDAzMjAwMjUwMDMzMDA0NTAwMjUwMDMwMDA0MTAwMjUwMDMyMDAzMDAwMjUwMDMyMDAzMDAwMjUwMDMyMDAzMDAwMjUwMDMyMDAzMDAwMjUwMDMyMDAzMDAwMjUwMDMyMDAzMDAwMjUwMDMyMDAzMDAwMjUwMDMyMDAzMDAwMjUwMDMyMDAzMDAwMjUwMDMyMDAzMDAwMjUwMDMzMDA0MzAwNkQwMDc4MDA0NzAwNjUwMDZGMDA2RDAwNjUwMDc0MDA3MjAwNzkwMDI1MDAzMjAwMzAwMDc4MDAyNTAwMzMwMDQ0MDAyNTAwMzIwMDMyMDAzMjAwMzAwMDI1MDAzMjAwMzIwMDI1MDAzMjAwMzAwMDc5MDAyNTAwMzMwMDQ0MDAyNTAwMzIwMDMyMDAzMzAwMzEwMDMwMDAyNTAwMzIwMDMyMDAyNTAwMzIwMDMwMDA3NzAwNjkwMDY0MDA3NDAwNjgwMDI1MDAzMzAwNDQwMDI1MDAzMjAwMzIwMDMxMDAzNjAwMzAwMDI1MDAzMjAwMzIwMDI1MDAzMjAwMzAwMDY4MDA2NTAwNjkwMDY3MDA2ODAwNzQwMDI1MDAzMzAwNDQwMDI1MDAzMjAwMzIwMDM1MDAzMDAwMjUwMDMyMDAzMjAwMjUwMDMyMDAzMDAwNjEwMDczMDAyNTAwMzMwMDQ0MDAyNTAwMzIwMDMyMDA2NzAwNjUwMDZGMDA2RDAwNjUwMDc0MDA3MjAwNzkwMDI1MDAzMjAwMzIwMDI1MDAzMjAwMzAwMDI1MDAzMjAwNDYwMDI1MDAzMzAwNDUwMDI1MDAzMDAwNDEwMDI1MDAzMjAwMzAwMDI1MDAzMjAwMzAwMDI1MDAzMjAwMzAwMDI1MDAzMjAwMzAwMDI1MDAzMjAwMzAwMDI1MDAzMjAwMzAwMDI1MDAzMjAwMzAwMDI1MDAzMjAwMzAwMDI1MDAzMzAwNDMwMDI1MDAzMjAwNDYwMDZEMDA3ODAwNDMwMDY1MDA2QzAwNkMwMDI1MDAzMzAwNDUwMDI1MDAzMDAwNDEwMDI1MDAzMjAwMzAwMDI1MDAzMjAwMzAwMDI1MDAzMjAwMzAwMDI1MDAzMjAwMzAwMDI1MDAzMjAwMzAwMDI1MDAzMjAwMzAwMDI1MDAzMjAwMzAwMDI1MDAzMjAwMzAwMDI1MDAzMzAwNDMwMDZEMDA3ODAwNDMwMDY1MDA2QzAwNkMwMDI1MDAzMjAwMzAwMDY5MDA2NDAwMjUwMDMzMDA0NDAwMjUwMDMyMDAzMjAwNUEwMDY5MDA1NjAwNDIwMDU2MDA0RTAwNEEwMDQ1MDA0QTAwMzYwMDY1MDAzNjAwNjcwMDU0MDA0QTAwNzIwMDZBMDA0RDAwNDgwMDQzMDAyRDAwMzcwMDI1MDAzMjAwMzIwMDI1MDAzMjAwMzAwMDc2MDA2MTAwNkMwMDc1MDA2NTAwMjUwMDMzMDA0NDAwMjUwMDMyMDAzMjAwNTQwMDcyMDA2MTAwNjkwMDZFMDA2OTAwNkUwMDY3MDAyNTAwMzIwMDMwMDA2MTAwNkUwMDY0MDAyNTAwMzIwMDMwMDA2RjAwNkUwMDYyMDA2RjAwNjEwMDcyMDA2NDAwNjkwMDZFMDA2NzAwMjUwMDMyMDAzMjAwMjUwMDMyMDAzMDAwNzMwMDc0MDA3OTAwNkMwMDY1MDAyNTAwMzMwMDQ0MDAyNTAwMzIwMDMyMDA2NTAwNkMwMDZDMDA2OTAwNzAwMDczMDA2NTAwMjUwMDMzMDA0MjAwNzcwMDY4MDA2OTAwNzQwMDY1MDA1MzAwNzAwMDYxMDA2MzAwNjUwMDI1MDAzMzAwNDQwMDc3MDA3MjAwNjEwMDcwMDAyNTAwMzMwMDQyMDA2ODAwNzQwMDZEMDA2QzAwMjUwMDMzMDA0NDAwMzEwMDI1MDAzMzAwNDIwMDI1MDAzMjAwMzIwMDI1MDAzMjAwMzAwMDc2MDA2NTAwNzIwMDc0MDA2NTAwNzgwMDI1MDAzMzAwNDQwMDI1MDAzMjAwMzIwMDMxMDAyNTAwMzIwMDMyMDAyNTAwMzIwMDMwMDA3MDAwNjEwMDcyMDA2NTAwNkUwMDc0MDAyNTAwMzMwMDQ0MDAyNTAwMzIwMDMyMDA1QTAwNjkwMDU2MDA0MjAwNTYwMDRFMDA0QTAwNDUwMDRBMDAzNjAwNjUwMDM2MDA2NzAwNTQwMDRBMDA3MjAwNkEwMDREMDA0ODAwNDMwMDJEMDAzMTAwMjUwMDMyMDAzMjAwMjUwMDMzMDA0NTAwMjUwMDMwMDA0MTAwMjUwMDMyMDAzMDAwMjUwMDMyMDAzMDAwMjUwMDMyMDAzMDAwMjUwMDMyMDAzMDAwMjUwMDMyMDAzMDAwMjUwMDMyMDAzMDAwMjUwMDMyMDAzMDAwMjUwMDMyMDAzMDAwMjUwMDMyMDAzMDAwMjUwMDMyMDAzMDAwMjUwMDMzMDA0MzAwNkQwMDc4MDA0NzAwNjUwMDZGMDA2RDAwNjUwMDc0MDA3MjAwNzkwMDI1MDAzMjAwMzAwMDc4MDAyNTAwMzMwMDQ0MDAyNTAwMzIwMDMyMDAzMjAwMzAwMDI1MDAzMjAwMzIwMDI1MDAzMjAwMzAwMDc5MDAyNTAwMzMwMDQ0MDAyNTAwMzIwMDMyMDAzMzAwMzgwMDMwMDAyNTAwMzIwMDMyMDAyNTAwMzIwMDMwMDA3NzAwNjkwMDY0MDA3NDAwNjgwMDI1MDAzMzAwNDQwMDI1MDAzMjAwMzIwMDMxMDAzNjAwMzAwMDI1MDAzMjAwMzIwMDI1MDAzMjAwMzAwMDY4MDA2NTAwNjkwMDY3MDA2ODAwNzQwMDI1MDAzMzAwNDQwMDI1MDAzMjAwMzIwMDM1MDAzMDAwMjUwMDMyMDAzMjAwMjUwMDMyMDAzMDAwNjEwMDczMDAyNTAwMzMwMDQ0MDAyNTAwMzIwMDMyMDA2NzAwNjUwMDZGMDA2RDAwNjUwMDc0MDA3MjAwNzkwMDI1MDAzMjAwMzIwMDI1MDAzMjAwMzAwMDI1MDAzMjAwNDYwMDI1MDAzMzAwNDUwMDI1MDAzMDAwNDEwMDI1MDAzMjAwMzAwMDI1MDAzMjAwMzAwMDI1MDAzMjAwMzAwMDI1MDAzMjAwMzAwMDI1MDAzMjAwMzAwMDI1MDAzMjAwMzAwMDI1MDAzMjAwMzAwMDI1MDAzMjAwMzAwMDI1MDAzMzAwNDMwMDI1MDAzMjAwNDYwMDZEMDA3ODAwNDMwMDY1MDA2QzAwNkMwMDI1MDAzMzAwNDUwMDI1MDAzMDAwNDEwMDI1MDAzMjAwMzAwMDI1MDAzMjAwMzAwMDI1MDAzMjAwMzAwMDI1MDAzMjAwMzAwMDI1MDAzMjAwMzAwMDI1MDAzMjAwMzAwMDI1MDAzMjAwMzAwMDI1MDAzMjAwMzAwMDI1MDAzMzAwNDMwMDZEMDA3ODAwNDMwMDY1MDA2QzAwNkMwMDI1MDAzMjAwMzAwMDY5MDA2NDAwMjUwMDMzMDA0NDAwMjUwMDMyMDAzMjAwNUEwMDY5MDA1NjAwNDIwMDU2MDA0RTAwNEEwMDQ1MDA0QTAwMzYwMDY1MDAzNjAwNjcwMDU0MDA0QTAwNzIwMDZBMDA0RDAwNDgwMDQzMDAyRDAwMzIwMDM5MDAyNTAwMzIwMDMyMDAyNTAwMzIwMDMwMDA3NjAwNjEwMDZDMDA3NTAwNjUwMDI1MDAzMzAwNDQwMDI1MDAzMjAwMzIwMDU0MDA2MTAwNzMwMDZCMDAyNTAwMzIwMDMwMDA0RDAwNjEwMDZFMDA2MTAwNjcwMDY1MDA2RDAwNjUwMDZFMDA3NDAwMjUwMDMyMDAzMDAwNDEwMDcwMDA3MDAwMjUwMDMyMDAzMjAwMjUwMDMyMDAzMDAwNzMwMDc0MDA3OTAwNkMwMDY1MDAyNTAwMzMwMDQ0MDAyNTAwMzIwMDMyMDA3NDAwNjUwMDc4MDA3NDAwMjUwMDMzMDA0MjAwNjgwMDc0MDA2RDAwNkMwMDI1MDAzMzAwNDQwMDMxMDAyNTAwMzMwMDQyMDA2MTAwNkMwMDY5MDA2NzAwNkUwMDI1MDAzMzAwNDQwMDYzMDA2NTAwNkUwMDc0MDA2NTAwNzIwMDI1MDAzMzAwNDIwMDc2MDA2NTAwNzIwMDc0MDA2OTAwNjMwMDYxMDA2QzAwNDEwMDZDMDA2OTAwNjcwMDZFMDAyNTAwMzMwMDQ0MDA2RDAwNjkwMDY0MDA2NDAwNkMwMDY1MDAyNTAwMzMwMDQyMDA3MjAwNjUwMDczMDA2OTAwN0EwMDYxMDA2MjAwNkMwMDY1MDAyNTAwMzMwMDQ0MDAzMDAwMjUwMDMzMDA0MjAwNzAwMDZGMDA2OTAwNkUwMDc0MDA3MzAwMjUwMDMzMDA0NDAwMjUwMDM1MDA0MjAwMjUwMDM1MDA0NDAwMjUwMDMzMDA0MjAwNjEwMDc1MDA3NDAwNkYwMDczMDA2OTAwN0EwMDY1MDAyNTAwMzMwMDQ0MDAzMTAwMjUwMDMzMDA0MjAwNzMwMDc0MDA3MjAwNkYwMDZCMDA2NTAwNDMwMDZGMDA2QzAwNkYwMDcyMDAyNTAwMzMwMDQ0MDA2RTAwNkYwMDZFMDA2NTAwMjUwMDMzMDA0MjAwNjYwMDY5MDA2QzAwNkMwMDQzMDA2RjAwNkMwMDZGMDA3MjAwMjUwMDMzMDA0NDAwNkUwMDZGMDA2RTAwNjUwMDI1MDAzMzAwNDIwMDI1MDAzMjAwMzIwMDI1MDAzMjAwMzAwMDc2MDA2NTAwNzIwMDc0MDA2NTAwNzgwMDI1MDAzMzAwNDQwMDI1MDAzMjAwMzIwMDMxMDAyNTAwMzIwMDMyMDAyNTAwMzIwMDMwMDA3MDAwNjEwMDcyMDA2NTAwNkUwMDc0MDAyNTAwMzMwMDQ0MDAyNTAwMzIwMDMyMDA1QTAwNjkwMDU2MDA0MjAwNTYwMDRFMDA0QTAwNDUwMDRBMDAzNjAwNjUwMDM2MDA2NzAwNTQwMDRBMDA3MjAwNkEwMDREMDA0ODAwNDMwMDJEMDAzMTAwMjUwMDMyMDAzMjAwMjUwMDMzMDA0NTAwMjUwMDMwMDA0MTAwMjUwMDMyMDAzMDAwMjUwMDMyMDAzMDAwMjUwMDMyMDAzMDAwMjUwMDMyMDAzMDAwMjUwMDMyMDAzMDAwMjUwMDMyMDAzMDAwMjUwMDMyMDAzMDAwMjUwMDMyMDAzMDAwMjUwMDMyMDAzMDAwMjUwMDMyMDAzMDAwMjUwMDMzMDA0MzAwNkQwMDc4MDA0NzAwNjUwMDZGMDA2RDAwNjUwMDc0MDA3MjAwNzkwMDI1MDAzMjAwMzAwMDc4MDAyNTAwMzMwMDQ0MDAyNTAwMzIwMDMyMDAzMjAwMzUwMDI1MDAzMjAwMzIwMDI1MDAzMjAwMzAwMDc3MDA2OTAwNjQwMDc0MDA2ODAwMjUwMDMzMDA0NDAwMjUwMDMyMDAzMjAwMzEwMDM1MDAzMDAwMjUwMDMyMDAzMjAwMjUwMDMyMDAzMDAwNjgwMDY1MDA2OTAwNjcwMDY4MDA3NDAwMjUwMDMzMDA0NDAwMjUwMDMyMDAzMjAwMzMwMDMwMDAyNTAwMzIwMDMyMDAyNTAwMzIwMDMwMDA2MTAwNzMwMDI1MDAzMzAwNDQwMDI1MDAzMjAwMzIwMDY3MDA2NTAwNkYwMDZEMDA2NTAwNzQwMDcyMDA3OTAwMjUwMDMyMDAzMjAwMjUwMDMyMDAzMDAwMjUwMDMyMDA0NjAwMjUwMDMzMDA0NTAwMjUwMDMwMDA0MTAwMjUwMDMyMDAzMDAwMjUwMDMyMDAzMDAwMjUwMDMyMDAzMDAwMjUwMDMyMDAzMDAwMjUwMDMyMDAzMDAwMjUwMDMyMDAzMDAwMjUwMDMyMDAzMDAwMjUwMDMyMDAzMDAwMjUwMDMzMDA0MzAwMjUwMDMyMDA0NjAwNkQwMDc4MDA0MzAwNjUwMDZDMDA2QzAwMjUwMDMzMDA0NTAwMjUwMDMwMDA0MTAwMjUwMDMyMDAzMDAwMjUwMDMyMDAzMDAwMjUwMDMyMDAzMDAwMjUwMDMyMDAzMDAwMjUwMDMyMDAzMDAwMjUwMDMyMDAzMDAwMjUwMDMyMDAzMDAwMjUwMDMyMDAzMDAwMjUwMDMzMDA0MzAwNkQwMDc4MDA0MzAwNjUwMDZDMDA2QzAwMjUwMDMyMDAzMDAwNjkwMDY0MDAyNTAwMzMwMDQ0MDAyNTAwMzIwMDMyMDA1QTAwNjkwMDU2MDA0MjAwNTYwMDRFMDA0QTAwNDUwMDRBMDAzNjAwNjUwMDM2MDA2NzAwNTQwMDRBMDA3MjAwNkEwMDREMDA0ODAwNDMwMDJEMDAzMTAwMzgwMDI1MDAzMjAwMzIwMDI1MDAzMjAwMzAwMDczMDA3NDAwNzkwMDZDMDA2NTAwMjUwMDMzMDA0NDAwMjUwMDMyMDAzMjAwNjUwMDY0MDA2NzAwNjUwMDUzMDA3NDAwNzkwMDZDMDA2NTAwMjUwMDMzMDA0NDAwNkYwMDcyMDA3NDAwNjgwMDZGMDA2NzAwNkYwMDZFMDA2MTAwNkMwMDQ1MDA2NDAwNjcwMDY1MDA1MzAwNzQwMDc5MDA2QzAwNjUwMDI1MDAzMzAwNDIwMDcyMDA2RjAwNzUwMDZFMDA2NDAwNjUwMDY0MDAyNTAwMzMwMDQ0MDAzMDAwMjUwMDMzMDA0MjAwNkYwMDcyMDA3NDAwNjgwMDZGMDA2NzAwNkYwMDZFMDA2MTAwNkMwMDRDMDA2RjAwNkYwMDcwMDAyNTAwMzMwMDQ0MDAzMTAwMjUwMDMzMDA0MjAwNkEwMDY1MDA3NDAwNzQwMDc5MDA1MzAwNjkwMDdBMDA2NTAwMjUwMDMzMDA0NDAwNjEwMDc1MDA3NDAwNkYwMDI1MDAzMzAwNDIwMDY4MDA3NDAwNkQwMDZDMDAyNTAwMzMwMDQ0MDAzMTAwMjUwMDMzMDA0MjAwMjUwMDMyMDAzMjAwMjUwMDMyMDAzMDAwNjUwMDY0MDA2NzAwNjUwMDI1MDAzMzAwNDQwMDI1MDAzMjAwMzIwMDMxMDAyNTAwMzIwMDMyMDAyNTAwMzIwMDMwMDA3MDAwNjEwMDcyMDA2NTAwNkUwMDc0MDAyNTAwMzMwMDQ0MDAyNTAwMzIwMDMyMDAzMTAwMjUwMDMyMDAzMjAwMjUwMDMyMDAzMDAwNzMwMDZGMDA3NTAwNzIwMDYzMDA2NTAwMjUwMDMzMDA0NDAwMjUwMDMyMDAzMjAwNUEwMDY5MDA1NjAwNDIwMDU2MDA0RTAwNEEwMDQ1MDA0QTAwMzYwMDY1MDAzNjAwNjcwMDU0MDA0QTAwNzIwMDZBMDA0RDAwNDgwMDQzMDAyRDAwMzgwMDI1MDAzMjAwMzIwMDI1MDAzMjAwMzAwMDc0MDA2MTAwNzIwMDY3MDA2NTAwNzQwMDI1MDAzMzAwNDQwMDI1MDAzMjAwMzIwMDVBMDA2OTAwNTYwMDQyMDA1NjAwNEUwMDRBMDA0NTAwNEEwMDM2MDA2NTAwMzYwMDY3MDA1NDAwNEEwMDcyMDA2QTAwNEQwMDQ4MDA0MzAwMkQwMDMzMDAyNTAwMzIwMDMyMDAyNTAwMzMwMDQ1MDAyNTAwMzAwMDQxMDAyNTAwMzIwMDMwMDAyNTAwMzIwMDMwMDAyNTAwMzIwMDMwMDAyNTAwMzIwMDMwMDAyNTAwMzIwMDMwMDAyNTAwMzIwMDMwMDAyNTAwMzIwMDMwMDAyNTAwMzIwMDMwMDAyNTAwMzIwMDMwMDAyNTAwMzIwMDMwMDAyNTAwMzMwMDQzMDA2RDAwNzgwMDQ3MDA2NTAwNkYwMDZEMDA2NTAwNzQwMDcyMDA3OTAwMjUwMDMyMDAzMDAwNzIwMDY1MDA2QzAwNjEwMDc0MDA2OTAwNzYwMDY1MDAyNTAwMzMwMDQ0MDAyNTAwMzIwMDMyMDAzMTAwMjUwMDMyMDAzMjAwMjUwMDMyMDAzMDAwNjEwMDczMDAyNTAwMzMwMDQ0MDAyNTAwMzIwMDMyMDA2NzAwNjUwMDZGMDA2RDAwNjUwMDc0MDA3MjAwNzkwMDI1MDAzMjAwMzIwMDI1MDAzMjAwMzAwMDI1MDAzMjAwNDYwMDI1MDAzMzAwNDUwMDI1MDAzMDAwNDEwMDI1MDAzMjAwMzAwMDI1MDAzMjAwMzAwMDI1MDAzMjAwMzAwMDI1MDAzMjAwMzAwMDI1MDAzMjAwMzAwMDI1MDAzMjAwMzAwMDI1MDAzMjAwMzAwMDI1MDAzMjAwMzAwMDI1MDAzMzAwNDMwMDI1MDAzMjAwNDYwMDZEMDA3ODAwNDMwMDY1MDA2QzAwNkMwMDI1MDAzMzAwNDUwMDI1MDAzMDAwNDEwMDI1MDAzMjAwMzAwMDI1MDAzMjAwMzAwMDI1MDAzMjAwMzAwMDI1MDAzMjAwMzAwMDI1MDAzMjAwMzAwMDI1MDAzMjAwMzAwMDI1MDAzMjAwMzAwMDI1MDAzMjAwMzAwMDI1MDAzMzAwNDMwMDZEMDA3ODAwNDMwMDY1MDA2QzAwNkMwMDI1MDAzMjAwMzAwMDY5MDA2NDAwMjUwMDMzMDA0NDAwMjUwMDMyMDAzMjAwNUEwMDY5MDA1NjAwNDIwMDU2MDA0RTAwNEEwMDQ1MDA0QTAwMzYwMDY1MDAzNjAwNjcwMDU0MDA0QTAwNzIwMDZBMDA0RDAwNDgwMDQzMDAyRDAwMzEwMDM5MDAyNTAwMzIwMDMyMDAyNTAwMzIwMDMwMDA3MzAwNzQwMDc5MDA2QzAwNjUwMDI1MDAzMzAwNDQwMDI1MDAzMjAwMzIwMDY1MDA2NDAwNjcwMDY1MDA1MzAwNzQwMDc5MDA2QzAwNjUwMDI1MDAzMzAwNDQwMDZGMDA3MjAwNzQwMDY4MDA2RjAwNjcwMDZGMDA2RTAwNjEwMDZDMDA0NTAwNjQwMDY3MDA2NTAwNTMwMDc0MDA3OTAwNkMwMDY1MDAyNTAwMzMwMDQyMDA3MjAwNkYwMDc1MDA2RTAwNjQwMDY1MDA2NDAwMjUwMDMzMDA0NDAwMzAwMDI1MDAzMzAwNDIwMDZGMDA3MjAwNzQwMDY4MDA2RjAwNjcwMDZGMDA2RTAwNjEwMDZDMDA0QzAwNkYwMDZGMDA3MDAwMjUwMDMzMDA0NDAwMzEwMDI1MDAzMzAwNDIwMDZBMDA2NTAwNzQwMDc0MDA3OTAwNTMwMDY5MDA3QTAwNjUwMDI1MDAzMzAwNDQwMDYxMDA3NTAwNzQwMDZGMDAyNTAwMzMwMDQyMDA2ODAwNzQwMDZEMDA2QzAwMjUwMDMzMDA0NDAwMzEwMDI1MDAzMzAwNDIwMDY1MDA2RTAwNzQwMDcyMDA3OTAwNTgwMDI1MDAzMzAwNDQwMDMwMDAyNTAwMzMwMDQyMDA2NTAwNkUwMDc0MDA3MjAwNzkwMDU5MDAyNTAwMzMwMDQ0MDAzMDAwMkUwMDM1MDAyNTAwMzMwMDQyMDA2NTAwNkUwMDc0MDA3MjAwNzkwMDQ0MDA3ODAwMjUwMDMzMDA0NDAwMzAwMDI1MDAzMzAwNDIwMDY1MDA2RTAwNzQwMDcyMDA3OTAwNDQwMDc5MDAyNTAwMzMwMDQ0MDAzMDAwMjUwMDMzMDA0MjAwMjUwMDMyMDAzMjAwMjUwMDMyMDAzMDAwNjUwMDY0MDA2NzAwNjUwMDI1MDAzMzAwNDQwMDI1MDAzMjAwMzIwMDMxMDAyNTAwMzIwMDMyMDAyNTAwMzIwMDMwMDA3MDAwNjEwMDcyMDA2NTAwNkUwMDc0MDAyNTAwMzMwMDQ0MDAyNTAwMzIwMDMyMDAzMTAwMjUwMDMyMDAzMjAwMjUwMDMyMDAzMDAwNzMwMDZGMDA3NTAwNzIwMDYzMDA2NTAwMjUwMDMzMDA0NDAwMjUwMDMyMDAzMjAwNUEwMDY5MDA1NjAwNDIwMDU2MDA0RTAwNEEwMDQ1MDA0QTAwMzYwMDY1MDAzNjAwNjcwMDU0MDA0QTAwNzIwMDZBMDA0RDAwNDgwMDQzMDAyRDAwMzgwMDI1MDAzMjAwMzIwMDI1MDAzMjAwMzAwMDc0MDA2MTAwNzIwMDY3MDA2NTAwNzQwMDI1MDAzMzAwNDQwMDI1MDAzMjAwMzIwMDVBMDA2OTAwNTYwMDQyMDA1NjAwNEUwMDRBMDA0NTAwNEEwMDM2MDA2NTAwMzYwMDY3MDA1NDAwNEEwMDcyMDA2QTAwNEQwMDQ4MDA0MzAwMkQwMDM0MDAyNTAwMzIwMDMyMDAyNTAwMzMwMDQ1MDAyNTAwMzAwMDQxMDAyNTAwMzIwMDMwMDAyNTAwMzIwMDMwMDAyNTAwMzIwMDMwMDAyNTAwMzIwMDMwMDAyNTAwMzIwMDMwMDAyNTAwMzIwMDMwMDAyNTAwMzIwMDMwMDAyNTAwMzIwMDMwMDAyNTAwMzIwMDMwMDAyNTAwMzIwMDMwMDAyNTAwMzMwMDQzMDA2RDAwNzgwMDQ3MDA2NTAwNkYwMDZEMDA2NTAwNzQwMDcyMDA3OTAwMjUwMDMyMDAzMDAwNzIwMDY1MDA2QzAwNjEwMDc0MDA2OTAwNzYwMDY1MDAyNTAwMzMwMDQ0MDAyNTAwMzIwMDMyMDAzMTAwMjUwMDMyMDAzMjAwMjUwMDMyMDAzMDAwNjEwMDczMDAyNTAwMzMwMDQ0MDAyNTAwMzIwMDMyMDA2NzAwNjUwMDZGMDA2RDAwNjUwMDc0MDA3MjAwNzkwMDI1MDAzMjAwMzIwMDI1MDAzMjAwMzAwMDI1MDAzMjAwNDYwMDI1MDAzMzAwNDUwMDI1MDAzMDAwNDEwMDI1MDAzMjAwMzAwMDI1MDAzMjAwMzAwMDI1MDAzMjAwMzAwMDI1MDAzMjAwMzAwMDI1MDAzMjAwMzAwMDI1MDAzMjAwMzAwMDI1MDAzMjAwMzAwMDI1MDAzMjAwMzAwMDI1MDAzMzAwNDMwMDI1MDAzMjAwNDYwMDZEMDA3ODAwNDMwMDY1MDA2QzAwNkMwMDI1MDAzMzAwNDUwMDI1MDAzMDAwNDEwMDI1MDAzMjAwMzAwMDI1MDAzMjAwMzAwMDI1MDAzMjAwMzAwMDI1MDAzMjAwMzAwMDI1MDAzMjAwMzAwMDI1MDAzMjAwMzAwMDI1MDAzMjAwMzAwMDI1MDAzMjAwMzAwMDI1MDAzMzAwNDMwMDZEMDA3ODAwNDMwMDY1MDA2QzAwNkMwMDI1MDAzMjAwMzAwMDY5MDA2NDAwMjUwMDMzMDA0NDAwMjUwMDMyMDAzMjAwNUEwMDY5MDA1NjAwNDIwMDU2MDA0RTAwNEEwMDQ1MDA0QTAwMzYwMDY1MDAzNjAwNjcwMDU0MDA0QTAwNzIwMDZBMDA0RDAwNDgwMDQzMDAyRDAwMzIwMDMwMDAyNTAwMzIwMDMyMDAyNTAwMzIwMDMwMDA3MzAwNzQwMDc5MDA2QzAwNjUwMDI1MDAzMzAwNDQwMDI1MDAzMjAwMzIwMDY1MDA2NDAwNjcwMDY1MDA1MzAwNzQwMDc5MDA2QzAwNjUwMDI1MDAzMzAwNDQwMDZGMDA3MjAwNzQwMDY4MDA2RjAwNjcwMDZGMDA2RTAwNjEwMDZDMDA0NTAwNjQwMDY3MDA2NTAwNTMwMDc0MDA3OTAwNkMwMDY1MDAyNTAwMzMwMDQyMDA3MjAwNkYwMDc1MDA2RTAwNjQwMDY1MDA2NDAwMjUwMDMzMDA0NDAwMzAwMDI1MDAzMzAwNDIwMDZGMDA3MjAwNzQwMDY4MDA2RjAwNjcwMDZGMDA2RTAwNjEwMDZDMDA0QzAwNkYwMDZGMDA3MDAwMjUwMDMzMDA0NDAwMzEwMDI1MDAzMzAwNDIwMDZBMDA2NTAwNzQwMDc0MDA3OTAwNTMwMDY5MDA3QTAwNjUwMDI1MDAzMzAwNDQwMDYxMDA3NTAwNzQwMDZGMDAyNTAwMzMwMDQyMDA2ODAwNzQwMDZEMDA2QzAwMjUwMDMzMDA0NDAwMzEwMDI1MDAzMzAwNDIwMDI1MDAzMjAwMzIwMDI1MDAzMjAwMzAwMDY1MDA2NDAwNjcwMDY1MDAyNTAwMzMwMDQ0MDAyNTAwMzIwMDMyMDAzMTAwMjUwMDMyMDAzMjAwMjUwMDMyMDAzMDAwNzAwMDYxMDA3MjAwNjUwMDZFMDA3NDAwMjUwMDMzMDA0NDAwMjUwMDMyMDAzMjAwMzEwMDI1MDAzMjAwMzIwMDI1MDAzMjAwMzAwMDczMDA2RjAwNzUwMDcyMDA2MzAwNjUwMDI1MDAzMzAwNDQwMDI1MDAzMjAwMzIwMDVBMDA2OTAwNTYwMDQyMDA1NjAwNEUwMDRBMDA0NTAwNEEwMDM2MDA2NTAwMzYwMDY3MDA1NDAwNEEwMDcyMDA2QTAwNEQwMDQ4MDA0MzAwMkQwMDM4MDAyNTAwMzIwMDMyMDAyNTAwMzIwMDMwMDA3NDAwNjEwMDcyMDA2NzAwNjUwMDc0MDAyNTAwMzMwMDQ0MDAyNTAwMzIwMDMyMDA1QTAwNjkwMDU2MDA0MjAwNTYwMDRFMDA0QTAwNDUwMDRBMDAzNjAwNjUwMDM2MDA2NzAwNTQwMDRBMDA3MjAwNkEwMDREMDA0ODAwNDMwMDJEMDAzNTAwMjUwMDMyMDAzMjAwMjUwMDMzMDA0NTAwMjUwMDMwMDA0MTAwMjUwMDMyMDAzMDAwMjUwMDMyMDAzMDAwMjUwMDMyMDAzMDAwMjUwMDMyMDAzMDAwMjUwMDMyMDAzMDAwMjUwMDMyMDAzMDAwMjUwMDMyMDAzMDAwMjUwMDMyMDAzMDAwMjUwMDMyMDAzMDAwMjUwMDMyMDAzMDAwMjUwMDMzMDA0MzAwNkQwMDc4MDA0NzAwNjUwMDZGMDA2RDAwNjUwMDc0MDA3MjAwNzkwMDI1MDAzMjAwMzAwMDcyMDA2NTAwNkMwMDYxMDA3NDAwNjkwMDc2MDA2NTAwMjUwMDMzMDA0NDAwMjUwMDMyMDAzMjAwMzEwMDI1MDAzMjAwMzIwMDI1MDAzMjAwMzAwMDYxMDA3MzAwMjUwMDMzMDA0NDAwMjUwMDMyMDAzMjAwNjcwMDY1MDA2RjAwNkQwMDY1MDA3NDAwNzIwMDc5MDAyNTAwMzIwMDMyMDAyNTAwMzIwMDMwMDAyNTAwMzIwMDQ2MDAyNTAwMzMwMDQ1MDAyNTAwMzAwMDQxMDAyNTAwMzIwMDMwMDAyNTAwMzIwMDMwMDAyNTAwMzIwMDMwMDAyNTAwMzIwMDMwMDAyNTAwMzIwMDMwMDAyNTAwMzIwMDMwMDAyNTAwMzIwMDMwMDAyNTAwMzIwMDMwMDAyNTAwMzMwMDQzMDAyNTAwMzIwMDQ2MDA2RDAwNzgwMDQzMDA2NTAwNkMwMDZDMDAyNTAwMzMwMDQ1MDAyNTAwMzAwMDQxMDAyNTAwMzIwMDMwMDAyNTAwMzIwMDMwMDAyNTAwMzIwMDMwMDAyNTAwMzIwMDMwMDAyNTAwMzIwMDMwMDAyNTAwMzIwMDMwMDAyNTAwMzIwMDMwMDAyNTAwMzIwMDMwMDAyNTAwMzMwMDQzMDA2RDAwNzgwMDQzMDA2NTAwNkMwMDZDMDAyNTAwMzIwMDMwMDA2OTAwNjQwMDI1MDAzMzAwNDQwMDI1MDAzMjAwMzIwMDVBMDA2OTAwNTYwMDQyMDA1NjAwNEUwMDRBMDA0NTAwNEEwMDM2MDA2NTAwMzYwMDY3MDA1NDAwNEEwMDcyMDA2QTAwNEQwMDQ4MDA0MzAwMkQwMDMyMDAzMTAwMjUwMDMyMDAzMjAwMjUwMDMyMDAzMDAwNzMwMDc0MDA3OTAwNkMwMDY1MDAyNTAwMzMwMDQ0MDAyNTAwMzIwMDMyMDA2NTAwNjQwMDY3MDA2NTAwNTMwMDc0MDA3OTAwNkMwMDY1MDAyNTAwMzMwMDQ0MDA2RjAwNzIwMDc0MDA2ODAwNkYwMDY3MDA2RjAwNkUwMDYxMDA2QzAwNDUwMDY0MDA2NzAwNjUwMDUzMDA3NDAwNzkwMDZDMDA2NTAwMjUwMDMzMDA0MjAwNzIwMDZGMDA3NTAwNkUwMDY0MDA2NTAwNjQwMDI1MDAzMzAwNDQwMDMwMDAyNTAwMzMwMDQyMDA2RjAwNzIwMDc0MDA2ODAwNkYwMDY3MDA2RjAwNkUwMDYxMDA2QzAwNEMwMDZGMDA2RjAwNzAwMDI1MDAzMzAwNDQwMDMxMDAyNTAwMzMwMDQyMDA2QTAwNjUwMDc0MDA3NDAwNzkwMDUzMDA2OTAwN0EwMDY1MDAyNTAwMzMwMDQ0MDA2MTAwNzUwMDc0MDA2RjAwMjUwMDMzMDA0MjAwNjgwMDc0MDA2RDAwNkMwMDI1MDAzMzAwNDQwMDMxMDAyNTAwMzMwMDQyMDA2NTAwNkUwMDc0MDA3MjAwNzkwMDU4MDAyNTAwMzMwMDQ0MDAzMDAwMjUwMDMzMDA0MjAwNjUwMDZFMDA3NDAwNzIwMDc5MDA1OTAwMjUwMDMzMDA0NDAwMzAwMDJFMDAzNTAwMjUwMDMzMDA0MjAwNjUwMDZFMDA3NDAwNzIwMDc5MDA0NDAwNzgwMDI1MDAzMzAwNDQwMDMwMDAyNTAwMzMwMDQyMDA2NTAwNkUwMDc0MDA3MjAwNzkwMDQ0MDA3OTAwMjUwMDMzMDA0NDAwMzAwMDI1MDAzMzAwNDIwMDI1MDAzMjAwMzIwMDI1MDAzMjAwMzAwMDY1MDA2NDAwNjcwMDY1MDAyNTAwMzMwMDQ0MDAyNTAwMzIwMDMyMDAzMTAwMjUwMDMyMDAzMjAwMjUwMDMyMDAzMDAwNzAwMDYxMDA3MjAwNjUwMDZFMDA3NDAwMjUwMDMzMDA0NDAwMjUwMDMyMDAzMjAwMzEwMDI1MDAzMjAwMzIwMDI1MDAzMjAwMzAwMDczMDA2RjAwNzUwMDcyMDA2MzAwNjUwMDI1MDAzMzAwNDQwMDI1MDAzMjAwMzIwMDVBMDA2OTAwNTYwMDQyMDA1NjAwNEUwMDRBMDA0NTAwNEEwMDM2MDA2NTAwMzYwMDY3MDA1NDAwNEEwMDcyMDA2QTAwNEQwMDQ4MDA0MzAwMkQwMDM4MDAyNTAwMzIwMDMyMDAyNTAwMzIwMDMwMDA3NDAwNjEwMDcyMDA2NzAwNjUwMDc0MDAyNTAwMzMwMDQ0MDAyNTAwMzIwMDMyMDA1QTAwNjkwMDU2MDA0MjAwNTYwMDRFMDA0QTAwNDUwMDRBMDAzNjAwNjUwMDM2MDA2NzAwNTQwMDRBMDA3MjAwNkEwMDREMDA0ODAwNDMwMDJEMDAzNjAwMjUwMDMyMDAzMjAwMjUwMDMzMDA0NTAwMjUwMDMwMDA0MTAwMjUwMDMyMDAzMDAwMjUwMDMyMDAzMDAwMjUwMDMyMDAzMDAwMjUwMDMyMDAzMDAwMjUwMDMyMDAzMDAwMjUwMDMyMDAzMDAwMjUwMDMyMDAzMDAwMjUwMDMyMDAzMDAwMjUwMDMyMDAzMDAwMjUwMDMyMDAzMDAwMjUwMDMzMDA0MzAwNkQwMDc4MDA0NzAwNjUwMDZGMDA2RDAwNjUwMDc0MDA3MjAwNzkwMDI1MDAzMjAwMzAwMDcyMDA2NTAwNkMwMDYxMDA3NDAwNjkwMDc2MDA2NTAwMjUwMDMzMDA0NDAwMjUwMDMyMDAzMjAwMzEwMDI1MDAzMjAwMzIwMDI1MDAzMjAwMzAwMDYxMDA3MzAwMjUwMDMzMDA0NDAwMjUwMDMyMDAzMjAwNjcwMDY1MDA2RjAwNkQwMDY1MDA3NDAwNzIwMDc5MDAyNTAwMzIwMDMyMDAyNTAwMzIwMDMwMDAyNTAwMzIwMDQ2MDAyNTAwMzMwMDQ1MDAyNTAwMzAwMDQxMDAyNTAwMzIwMDMwMDAyNTAwMzIwMDMwMDAyNTAwMzIwMDMwMDAyNTAwMzIwMDMwMDAyNTAwMzIwMDMwMDAyNTAwMzIwMDMwMDAyNTAwMzIwMDMwMDAyNTAwMzIwMDMwMDAyNTAwMzMwMDQzMDAyNTAwMzIwMDQ2MDA2RDAwNzgwMDQzMDA2NTAwNkMwMDZDMDAyNTAwMzMwMDQ1MDAyNTAwMzAwMDQxMDAyNTAwMzIwMDMwMDAyNTAwMzIwMDMwMDAyNTAwMzIwMDMwMDAyNTAwMzIwMDMwMDAyNTAwMzIwMDMwMDAyNTAwMzIwMDMwMDAyNTAwMzIwMDMwMDAyNTAwMzIwMDMwMDAyNTAwMzMwMDQzMDA2RDAwNzgwMDQzMDA2NTAwNkMwMDZDMDAyNTAwMzIwMDMwMDA2OTAwNjQwMDI1MDAzMzAwNDQwMDI1MDAzMjAwMzIwMDVBMDA2OTAwNTYwMDQyMDA1NjAwNEUwMDRBMDA0NTAwNEEwMDM2MDA2NTAwMzYwMDY3MDA1NDAwNEEwMDcyMDA2QTAwNEQwMDQ4MDA0MzAwMkQwMDMyMDAzMjAwMjUwMDMyMDAzMjAwMjUwMDMyMDAzMDAwNzMwMDc0MDA3OTAwNkMwMDY1MDAyNTAwMzMwMDQ0MDAyNTAwMzIwMDMyMDA2NTAwNjQwMDY3MDA2NTAwNTMwMDc0MDA3OTAwNkMwMDY1MDAyNTAwMzMwMDQ0MDA2RjAwNzIwMDc0MDA2ODAwNkYwMDY3MDA2RjAwNkUwMDYxMDA2QzAwNDUwMDY0MDA2NzAwNjUwMDUzMDA3NDAwNzkwMDZDMDA2NTAwMjUwMDMzMDA0MjAwNzIwMDZGMDA3NTAwNkUwMDY0MDA2NTAwNjQwMDI1MDAzMzAwNDQwMDMwMDAyNTAwMzMwMDQyMDA2RjAwNzIwMDc0MDA2ODAwNkYwMDY3MDA2RjAwNkUwMDYxMDA2QzAwNEMwMDZGMDA2RjAwNzAwMDI1MDAzMzAwNDQwMDMxMDAyNTAwMzMwMDQyMDA2QTAwNjUwMDc0MDA3NDAwNzkwMDUzMDA2OTAwN0EwMDY1MDAyNTAwMzMwMDQ0MDA2MTAwNzUwMDc0MDA2RjAwMjUwMDMzMDA0MjAwNjgwMDc0MDA2RDAwNkMwMDI1MDAzMzAwNDQwMDMxMDAyNTAwMzMwMDQyMDA2NTAwNkUwMDc0MDA3MjAwNzkwMDU4MDAyNTAwMzMwMDQ0MDAzMDAwMjUwMDMzMDA0MjAwNjUwMDZFMDA3NDAwNzIwMDc5MDA1OTAwMjUwMDMzMDA0NDAwMzAwMDJFMDAzNTAwMjUwMDMzMDA0MjAwNjUwMDZFMDA3NDAwNzIwMDc5MDA0NDAwNzgwMDI1MDAzMzAwNDQwMDMwMDAyNTAwMzMwMDQyMDA2NTAwNkUwMDc0MDA3MjAwNzkwMDQ0MDA3OTAwMjUwMDMzMDA0NDAwMzAwMDI1MDAzMzAwNDIwMDI1MDAzMjAwMzIwMDI1MDAzMjAwMzAwMDY1MDA2NDAwNjcwMDY1MDAyNTAwMzMwMDQ0MDAyNTAwMzIwMDMyMDAzMTAwMjUwMDMyMDAzMjAwMjUwMDMyMDAzMDAwNzAwMDYxMDA3MjAwNjUwMDZFMDA3NDAwMjUwMDMzMDA0NDAwMjUwMDMyMDAzMjAwMzEwMDI1MDAzMjAwMzIwMDI1MDAzMjAwMzAwMDczMDA2RjAwNzUwMDcyMDA2MzAwNjUwMDI1MDAzMzAwNDQwMDI1MDAzMjAwMzIwMDVBMDA2OTAwNTYwMDQyMDA1NjAwNEUwMDRBMDA0NTAwNEEwMDM2MDA2NTAwMzYwMDY3MDA1NDAwNEEwMDcyMDA2QTAwNEQwMDQ4MDA0MzAwMkQwMDM4MDAyNTAwMzIwMDMyMDAyNTAwMzIwMDMwMDA3NDAwNjEwMDcyMDA2NzAwNjUwMDc0MDAyNTAwMzMwMDQ0MDAyNTAwMzIwMDMyMDA1QTAwNjkwMDU2MDA0MjAwNTYwMDRFMDA0QTAwNDUwMDRBMDAzNjAwNjUwMDM2MDA2NzAwNTQwMDRBMDA3MjAwNkEwMDREMDA0ODAwNDMwMDJEMDAzNzAwMjUwMDMyMDAzMjAwMjUwMDMzMDA0NTAwMjUwMDMwMDA0MTAwMjUwMDMyMDAzMDAwMjUwMDMyMDAzMDAwMjUwMDMyMDAzMDAwMjUwMDMyMDAzMDAwMjUwMDMyMDAzMDAwMjUwMDMyMDAzMDAwMjUwMDMyMDAzMDAwMjUwMDMyMDAzMDAwMjUwMDMyMDAzMDAwMjUwMDMyMDAzMDAwMjUwMDMzMDA0MzAwNkQwMDc4MDA0NzAwNjUwMDZGMDA2RDAwNjUwMDc0MDA3MjAwNzkwMDI1MDAzMjAwMzAwMDcyMDA2NTAwNkMwMDYxMDA3NDAwNjkwMDc2MDA2NTAwMjUwMDMzMDA0NDAwMjUwMDMyMDAzMjAwMzEwMDI1MDAzMjAwMzIwMDI1MDAzMjAwMzAwMDYxMDA3MzAwMjUwMDMzMDA0NDAwMjUwMDMyMDAzMjAwNjcwMDY1MDA2RjAwNkQwMDY1MDA3NDAwNzIwMDc5MDAyNTAwMzIwMDMyMDAyNTAwMzIwMDMwMDAyNTAwMzIwMDQ2MDAyNTAwMzMwMDQ1MDAyNTAwMzAwMDQxMDAyNTAwMzIwMDMwMDAyNTAwMzIwMDMwMDAyNTAwMzIwMDMwMDAyNTAwMzIwMDMwMDAyNTAwMzIwMDMwMDAyNTAwMzIwMDMwMDAyNTAwMzIwMDMwMDAyNTAwMzIwMDMwMDAyNTAwMzMwMDQzMDAyNTAwMzIwMDQ2MDA2RDAwNzgwMDQzMDA2NTAwNkMwMDZDMDAyNTAwMzMwMDQ1MDAyNTAwMzAwMDQxMDAyNTAwMzIwMDMwMDAyNTAwMzIwMDMwMDAyNTAwMzIwMDMwMDAyNTAwMzIwMDMwMDAyNTAwMzIwMDMwMDAyNTAwMzIwMDMwMDAyNTAwMzIwMDMwMDAyNTAwMzIwMDMwMDAyNTAwMzMwMDQzMDA2RDAwNzgwMDQzMDA2NTAwNkMwMDZDMDAyNTAwMzIwMDMwMDA2OTAwNjQwMDI1MDAzMzAwNDQwMDI1MDAzMjAwMzIwMDVBMDA2OTAwNTYwMDQyMDA1NjAwNEUwMDRBMDA0NTAwNEEwMDM2MDA2NTAwMzYwMDY3MDA1NDAwNEEwMDcyMDA2QTAwNEQwMDQ4MDA0MzAwMkQwMDM4MDAyNTAwMzIwMDMyMDAyNTAwMzIwMDMwMDA3NjAwNjEwMDZDMDA3NTAwNjUwMDI1MDAzMzAwNDQwMDI1MDAzMjAwMzIwMDU1MDA3MzAwNjUwMDcyMDAyNTAwMzIwMDMyMDAyNTAwMzIwMDMwMDA3MzAwNzQwMDc5MDA2QzAwNjUwMDI1MDAzMzAwNDQwMDI1MDAzMjAwMzIwMDczMDA2ODAwNjEwMDcwMDA2NTAwMjUwMDMzMDA0NDAwNzUwMDZEMDA2QzAwNDEwMDYzMDA3NDAwNkYwMDcyMDAyNTAwMzMwMDQyMDA3NjAwNjUwMDcyMDA3NDAwNjkwMDYzMDA2MTAwNkMwMDRDMDA2MTAwNjIwMDY1MDA2QzAwNTAwMDZGMDA3MzAwNjkwMDc0MDA2OTAwNkYwMDZFMDAyNTAwMzMwMDQ0MDA2MjAwNkYwMDc0MDA3NDAwNkYwMDZEMDAyNTAwMzMwMDQyMDA3NjAwNjUwMDcyMDA3NDAwNjkwMDYzMDA2MTAwNkMwMDQxMDA2QzAwNjkwMDY3MDA2RTAwMjUwMDMzMDA0NDAwNzQwMDZGMDA3MDAwMjUwMDMzMDA0MjAwNjgwMDc0MDA2RDAwNkMwMDI1MDAzMzAwNDQwMDMxMDAyNTAwMzMwMDQyMDA2RjAwNzUwMDc0MDA2QzAwNjkwMDZFMDA2NTAwNDMwMDZGMDA2RTAwNkUwMDY1MDA2MzAwNzQwMDI1MDAzMzAwNDQwMDMwMDAyNTAwMzMwMDQyMDAyNTAwMzIwMDMyMDAyNTAwMzIwMDMwMDA3NjAwNjUwMDcyMDA3NDAwNjUwMDc4MDAyNTAwMzMwMDQ0MDAyNTAwMzIwMDMyMDAzMTAwMjUwMDMyMDAzMjAwMjUwMDMyMDAzMDAwNzAwMDYxMDA3MjAwNjUwMDZFMDA3NDAwMjUwMDMzMDA0NDAwMjUwMDMyMDAzMjAwMzEwMDI1MDAzMjAwMzIwMDI1MDAzMzAwNDUwMDI1MDAzMDAwNDEwMDI1MDAzMjAwMzAwMDI1MDAzMjAwMzAwMDI1MDAzMjAwMzAwMDI1MDAzMjAwMzAwMDI1MDAzMjAwMzAwMDI1MDAzMjAwMzAwMDI1MDAzMjAwMzAwMDI1MDAzMjAwMzAwMDI1MDAzMjAwMzAwMDI1MDAzMjAwMzAwMDI1MDAzMzAwNDMwMDZEMDA3ODAwNDcwMDY1MDA2RjAwNkQwMDY1MDA3NDAwNzIwMDc5MDAyNTAwMzIwMDMwMDA3ODAwMjUwMDMzMDA0NDAwMjUwMDMyMDAzMjAwMzEwMDMzMDAzMDAwMjUwMDMyMDAzMjAwMjUwMDMyMDAzMDAwNzkwMDI1MDAzMzAwNDQwMDI1MDAzMjAwMzIwMDMyMDAzNDAwMzAwMDI1MDAzMjAwMzIwMDI1MDAzMjAwMzAwMDc3MDA2OTAwNjQwMDc0MDA2ODAwMjUwMDMzMDA0NDAwMjUwMDMyMDAzMjAwMzUwMDMwMDAyNTAwMzIwMDMyMDAyNTAwMzIwMDMwMDA2ODAwNjUwMDY5MDA2NzAwNjgwMDc0MDAyNTAwMzMwMDQ0MDAyNTAwMzIwMDMyMDAzOTAwMzAwMDI1MDAzMjAwMzIwMDI1MDAzMjAwMzAwMDYxMDA3MzAwMjUwMDMzMDA0NDAwMjUwMDMyMDAzMjAwNjcwMDY1MDA2RjAwNkQwMDY1MDA3NDAwNzIwMDc5MDAyNTAwMzIwMDMyMDAyNTAwMzIwMDMwMDAyNTAwMzIwMDQ2MDAyNTAwMzMwMDQ1MDAyNTAwMzAwMDQxMDAyNTAwMzIwMDMwMDAyNTAwMzIwMDMwMDAyNTAwMzIwMDMwMDAyNTAwMzIwMDMwMDAyNTAwMzIwMDMwMDAyNTAwMzIwMDMwMDAyNTAwMzIwMDMwMDAyNTAwMzIwMDMwMDAyNTAwMzMwMDQzMDAyNTAwMzIwMDQ2MDA2RDAwNzgwMDQzMDA2NTAwNkMwMDZDMDAyNTAwMzMwMDQ1MDAyNTAwMzAwMDQxMDAyNTAwMzIwMDMwMDAyNTAwMzIwMDMwMDAyNTAwMzIwMDMwMDAyNTAwMzIwMDMwMDAyNTAwMzIwMDMwMDAyNTAwMzIwMDMwMDAyNTAwMzIwMDMwMDAyNTAwMzIwMDMwMDAyNTAwMzMwMDQzMDA2RDAwNzgwMDQzMDA2NTAwNkMwMDZDMDAyNTAwMzIwMDMwMDA2OTAwNjQwMDI1MDAzMzAwNDQwMDI1MDAzMjAwMzIwMDVBMDA2OTAwNTYwMDQyMDA1NjAwNEUwMDRBMDA0NTAwNEEwMDM2MDA2NTAwMzYwMDY3MDA1NDAwNEEwMDcyMDA2QTAwNEQwMDQ4MDA0MzAwMkQwMDMyMDAzMzAwMjUwMDMyMDAzMjAwMjUwMDMyMDAzMDAwNzMwMDc0MDA3OTAwNkMwMDY1MDAyNTAwMzMwMDQ0MDAyNTAwMzIwMDMyMDA2NTAwNjQwMDY3MDA2NTAwNTMwMDc0MDA3OTAwNkMwMDY1MDAyNTAwMzMwMDQ0MDA2RjAwNzIwMDc0MDA2ODAwNkYwMDY3MDA2RjAwNkUwMDYxMDA2QzAwNDUwMDY0MDA2NzAwNjUwMDUzMDA3NDAwNzkwMDZDMDA2NTAwMjUwMDMzMDA0MjAwNzIwMDZGMDA3NTAwNkUwMDY0MDA2NTAwNjQwMDI1MDAzMzAwNDQwMDMwMDAyNTAwMzMwMDQyMDA2RjAwNzIwMDc0MDA2ODAwNkYwMDY3MDA2RjAwNkUwMDYxMDA2QzAwNEMwMDZGMDA2RjAwNzAwMDI1MDAzMzAwNDQwMDMxMDAyNTAwMzMwMDQyMDA2QTAwNjUwMDc0MDA3NDAwNzkwMDUzMDA2OTAwN0EwMDY1MDAyNTAwMzMwMDQ0MDA2MTAwNzUwMDc0MDA2RjAwMjUwMDMzMDA0MjAwNjgwMDc0MDA2RDAwNkMwMDI1MDAzMzAwNDQwMDMxMDAyNTAwMzMwMDQyMDA2NTAwNkUwMDc0MDA3MjAwNzkwMDU4MDAyNTAwMzMwMDQ0MDAzMTAwMjUwMDMzMDA0MjAwNjUwMDZFMDA3NDAwNzIwMDc5MDA1OTAwMjUwMDMzMDA0NDAwMzAwMDJFMDAzNTAwMjUwMDMzMDA0MjAwNjUwMDZFMDA3NDAwNzIwMDc5MDA0NDAwNzgwMDI1MDAzMzAwNDQwMDMwMDAyNTAwMzMwMDQyMDA2NTAwNkUwMDc0MDA3MjAwNzkwMDQ0MDA3OTAwMjUwMDMzMDA0NDAwMzAwMDI1MDAzMzAwNDIwMDI1MDAzMjAwMzIwMDI1MDAzMjAwMzAwMDY1MDA2NDAwNjcwMDY1MDAyNTAwMzMwMDQ0MDAyNTAwMzIwMDMyMDAzMTAwMjUwMDMyMDAzMjAwMjUwMDMyMDAzMDAwNzAwMDYxMDA3MjAwNjUwMDZFMDA3NDAwMjUwMDMzMDA0NDAwMjUwMDMyMDAzMjAwMzEwMDI1MDAzMjAwMzIwMDI1MDAzMjAwMzAwMDczMDA2RjAwNzUwMDcyMDA2MzAwNjUwMDI1MDAzMzAwNDQwMDI1MDAzMjAwMzIwMDVBMDA2OTAwNTYwMDQyMDA1NjAwNEUwMDRBMDA0NTAwNEEwMDM2MDA2NTAwMzYwMDY3MDA1NDAwNEEwMDcyMDA2QTAwNEQwMDQ4MDA0MzAwMkQwMDMxMDAzMzAwMjUwMDMyMDAzMjAwMjUwMDMyMDAzMDAwNzQwMDYxMDA3MjAwNjcwMDY1MDA3NDAwMjUwMDMzMDA0NDAwMjUwMDMyMDAzMjAwNUEwMDY5MDA1NjAwNDIwMDU2MDA0RTAwNEEwMDQ1MDA0QTAwMzYwMDY1MDAzNjAwNjcwMDU0MDA0QTAwNzIwMDZBMDA0RDAwNDgwMDQzMDAyRDAwMzIwMDI1MDAzMjAwMzIwMDI1MDAzMzAwNDUwMDI1MDAzMDAwNDEwMDI1MDAzMjAwMzAwMDI1MDAzMjAwMzAwMDI1MDAzMjAwMzAwMDI1MDAzMjAwMzAwMDI1MDAzMjAwMzAwMDI1MDAzMjAwMzAwMDI1MDAzMjAwMzAwMDI1MDAzMjAwMzAwMDI1MDAzMjAwMzAwMDI1MDAzMjAwMzAwMDI1MDAzMzAwNDMwMDZEMDA3ODAwNDcwMDY1MDA2RjAwNkQwMDY1MDA3NDAwNzIwMDc5MDAyNTAwMzIwMDMwMDA3MjAwNjUwMDZDMDA2MTAwNzQwMDY5MDA3NjAwNjUwMDI1MDAzMzAwNDQwMDI1MDAzMjAwMzIwMDMxMDAyNTAwMzIwMDMyMDAyNTAwMzIwMDMwMDA2MTAwNzMwMDI1MDAzMzAwNDQwMDI1MDAzMjAwMzIwMDY3MDA2NTAwNkYwMDZEMDA2NTAwNzQwMDcyMDA3OTAwMjUwMDMyMDAzMjAwMjUwMDMzMDA0NTAwMjUwMDMwMDA0MTAwMjUwMDMyMDAzMDAwMjUwMDMyMDAzMDAwMjUwMDMyMDAzMDAwMjUwMDMyMDAzMDAwMjUwMDMyMDAzMDAwMjUwMDMyMDAzMDAwMjUwMDMyMDAzMDAwMjUwMDMyMDAzMDAwMjUwMDMyMDAzMDAwMjUwMDMyMDAzMDAwMjUwMDMyMDAzMDAwMjUwMDMyMDAzMDAwMjUwMDMzMDA0MzAwNDEwMDcyMDA3MjAwNjEwMDc5MDAyNTAwMzIwMDMwMDA2MTAwNzMwMDI1MDAzMzAwNDQwMDI1MDAzMjAwMzIwMDcwMDA2RjAwNjkwMDZFMDA3NDAwNzMwMDI1MDAzMjAwMzIwMDI1MDAzMzAwNDUwMDI1MDAzMDAwNDEwMDI1MDAzMjAwMzAwMDI1MDAzMjAwMzAwMDI1MDAzMjAwMzAwMDI1MDAzMjAwMzAwMDI1MDAzMjAwMzAwMDI1MDAzMjAwMzAwMDI1MDAzMjAwMzAwMDI1MDAzMjAwMzAwMDI1MDAzMjAwMzAwMDI1MDAzMjAwMzAwMDI1MDAzMjAwMzAwMDI1MDAzMjAwMzAwMDI1MDAzMjAwMzAwMDI1MDAzMjAwMzAwMDI1MDAzMzAwNDMwMDZEMDA3ODAwNTAwMDZGMDA2OTAwNkUwMDc0MDAyNTAwMzIwMDMwMDA3ODAwMjUwMDMzMDA0NDAwMjUwMDMyMDAzMjAwMzUwMDM4MDAzMzAwMjUwMDMyMDAzMjAwMjUwMDMyMDAzMDAwNzkwMDI1MDAzMzAwNDQwMDI1MDAzMjAwMzIwMDMyMDAzODAwMzUwMDI1MDAzMjAwMzIwMDI1MDAzMjAwMzAwMDI1MDAzMjAwNDYwMDI1MDAzMzAwNDUwMDI1MDAzMDAwNDEwMDI1MDAzMjAwMzAwMDI1MDAzMjAwMzAwMDI1MDAzMjAwMzAwMDI1MDAzMjAwMzAwMDI1MDAzMjAwMzAwMDI1MDAzMjAwMzAwMDI1MDAzMjAwMzAwMDI1MDAzMjAwMzAwMDI1MDAzMjAwMzAwMDI1MDAzMjAwMzAwMDI1MDAzMjAwMzAwMDI1MDAzMjAwMzAwMDI1MDAzMjAwMzAwMDI1MDAzMjAwMzAwMDI1MDAzMzAwNDMwMDZEMDA3ODAwNTAwMDZGMDA2OTAwNkUwMDc0MDAyNTAwMzIwMDMwMDA3ODAwMjUwMDMzMDA0NDAwMjUwMDMyMDAzMjAwMzUwMDM4MDAzMzAwMjUwMDMyMDAzMjAwMjUwMDMyMDAzMDAwNzkwMDI1MDAzMzAwNDQwMDI1MDAzMjAwMzIwMDMxMDAzNDAwMzUwMDI1MDAzMjAwMzIwMDI1MDAzMjAwMzAwMDI1MDAzMjAwNDYwMDI1MDAzMzAwNDUwMDI1MDAzMDAwNDEwMDI1MDAzMjAwMzAwMDI1MDAzMjAwMzAwMDI1MDAzMjAwMzAwMDI1MDAzMjAwMzAwMDI1MDAzMjAwMzAwMDI1MDAzMjAwMzAwMDI1MDAzMjAwMzAwMDI1MDAzMjAwMzAwMDI1MDAzMjAwMzAwMDI1MDAzMjAwMzAwMDI1MDAzMjAwMzAwMDI1MDAzMjAwMzAwMDI1MDAzMzAwNDMwMDI1MDAzMjAwNDYwMDQxMDA3MjAwNzIwMDYxMDA3OTAwMjUwMDMzMDA0NTAwMjUwMDMwMDA0MTAwMjUwMDMyMDAzMDAwMjUwMDMyMDAzMDAwMjUwMDMyMDAzMDAwMjUwMDMyMDAzMDAwMjUwMDMyMDAzMDAwMjUwMDMyMDAzMDAwMjUwMDMyMDAzMDAwMjUwMDMyMDAzMDAwMjUwMDMyMDAzMDAwMjUwMDMyMDAzMDAwMjUwMDMzMDA0MzAwMjUwMDMyMDA0NjAwNkQwMDc4MDA0NzAwNjUwMDZGMDA2RDAwNjUwMDc0MDA3MjAwNzkwMDI1MDAzMzAwNDUwMDI1MDAzMDAwNDEwMDI1MDAzMjAwMzAwMDI1MDAzMjAwMzAwMDI1MDAzMjAwMzAwMDI1MDAzMjAwMzAwMDI1MDAzMjAwMzAwMDI1MDAzMjAwMzAwMDI1MDAzMjAwMzAwMDI1MDAzMjAwMzAwMDI1MDAzMzAwNDMwMDI1MDAzMjAwNDYwMDZEMDA3ODAwNDMwMDY1MDA2QzAwNkMwMDI1MDAzMzAwNDUwMDI1MDAzMDAwNDEwMDI1MDAzMjAwMzAwMDI1MDAzMjAwMzAwMDI1MDAzMjAwMzAwMDI1MDAzMjAwMzAwMDI1MDAzMjAwMzAwMDI1MDAzMjAwMzAwMDI1MDAzMjAwMzAwMDI1MDAzMjAwMzAwMDI1MDAzMzAwNDMwMDZEMDA3ODAwNDMwMDY1MDA2QzAwNkMwMDI1MDAzMjAwMzAwMDY5MDA2NDAwMjUwMDMzMDA0NDAwMjUwMDMyMDAzMjAwNUEwMDY5MDA1NjAwNDIwMDU2MDA0RTAwNEEwMDQ1MDA0QTAwMzYwMDY1MDAzNjAwNjcwMDU0MDA0QTAwNzIwMDZBMDA0RDAwNDgwMDQzMDAyRDAwMzIwMDM0MDAyNTAwMzIwMDMyMDAyNTAwMzIwMDMwMDA3MzAwNzQwMDc5MDA2QzAwNjUwMDI1MDAzMzAwNDQwMDI1MDAzMjAwMzIwMDY1MDA2NDAwNjcwMDY1MDA1MzAwNzQwMDc5MDA2QzAwNjUwMDI1MDAzMzAwNDQwMDZGMDA3MjAwNzQwMDY4MDA2RjAwNjcwMDZGMDA2RTAwNjEwMDZDMDA0NTAwNjQwMDY3MDA2NTAwNTMwMDc0MDA3OTAwNkMwMDY1MDAyNTAwMzMwMDQyMDA3MjAwNkYwMDc1MDA2RTAwNjQwMDY1MDA2NDAwMjUwMDMzMDA0NDAwMzAwMDI1MDAzMzAwNDIwMDZGMDA3MjAwNzQwMDY4MDA2RjAwNjcwMDZGMDA2RTAwNjEwMDZDMDA0QzAwNkYwMDZGMDA3MDAwMjUwMDMzMDA0NDAwMzEwMDI1MDAzMzAwNDIwMDZBMDA2NTAwNzQwMDc0MDA3OTAwNTMwMDY5MDA3QTAwNjUwMDI1MDAzMzAwNDQwMDYxMDA3NTAwNzQwMDZGMDAyNTAwMzMwMDQyMDA2ODAwNzQwMDZEMDA2QzAwMjUwMDMzMDA0NDAwMzEwMDI1MDAzMzAwNDIwMDI1MDAzMjAwMzIwMDI1MDAzMjAwMzAwMDY1MDA2NDAwNjcwMDY1MDAyNTAwMzMwMDQ0MDAyNTAwMzIwMDMyMDAzMTAwMjUwMDMyMDAzMjAwMjUwMDMyMDAzMDAwNzAwMDYxMDA3MjAwNjUwMDZFMDA3NDAwMjUwMDMzMDA0NDAwMjUwMDMyMDAzMjAwMzEwMDI1MDAzMjAwMzIwMDI1MDAzMjAwMzAwMDczMDA2RjAwNzUwMDcyMDA2MzAwNjUwMDI1MDAzMzAwNDQwMDI1MDAzMjAwMzIwMDVBMDA2OTAwNTYwMDQyMDA1NjAwNEUwMDRBMDA0NTAwNEEwMDM2MDA2NTAwMzYwMDY3MDA1NDAwNEEwMDcyMDA2QTAwNEQwMDQ4MDA0MzAwMkQwMDMxMDAzMzAwMjUwMDMyMDAzMjAwMjUwMDMyMDAzMDAwNzQwMDYxMDA3MjAwNjcwMDY1MDA3NDAwMjUwMDMzMDA0NDAwMjUwMDMyMDAzMjAwNUEwMDY5MDA1NjAwNDIwMDU2MDA0RTAwNEEwMDQ1MDA0QTAwMzYwMDY1MDAzNjAwNjcwMDU0MDA0QTAwNzIwMDZBMDA0RDAwNDgwMDQzMDAyRDAwMzMwMDI1MDAzMjAwMzIwMDI1MDAzMzAwNDUwMDI1MDAzMDAwNDEwMDI1MDAzMjAwMzAwMDI1MDAzMjAwMzAwMDI1MDAzMjAwMzAwMDI1MDAzMjAwMzAwMDI1MDAzMjAwMzAwMDI1MDAzMjAwMzAwMDI1MDAzMjAwMzAwMDI1MDAzMjAwMzAwMDI1MDAzMjAwMzAwMDI1MDAzMjAwMzAwMDI1MDAzMzAwNDMwMDZEMDA3ODAwNDcwMDY1MDA2RjAwNkQwMDY1MDA3NDAwNzIwMDc5MDAyNTAwMzIwMDMwMDA3MjAwNjUwMDZDMDA2MTAwNzQwMDY5MDA3NjAwNjUwMDI1MDAzMzAwNDQwMDI1MDAzMjAwMzIwMDMxMDAyNTAwMzIwMDMyMDAyNTAwMzIwMDMwMDA2MTAwNzMwMDI1MDAzMzAwNDQwMDI1MDAzMjAwMzIwMDY3MDA2NTAwNkYwMDZEMDA2NTAwNzQwMDcyMDA3OTAwMjUwMDMyMDAzMjAwMjUwMDMyMDAzMDAwMjUwMDMyMDA0NjAwMjUwMDMzMDA0NTAwMjUwMDMwMDA0MTAwMjUwMDMyMDAzMDAwMjUwMDMyMDAzMDAwMjUwMDMyMDAzMDAwMjUwMDMyMDAzMDAwMjUwMDMyMDAzMDAwMjUwMDMyMDAzMDAwMjUwMDMyMDAzMDAwMjUwMDMyMDAzMDAwMjUwMDMzMDA0MzAwMjUwMDMyMDA0NjAwNkQwMDc4MDA0MzAwNjUwMDZDMDA2QzAwMjUwMDMzMDA0NTAwMjUwMDMwMDA0MTAwMjUwMDMyMDAzMDAwMjUwMDMyMDAzMDAwMjUwMDMyMDAzMDAwMjUwMDMyMDAzMDAwMjUwMDMyMDAzMDAwMjUwMDMyMDAzMDAwMjUwMDMyMDAzMDAwMjUwMDMyMDAzMDAwMjUwMDMzMDA0MzAwNkQwMDc4MDA0MzAwNjUwMDZDMDA2QzAwMjUwMDMyMDAzMDAwNjkwMDY0MDAyNTAwMzMwMDQ0MDAyNTAwMzIwMDMyMDA1QTAwNjkwMDU2MDA0MjAwNTYwMDRFMDA0QTAwNDUwMDRBMDAzNjAwNjUwMDM2MDA2NzAwNTQwMDRBMDA3MjAwNkEwMDREMDA0ODAwNDMwMDJEMDAzMjAwMzUwMDI1MDAzMjAwMzIwMDI1MDAzMjAwMzAwMDczMDA3NDAwNzkwMDZDMDA2NTAwMjUwMDMzMDA0NDAwMjUwMDMyMDAzMjAwNjUwMDY0MDA2NzAwNjUwMDUzMDA3NDAwNzkwMDZDMDA2NTAwMjUwMDMzMDA0NDAwNkYwMDcyMDA3NDAwNjgwMDZGMDA2NzAwNkYwMDZFMDA2MTAwNkMwMDQ1MDA2NDAwNjcwMDY1MDA1MzAwNzQwMDc5MDA2QzAwNjUwMDI1MDAzMzAwNDIwMDcyMDA2RjAwNzUwMDZFMDA2NDAwNjUwMDY0MDAyNTAwMzMwMDQ0MDAzMDAwMjUwMDMzMDA0MjAwNkYwMDcyMDA3NDAwNjgwMDZGMDA2NzAwNkYwMDZFMDA2MTAwNkMwMDRDMDA2RjAwNkYwMDcwMDAyNTAwMzMwMDQ0MDAzMTAwMjUwMDMzMDA0MjAwNkEwMDY1MDA3NDAwNzQwMDc5MDA1MzAwNjkwMDdBMDA2NTAwMjUwMDMzMDA0NDAwNjEwMDc1MDA3NDAwNkYwMDI1MDAzMzAwNDIwMDY4MDA3NDAwNkQwMDZDMDAyNTAwMzMwMDQ0MDAzMTAwMjUwMDMzMDA0MjAwNjUwMDZFMDA3NDAwNzIwMDc5MDA1ODAwMjUwMDMzMDA0NDAwMzEwMDI1MDAzMzAwNDIwMDY1MDA2RTAwNzQwMDcyMDA3OTAwNTkwMDI1MDAzMzAwNDQwMDMwMDAyRTAwMzUwMDI1MDAzMzAwNDIwMDY1MDA2RTAwNzQwMDcyMDA3OTAwNDQwMDc4MDAyNTAwMzMwMDQ0MDAzMDAwMjUwMDMzMDA0MjAwNjUwMDZFMDA3NDAwNzIwMDc5MDA0NDAwNzkwMDI1MDAzMzAwNDQwMDMwMDAyNTAwMzMwMDQyMDAyNTAwMzIwMDMyMDAyNTAwMzIwMDMwMDA2NTAwNjQwMDY3MDA2NTAwMjUwMDMzMDA0NDAwMjUwMDMyMDAzMjAwMzEwMDI1MDAzMjAwMzIwMDI1MDAzMjAwMzAwMDcwMDA2MTAwNzIwMDY1MDA2RTAwNzQwMDI1MDAzMzAwNDQwMDI1MDAzMjAwMzIwMDMxMDAyNTAwMzIwMDMyMDAyNTAwMzIwMDMwMDA3MzAwNkYwMDc1MDA3MjAwNjMwMDY1MDAyNTAwMzMwMDQ0MDAyNTAwMzIwMDMyMDA1QTAwNjkwMDU2MDA0MjAwNTYwMDRFMDA0QTAwNDUwMDRBMDAzNjAwNjUwMDM2MDA2NzAwNTQwMDRBMDA3MjAwNkEwMDREMDA0ODAwNDMwMDJEMDAzMTAwMzMwMDI1MDAzMjAwMzIwMDI1MDAzMjAwMzAwMDc0MDA2MTAwNzIwMDY3MDA2NTAwNzQwMDI1MDAzMzAwNDQwMDI1MDAzMjAwMzIwMDVBMDA2OTAwNTYwMDQyMDA1NjAwNEUwMDRBMDA0NTAwNEEwMDM2MDA2NTAwMzYwMDY3MDA1NDAwNEEwMDcyMDA2QTAwNEQwMDQ4MDA0MzAwMkQwMDM0MDAyNTAwMzIwMDMyMDAyNTAwMzMwMDQ1MDAyNTAwMzAwMDQxMDAyNTAwMzIwMDMwMDAyNTAwMzIwMDMwMDAyNTAwMzIwMDMwMDAyNTAwMzIwMDMwMDAyNTAwMzIwMDMwMDAyNTAwMzIwMDMwMDAyNTAwMzIwMDMwMDAyNTAwMzIwMDMwMDAyNTAwMzIwMDMwMDAyNTAwMzIwMDMwMDAyNTAwMzMwMDQzMDA2RDAwNzgwMDQ3MDA2NTAwNkYwMDZEMDA2NTAwNzQwMDcyMDA3OTAwMjUwMDMyMDAzMDAwNzIwMDY1MDA2QzAwNjEwMDc0MDA2OTAwNzYwMDY1MDAyNTAwMzMwMDQ0MDAyNTAwMzIwMDMyMDAzMTAwMjUwMDMyMDAzMjAwMjUwMDMyMDAzMDAwNjEwMDczMDAyNTAwMzMwMDQ0MDAyNTAwMzIwMDMyMDA2NzAwNjUwMDZGMDA2RDAwNjUwMDc0MDA3MjAwNzkwMDI1MDAzMjAwMzIwMDI1MDAzMjAwMzAwMDI1MDAzMjAwNDYwMDI1MDAzMzAwNDUwMDI1MDAzMDAwNDEwMDI1MDAzMjAwMzAwMDI1MDAzMjAwMzAwMDI1MDAzMjAwMzAwMDI1MDAzMjAwMzAwMDI1MDAzMjAwMzAwMDI1MDAzMjAwMzAwMDI1MDAzMjAwMzAwMDI1MDAzMjAwMzAwMDI1MDAzMzAwNDMwMDI1MDAzMjAwNDYwMDZEMDA3ODAwNDMwMDY1MDA2QzAwNkMwMDI1MDAzMzAwNDUwMDI1MDAzMDAwNDEwMDI1MDAzMjAwMzAwMDI1MDAzMjAwMzAwMDI1MDAzMjAwMzAwMDI1MDAzMjAwMzAwMDI1MDAzMjAwMzAwMDI1MDAzMjAwMzAwMDI1MDAzMjAwMzAwMDI1MDAzMjAwMzAwMDI1MDAzMzAwNDMwMDZEMDA3ODAwNDMwMDY1MDA2QzAwNkMwMDI1MDAzMjAwMzAwMDY5MDA2NDAwMjUwMDMzMDA0NDAwMjUwMDMyMDAzMjAwNUEwMDY5MDA1NjAwNDIwMDU2MDA0RTAwNEEwMDQ1MDA0QTAwMzYwMDY1MDAzNjAwNjcwMDU0MDA0QTAwNzIwMDZBMDA0RDAwNDgwMDQzMDAyRDAwMzIwMDM2MDAyNTAwMzIwMDMyMDAyNTAwMzIwMDMwMDA3MzAwNzQwMDc5MDA2QzAwNjUwMDI1MDAzMzAwNDQwMDI1MDAzMjAwMzIwMDY1MDA2NDAwNjcwMDY1MDA1MzAwNzQwMDc5MDA2QzAwNjUwMDI1MDAzMzAwNDQwMDZGMDA3MjAwNzQwMDY4MDA2RjAwNjcwMDZGMDA2RTAwNjEwMDZDMDA0NTAwNjQwMDY3MDA2NTAwNTMwMDc0MDA3OTAwNkMwMDY1MDAyNTAwMzMwMDQyMDA3MjAwNkYwMDc1MDA2RTAwNjQwMDY1MDA2NDAwMjUwMDMzMDA0NDAwMzAwMDI1MDAzMzAwNDIwMDZGMDA3MjAwNzQwMDY4MDA2RjAwNjcwMDZGMDA2RTAwNjEwMDZDMDA0QzAwNkYwMDZGMDA3MDAwMjUwMDMzMDA0NDAwMzEwMDI1MDAzMzAwNDIwMDZBMDA2NTAwNzQwMDc0MDA3OTAwNTMwMDY5MDA3QTAwNjUwMDI1MDAzMzAwNDQwMDYxMDA3NTAwNzQwMDZGMDAyNTAwMzMwMDQyMDA2ODAwNzQwMDZEMDA2QzAwMjUwMDMzMDA0NDAwMzEwMDI1MDAzMzAwNDIwMDY1MDA2RTAwNzQwMDcyMDA3OTAwNTgwMDI1MDAzMzAwNDQwMDMxMDAyNTAwMzMwMDQyMDA2NTAwNkUwMDc0MDA3MjAwNzkwMDU5MDAyNTAwMzMwMDQ0MDAzMDAwMkUwMDM1MDAyNTAwMzMwMDQyMDA2NTAwNkUwMDc0MDA3MjAwNzkwMDQ0MDA3ODAwMjUwMDMzMDA0NDAwMzAwMDI1MDAzMzAwNDIwMDY1MDA2RTAwNzQwMDcyMDA3OTAwNDQwMDc5MDAyNTAwMzMwMDQ0MDAzMDAwMjUwMDMzMDA0MjAwMjUwMDMyMDAzMjAwMjUwMDMyMDAzMDAwNjUwMDY0MDA2NzAwNjUwMDI1MDAzMzAwNDQwMDI1MDAzMjAwMzIwMDMxMDAyNTAwMzIwMDMyMDAyNTAwMzIwMDMwMDA3MDAwNjEwMDcyMDA2NTAwNkUwMDc0MDAyNTAwMzMwMDQ0MDAyNTAwMzIwMDMyMDAzMTAwMjUwMDMyMDAzMjAwMjUwMDMyMDAzMDAwNzMwMDZGMDA3NTAwNzIwMDYzMDA2NTAwMjUwMDMzMDA0NDAwMjUwMDMyMDAzMjAwNUEwMDY5MDA1NjAwNDIwMDU2MDA0RTAwNEEwMDQ1MDA0QTAwMzYwMDY1MDAzNjAwNjcwMDU0MDA0QTAwNzIwMDZBMDA0RDAwNDgwMDQzMDAyRDAwMzEwMDMzMDAyNTAwMzIwMDMyMDAyNTAwMzIwMDMwMDA3NDAwNjEwMDcyMDA2NzAwNjUwMDc0MDAyNTAwMzMwMDQ0MDAyNTAwMzIwMDMyMDA1QTAwNjkwMDU2MDA0MjAwNTYwMDRFMDA0QTAwNDUwMDRBMDAzNjAwNjUwMDM2MDA2NzAwNTQwMDRBMDA3MjAwNkEwMDREMDA0ODAwNDMwMDJEMDAzNTAwMjUwMDMyMDAzMjAwMjUwMDMzMDA0NTAwMjUwMDMwMDA0MTAwMjUwMDMyMDAzMDAwMjUwMDMyMDAzMDAwMjUwMDMyMDAzMDAwMjUwMDMyMDAzMDAwMjUwMDMyMDAzMDAwMjUwMDMyMDAzMDAwMjUwMDMyMDAzMDAwMjUwMDMyMDAzMDAwMjUwMDMyMDAzMDAwMjUwMDMyMDAzMDAwMjUwMDMzMDA0MzAwNkQwMDc4MDA0NzAwNjUwMDZGMDA2RDAwNjUwMDc0MDA3MjAwNzkwMDI1MDAzMjAwMzAwMDcyMDA2NTAwNkMwMDYxMDA3NDAwNjkwMDc2MDA2NTAwMjUwMDMzMDA0NDAwMjUwMDMyMDAzMjAwMzEwMDI1MDAzMjAwMzIwMDI1MDAzMjAwMzAwMDYxMDA3MzAwMjUwMDMzMDA0NDAwMjUwMDMyMDAzMjAwNjcwMDY1MDA2RjAwNkQwMDY1MDA3NDAwNzIwMDc5MDAyNTAwMzIwMDMyMDAyNTAwMzIwMDMwMDAyNTAwMzIwMDQ2MDAyNTAwMzMwMDQ1MDAyNTAwMzAwMDQxMDAyNTAwMzIwMDMwMDAyNTAwMzIwMDMwMDAyNTAwMzIwMDMwMDAyNTAwMzIwMDMwMDAyNTAwMzIwMDMwMDAyNTAwMzIwMDMwMDAyNTAwMzIwMDMwMDAyNTAwMzIwMDMwMDAyNTAwMzMwMDQzMDAyNTAwMzIwMDQ2MDA2RDAwNzgwMDQzMDA2NTAwNkMwMDZDMDAyNTAwMzMwMDQ1MDAyNTAwMzAwMDQxMDAyNTAwMzIwMDMwMDAyNTAwMzIwMDMwMDAyNTAwMzIwMDMwMDAyNTAwMzIwMDMwMDAyNTAwMzIwMDMwMDAyNTAwMzIwMDMwMDAyNTAwMzIwMDMwMDAyNTAwMzIwMDMwMDAyNTAwMzMwMDQzMDA2RDAwNzgwMDQzMDA2NTAwNkMwMDZDMDAyNTAwMzIwMDMwMDA2OTAwNjQwMDI1MDAzMzAwNDQwMDI1MDAzMjAwMzIwMDVBMDA2OTAwNTYwMDQyMDA1NjAwNEUwMDRBMDA0NTAwNEEwMDM2MDA2NTAwMzYwMDY3MDA1NDAwNEEwMDcyMDA2QTAwNEQwMDQ4MDA0MzAwMkQwMDMyMDAzNzAwMjUwMDMyMDAzMjAwMjUwMDMyMDAzMDAwNzMwMDc0MDA3OTAwNkMwMDY1MDAyNTAwMzMwMDQ0MDAyNTAwMzIwMDMyMDA2NTAwNjQwMDY3MDA2NTAwNTMwMDc0MDA3OTAwNkMwMDY1MDAyNTAwMzMwMDQ0MDA2RjAwNzIwMDc0MDA2ODAwNkYwMDY3MDA2RjAwNkUwMDYxMDA2QzAwNDUwMDY0MDA2NzAwNjUwMDUzMDA3NDAwNzkwMDZDMDA2NTAwMjUwMDMzMDA0MjAwNzIwMDZGMDA3NTAwNkUwMDY0MDA2NTAwNjQwMDI1MDAzMzAwNDQwMDMwMDAyNTAwMzMwMDQyMDA2RjAwNzIwMDc0MDA2ODAwNkYwMDY3MDA2RjAwNkUwMDYxMDA2QzAwNEMwMDZGMDA2RjAwNzAwMDI1MDAzMzAwNDQwMDMxMDAyNTAwMzMwMDQyMDA2QTAwNjUwMDc0MDA3NDAwNzkwMDUzMDA2OTAwN0EwMDY1MDAyNTAwMzMwMDQ0MDA2MTAwNzUwMDc0MDA2RjAwMjUwMDMzMDA0MjAwNjgwMDc0MDA2RDAwNkMwMDI1MDAzMzAwNDQwMDMxMDAyNTAwMzMwMDQyMDA2NTAwNkUwMDc0MDA3MjAwNzkwMDU4MDAyNTAwMzMwMDQ0MDAzMTAwMjUwMDMzMDA0MjAwNjUwMDZFMDA3NDAwNzIwMDc5MDA1OTAwMjUwMDMzMDA0NDAwMzAwMDJFMDAzNTAwMjUwMDMzMDA0MjAwNjUwMDZFMDA3NDAwNzIwMDc5MDA0NDAwNzgwMDI1MDAzMzAwNDQwMDMwMDAyNTAwMzMwMDQyMDA2NTAwNkUwMDc0MDA3MjAwNzkwMDQ0MDA3OTAwMjUwMDMzMDA0NDAwMzAwMDI1MDAzMzAwNDIwMDI1MDAzMjAwMzIwMDI1MDAzMjAwMzAwMDY1MDA2NDAwNjcwMDY1MDAyNTAwMzMwMDQ0MDAyNTAwMzIwMDMyMDAzMTAwMjUwMDMyMDAzMjAwMjUwMDMyMDAzMDAwNzAwMDYxMDA3MjAwNjUwMDZFMDA3NDAwMjUwMDMzMDA0NDAwMjUwMDMyMDAzMjAwMzEwMDI1MDAzMjAwMzIwMDI1MDAzMjAwMzAwMDczMDA2RjAwNzUwMDcyMDA2MzAwNjUwMDI1MDAzMzAwNDQwMDI1MDAzMjAwMzIwMDVBMDA2OTAwNTYwMDQyMDA1NjAwNEUwMDRBMDA0NTAwNEEwMDM2MDA2NTAwMzYwMDY3MDA1NDAwNEEwMDcyMDA2QTAwNEQwMDQ4MDA0MzAwMkQwMDMxMDAzMzAwMjUwMDMyMDAzMjAwMjUwMDMyMDAzMDAwNzQwMDYxMDA3MjAwNjcwMDY1MDA3NDAwMjUwMDMzMDA0NDAwMjUwMDMyMDAzMjAwNUEwMDY5MDA1NjAwNDIwMDU2MDA0RTAwNEEwMDQ1MDA0QTAwMzYwMDY1MDAzNjAwNjcwMDU0MDA0QTAwNzIwMDZBMDA0RDAwNDgwMDQzMDAyRDAwMzYwMDI1MDAzMjAwMzIwMDI1MDAzMzAwNDUwMDI1MDAzMDAwNDEwMDI1MDAzMjAwMzAwMDI1MDAzMjAwMzAwMDI1MDAzMjAwMzAwMDI1MDAzMjAwMzAwMDI1MDAzMjAwMzAwMDI1MDAzMjAwMzAwMDI1MDAzMjAwMzAwMDI1MDAzMjAwMzAwMDI1MDAzMjAwMzAwMDI1MDAzMjAwMzAwMDI1MDAzMzAwNDMwMDZEMDA3ODAwNDcwMDY1MDA2RjAwNkQwMDY1MDA3NDAwNzIwMDc5MDAyNTAwMzIwMDMwMDA3MjAwNjUwMDZDMDA2MTAwNzQwMDY5MDA3NjAwNjUwMDI1MDAzMzAwNDQwMDI1MDAzMjAwMzIwMDMxMDAyNTAwMzIwMDMyMDAyNTAwMzIwMDMwMDA2MTAwNzMwMDI1MDAzMzAwNDQwMDI1MDAzMjAwMzIwMDY3MDA2NTAwNkYwMDZEMDA2NTAwNzQwMDcyMDA3OTAwMjUwMDMyMDAzMjAwMjUwMDMyMDAzMDAwMjUwMDMyMDA0NjAwMjUwMDMzMDA0NTAwMjUwMDMwMDA0MTAwMjUwMDMyMDAzMDAwMjUwMDMyMDAzMDAwMjUwMDMyMDAzMDAwMjUwMDMyMDAzMDAwMjUwMDMyMDAzMDAwMjUwMDMyMDAzMDAwMjUwMDMyMDAzMDAwMjUwMDMyMDAzMDAwMjUwMDMzMDA0MzAwMjUwMDMyMDA0NjAwNkQwMDc4MDA0MzAwNjUwMDZDMDA2QzAwMjUwMDMzMDA0NTAwMjUwMDMwMDA0MTAwMjUwMDMyMDAzMDAwMjUwMDMyMDAzMDAwMjUwMDMyMDAzMDAwMjUwMDMyMDAzMDAwMjUwMDMyMDAzMDAwMjUwMDMyMDAzMDAwMjUwMDMyMDAzMDAwMjUwMDMyMDAzMDAwMjUwMDMzMDA0MzAwNkQwMDc4MDA0MzAwNjUwMDZDMDA2QzAwMjUwMDMyMDAzMDAwNjkwMDY0MDAyNTAwMzMwMDQ0MDAyNTAwMzIwMDMyMDA1QTAwNjkwMDU2MDA0MjAwNTYwMDRFMDA0QTAwNDUwMDRBMDAzNjAwNjUwMDM2MDA2NzAwNTQwMDRBMDA3MjAwNkEwMDREMDA0ODAwNDMwMDJEMDAzMjAwMzgwMDI1MDAzMjAwMzIwMDI1MDAzMjAwMzAwMDczMDA3NDAwNzkwMDZDMDA2NTAwMjUwMDMzMDA0NDAwMjUwMDMyMDAzMjAwNjUwMDY0MDA2NzAwNjUwMDUzMDA3NDAwNzkwMDZDMDA2NTAwMjUwMDMzMDA0NDAwNkYwMDcyMDA3NDAwNjgwMDZGMDA2NzAwNkYwMDZFMDA2MTAwNkMwMDQ1MDA2NDAwNjcwMDY1MDA1MzAwNzQwMDc5MDA2QzAwNjUwMDI1MDAzMzAwNDIwMDcyMDA2RjAwNzUwMDZFMDA2NDAwNjUwMDY0MDAyNTAwMzMwMDQ0MDAzMDAwMjUwMDMzMDA0MjAwNkYwMDcyMDA3NDAwNjgwMDZGMDA2NzAwNkYwMDZFMDA2MTAwNkMwMDRDMDA2RjAwNkYwMDcwMDAyNTAwMzMwMDQ0MDAzMTAwMjUwMDMzMDA0MjAwNkEwMDY1MDA3NDAwNzQwMDc5MDA1MzAwNjkwMDdBMDA2NTAwMjUwMDMzMDA0NDAwNjEwMDc1MDA3NDAwNkYwMDI1MDAzMzAwNDIwMDY4MDA3NDAwNkQwMDZDMDAyNTAwMzMwMDQ0MDAzMTAwMjUwMDMzMDA0MjAwNjUwMDZFMDA3NDAwNzIwMDc5MDA1ODAwMjUwMDMzMDA0NDAwMzEwMDI1MDAzMzAwNDIwMDY1MDA2RTAwNzQwMDcyMDA3OTAwNTkwMDI1MDAzMzAwNDQwMDMwMDAyRTAwMzUwMDI1MDAzMzAwNDIwMDY1MDA2RTAwNzQwMDcyMDA3OTAwNDQwMDc4MDAyNTAwMzMwMDQ0MDAzMDAwMjUwMDMzMDA0MjAwNjUwMDZFMDA3NDAwNzIwMDc5MDA0NDAwNzkwMDI1MDAzMzAwNDQwMDMwMDAyNTAwMzMwMDQyMDAyNTAwMzIwMDMyMDAyNTAwMzIwMDMwMDA2NTAwNjQwMDY3MDA2NTAwMjUwMDMzMDA0NDAwMjUwMDMyMDAzMjAwMzEwMDI1MDAzMjAwMzIwMDI1MDAzMjAwMzAwMDcwMDA2MTAwNzIwMDY1MDA2RTAwNzQwMDI1MDAzMzAwNDQwMDI1MDAzMjAwMzIwMDMxMDAyNTAwMzIwMDMyMDAyNTAwMzIwMDMwMDA3MzAwNkYwMDc1MDA3MjAwNjMwMDY1MDAyNTAwMzMwMDQ0MDAyNTAwMzIwMDMyMDA1QTAwNjkwMDU2MDA0MjAwNTYwMDRFMDA0QTAwNDUwMDRBMDAzNjAwNjUwMDM2MDA2NzAwNTQwMDRBMDA3MjAwNkEwMDREMDA0ODAwNDMwMDJEMDAzMTAwMzMwMDI1MDAzMjAwMzIwMDI1MDAzMjAwMzAwMDc0MDA2MTAwNzIwMDY3MDA2NTAwNzQwMDI1MDAzMzAwNDQwMDI1MDAzMjAwMzIwMDVBMDA2OTAwNTYwMDQyMDA1NjAwNEUwMDRBMDA0NTAwNEEwMDM2MDA2NTAwMzYwMDY3MDA1NDAwNEEwMDcyMDA2QTAwNEQwMDQ4MDA0MzAwMkQwMDM3MDAyNTAwMzIwMDMyMDAyNTAwMzMwMDQ1MDAyNTAwMzAwMDQxMDAyNTAwMzIwMDMwMDAyNTAwMzIwMDMwMDAyNTAwMzIwMDMwMDAyNTAwMzIwMDMwMDAyNTAwMzIwMDMwMDAyNTAwMzIwMDMwMDAyNTAwMzIwMDMwMDAyNTAwMzIwMDMwMDAyNTAwMzIwMDMwMDAyNTAwMzIwMDMwMDAyNTAwMzMwMDQzMDA2RDAwNzgwMDQ3MDA2NTAwNkYwMDZEMDA2NTAwNzQwMDcyMDA3OTAwMjUwMDMyMDAzMDAwNzIwMDY1MDA2QzAwNjEwMDc0MDA2OTAwNzYwMDY1MDAyNTAwMzMwMDQ0MDAyNTAwMzIwMDMyMDAzMTAwMjUwMDMyMDAzMjAwMjUwMDMyMDAzMDAwNjEwMDczMDAyNTAwMzMwMDQ0MDAyNTAwMzIwMDMyMDA2NzAwNjUwMDZGMDA2RDAwNjUwMDc0MDA3MjAwNzkwMDI1MDAzMjAwMzIwMDI1MDAzMjAwMzAwMDI1MDAzMjAwNDYwMDI1MDAzMzAwNDUwMDI1MDAzMDAwNDEwMDI1MDAzMjAwMzAwMDI1MDAzMjAwMzAwMDI1MDAzMjAwMzAwMDI1MDAzMjAwMzAwMDI1MDAzMjAwMzAwMDI1MDAzMjAwMzAwMDI1MDAzMjAwMzAwMDI1MDAzMjAwMzAwMDI1MDAzMzAwNDMwMDI1MDAzMjAwNDYwMDZEMDA3ODAwNDMwMDY1MDA2QzAwNkMwMDI1MDAzMzAwNDUwMDI1MDAzMDAwNDEwMDI1MDAzMjAwMzAwMDI1MDAzMjAwMzAwMDI1MDAzMjAwMzAwMDI1MDAzMjAwMzAwMDI1MDAzMjAwMzAwMDI1MDAzMjAwMzAwMDI1MDAzMjAwMzAwMDI1MDAzMjAwMzAwMDI1MDAzMzAwNDMwMDZEMDA3ODAwNDMwMDY1MDA2QzAwNkMwMDI1MDAzMjAwMzAwMDY5MDA2NDAwMjUwMDMzMDA0NDAwMjUwMDMyMDAzMjAwNUEwMDY5MDA1NjAwNDIwMDU2MDA0RTAwNEEwMDQ1MDA0QTAwMzYwMDY1MDAzNjAwNjcwMDU0MDA0QTAwNzIwMDZBMDA0RDAwNDgwMDQzMDAyRDAwMzEwMDMzMDAyNTAwMzIwMDMyMDAyNTAwMzIwMDMwMDA3NjAwNjEwMDZDMDA3NTAwNjUwMDI1MDAzMzAwNDQwMDI1MDAzMjAwMzIwMDQxMDA2NDAwNkQwMDY5MDA2RTAwMjUwMDMyMDAzMjAwMjUwMDMyMDAzMDAwNzMwMDc0MDA3OTAwNkMwMDY1MDAyNTAwMzMwMDQ0MDAyNTAwMzIwMDMyMDA3MzAwNjgwMDYxMDA3MDAwNjUwMDI1MDAzMzAwNDQwMDc1MDA2RDAwNkMwMDQxMDA2MzAwNzQwMDZGMDA3MjAwMjUwMDMzMDA0MjAwNzYwMDY1MDA3MjAwNzQwMDY5MDA2MzAwNjEwMDZDMDA0QzAwNjEwMDYyMDA2NTAwNkMwMDUwMDA2RjAwNzMwMDY5MDA3NDAwNjkwMDZGMDA2RTAwMjUwMDMzMDA0NDAwNjIwMDZGMDA3NDAwNzQwMDZGMDA2RDAwMjUwMDMzMDA0MjAwNzYwMDY1MDA3MjAwNzQwMDY5MDA2MzAwNjEwMDZDMDA0MTAwNkMwMDY5MDA2NzAwNkUwMDI1MDAzMzAwNDQwMDc0MDA2RjAwNzAwMDI1MDAzMzAwNDIwMDY4MDA3NDAwNkQwMDZDMDAyNTAwMzMwMDQ0MDAzMTAwMjUwMDMzMDA0MjAwNkYwMDc1MDA3NDAwNkMwMDY5MDA2RTAwNjUwMDQzMDA2RjAwNkUwMDZFMDA2NTAwNjMwMDc0MDAyNTAwMzMwMDQ0MDAzMDAwMjUwMDMzMDA0MjAwMjUwMDMyMDAzMjAwMjUwMDMyMDAzMDAwNzYwMDY1MDA3MjAwNzQwMDY1MDA3ODAwMjUwMDMzMDA0NDAwMjUwMDMyMDAzMjAwMzEwMDI1MDAzMjAwMzIwMDI1MDAzMjAwMzAwMDcwMDA2MTAwNzIwMDY1MDA2RTAwNzQwMDI1MDAzMzAwNDQwMDI1MDAzMjAwMzIwMDMxMDAyNTAwMzIwMDMyMDAyNTAwMzMwMDQ1MDAyNTAwMzAwMDQxMDAyNTAwMzIwMDMwMDAyNTAwMzIwMDMwMDAyNTAwMzIwMDMwMDAyNTAwMzIwMDMwMDAyNTAwMzIwMDMwMDAyNTAwMzIwMDMwMDAyNTAwMzIwMDMwMDAyNTAwMzIwMDMwMDAyNTAwMzIwMDMwMDAyNTAwMzIwMDMwMDAyNTAwMzMwMDQzMDA2RDAwNzgwMDQ3MDA2NTAwNkYwMDZEMDA2NTAwNzQwMDcyMDA3OTAwMjUwMDMyMDAzMDAwNzgwMDI1MDAzMzAwNDQwMDI1MDAzMjAwMzIwMDM2MDAzNjAwMzAwMDI1MDAzMjAwMzIwMDI1MDAzMjAwMzAwMDc5MDAyNTAwMzMwMDQ0MDAyNTAwMzIwMDMyMDAzMjAwMzQwMDMwMDAyNTAwMzIwMDMyMDAyNTAwMzIwMDMwMDA3NzAwNjkwMDY0MDA3NDAwNjgwMDI1MDAzMzAwNDQwMDI1MDAzMjAwMzIwMDM1MDAzMDAwMjUwMDMyMDAzMjAwMjUwMDMyMDAzMDAwNjgwMDY1MDA2OTAwNjcwMDY4MDA3NDAwMjUwMDMzMDA0NDAwMjUwMDMyMDAzMjAwMzkwMDMwMDAyNTAwMzIwMDMyMDAyNTAwMzIwMDMwMDA2MTAwNzMwMDI1MDAzMzAwNDQwMDI1MDAzMjAwMzIwMDY3MDA2NTAwNkYwMDZEMDA2NTAwNzQwMDcyMDA3OTAwMjUwMDMyMDAzMjAwMjUwMDMyMDAzMDAwMjUwMDMyMDA0NjAwMjUwMDMzMDA0NTAwMjUwMDMwMDA0MTAwMjUwMDMyMDAzMDAwMjUwMDMyMDAzMDAwMjUwMDMyMDAzMDAwMjUwMDMyMDAzMDAwMjUwMDMyMDAzMDAwMjUwMDMyMDAzMDAwMjUwMDMyMDAzMDAwMjUwMDMyMDAzMDAwMjUwMDMzMDA0MzAwMjUwMDMyMDA0NjAwNkQwMDc4MDA0MzAwNjUwMDZDMDA2QzAwMjUwMDMzMDA0NTAwMjUwMDMwMDA0MTAwMjUwMDMyMDAzMDAwMjUwMDMyMDAzMDAwMjUwMDMyMDAzMDAwMjUwMDMyMDAzMDAwMjUwMDMyMDAzMDAwMjUwMDMyMDAzMDAwMjUwMDMzMDA0MzAwMjUwMDMyMDA0NjAwNzIwMDZGMDA2RjAwNzQwMDI1MDAzMzAwNDUwMDI1MDAzMDAwNDEwMDI1MDAzMjAwMzAwMDI1MDAzMjAwMzAwMDI1MDAzMjAwMzAwMDI1MDAzMjAwMzAwMDI1MDAzMzAwNDMwMDI1MDAzMjAwNDYwMDZEMDA3ODAwNDcwMDcyMDA2MTAwNzAwMDY4MDA0RDAwNkYwMDY0MDA2NTAwNkMwMDI1MDAzMzAwNDUwMDI1MDAzMDAwNDEwMDI1MDAzMjAwMzAwMDI1MDAzMjAwMzAwMDI1MDAzMzAwNDMwMDI1MDAzMjAwNDYwMDY0MDA2OTAwNjEwMDY3MDA3MjAwNjEwMDZEMDAyNTAwMzMwMDQ1MDAyNTAwMzAwMDQxMDAyNTAwMzMwMDQzMDAyNTAwMzIwMDQ2MDA2RDAwNzgwMDY2MDA2OTAwNkMwMDY1MDAyNTAwMzMwMDQ1MDAyNTAwMzAwMDQxPi9UaXRsZSh1c2VjYXNlLmRyYXdpby5wZGYpPj4NCmVuZG9iag0KMiAwIG9iag0KPDwvQW5ub3RzWyA2MyAwIFIgIDc3IDAgUiBdL0NvbnRlbnRzIDcgMCBSIC9NZWRpYUJveFsgMCAwIDYxMiA3OTJdL1BhcmVudCA4IDAgUiAvUmVzb3VyY2VzPDwvRXh0R1N0YXRlPDwvRzMgMyAwIFIgL0c0IDQgMCBSIC9HNSA1IDAgUiA+Pi9Gb250PDwvRjYgNiAwIFIgPj4vUHJvY1NldFsvUERGL1RleHQvSW1hZ2VCL0ltYWdlQy9JbWFnZUldPj4vU3RydWN0UGFyZW50cyAwL1R5cGUvUGFnZT4+DQplbmRvYmoNCjMgMCBvYmoNCjw8L0JNL05vcm1hbC9jYSAxPj4NCmVuZG9iag0KNCAwIG9iag0KPDwvQk0vTm9ybWFsL0NBIDEvTEMgMC9MSiAwL0xXIDEvTUwgMTAvU0EgdHJ1ZS9jYSAxPj4NCmVuZG9iag0KNSAwIG9iag0KPDwvQk0vTm9ybWFsL0NBIDEvTEMgMC9MSiAwL0xXIDEvTUwgNC9TQSB0cnVlL2NhIDE+Pg0KZW5kb2JqDQo2IDAgb2JqDQo8PC9CYXNlRm9udC9BQUFBQUErQXJpYWxNVC9EZXNjZW5kYW50Rm9udHNbIDU2IDAgUiBdL0VuY29kaW5nL0lkZW50aXR5LUgvU3VidHlwZS9UeXBlMC9Ub1VuaWNvZGUgNTcgMCBSIC9UeXBlL0ZvbnQ+Pg0KZW5kb2JqDQo3IDAgb2JqDQo8PC9GaWx0ZXIvRmxhdGVEZWNvZGUvTGVuZ3RoIDg3NjY+PnN0cmVhbQ0KeJztfdGu7TaS3fv5Cj0HCJusKrJIoNFA2tPdyMMA6bGB+QAnPUHgG6An/w8ERUqsRVE+Nsa+yWCsbhh379pHEkUWq9ZaVFGBuPX/HfGIx38O8FUbHd9/+fj7h/1COceDOcbjX//Hxz//p+N/f/z9g0Oi3I/zT99/+UiH/f+f/nKMD//6Lx+/+wsf//J/+nlqKkeKudhp/vbx14+/fvz9Q2s/PMVxGuLGQfPBcfzrF6RQYxM7RW/S/FYplFKjnVlDyaLcrCGx/9k//eUYH3pDxBrClI8Wjy8feXz44eNbt9mHLGbMy6fz73707nLMR5JsZx2fQk1VNR05Sqiacj2SlFA459ZtJYmaTYPkKCTH9x9m5qxNjiQ1UMnU/5ZDU+7GFqIKRe5GKaTajVWVhPsJKLScCh8px1BqpFYPM3LK9rc5BVHOVY8cU8g5p3qkTIGyppT6CWLQJrkdKXOIEgvLIa2FlqiVbqwpllgPaTW0FMlOICEXjYWO7z+kaWhRCx0p58DEOekhrQStVe0EJcRCNeZDWg45c8ndqFVq034CCZxqttZqyFFjtBaQ9UFvbQ0Uq9jxKeSk0rqt1kZc+vExxJKqXauFrDFyPaTWkGO/gxIDUanNjCVUiZW6seZW2fpQag5Jq7WrpCCNNNMhlYNQsj+lEFstTQ6pKeRSc+rGolpyteO1BRtu+1sOlEshOkQ1qBZt3VhjrmzGHDQn4SMVCUyZcr8D5aBUonZzFSk1HaIpFJJkF8uBOVWph5QWRHIu3ai1KPUWFA1UNNp5SyBJhfiQkkMkkm4rhWKRQwoFTckupCFKjZz74TFIjG2YhSXGckiuIXK24S4atNq4Sc7mxTbWpYbYyhjAzCGZt5YaJEVOh+QYlG0czVaq9Y2YgxNp7rZmfmLHSra+E7tKC6mk1A4RDklLb04LnFs1Wwwlahp/l1MbvsfWRpXcrUUb6yGcg0jto9GCtsblEKZQJbF0W9Xr6BiIubZubblVPYQ0FIqxHUnjIRalNNrfEgXW1tKwpxa0lCR4ZNKQcrWZiNdIEnJOKWNrUgqtUCZsdWyBGymv9xdLqMTYD1ECVVn7K6agqqktPcutBSqtMYwBt2Ku2Hv2Giu26VfHOPuYcrM2Sikw+lxbsEYsbsJVA9Xa3QxciquEppoX7+NKQZmsE91NucaQs3BeXZq1BtYxqab7s5ZAFuxhnrBKIKn9SjCnWCkQ9QDi8481Wu+lZaaydQWPSQmzmksJWasKRgC261JiwlDBhUPKrY/xCCtpnMD+orSMIYhzC40tGkKw4lyDVOJbYOOsIVLpQfSKgWwzsJrjeazkLEGkULviakvUD+dAKfUQOmMwZ7sX6n87ozXnFGLt0R4CO+cYYr9rSAIsLVDM1gGeLlhqEBFzXkwtLBpKld7YmYbMGKX2LDITFksJmTXJmtzMHKlgGmTJofRPkDDNyDXbBMDkauZE1bp15mGWJVWfX8cfH0kkpJqsd/BYDlxEqCzXoZClZS3nda42paAsKunwtsfQKGtNy13GkIiUytlNZ49wC5xaUTqg77iGTIV7N81+Zg0qVGvrJ5hjwsWikQUAGD0uIdXGhWCgLUgytdjnuvsESyhaJPMB3sMcGlvoBUdj+zVH7cM0fZLJ5kSze3Xf5RS0pWx+4n7OKaQUlcfxc05wDEKtiR4we6gFVY7mPD7TqIUkMZV+Az4rydK+EvMB85cModho4lwnDWwBovegxwUqQYV7Z3kEoWIJLpWK0YZyKCo6puoMTJRDypltWnoEIzG8mkQw2pEEa7P0ueaRkQwDV872tzOGEgdmbeaYHm+pQ782opXHZqKQS24WrTyIEwVKhblhvKcUWuwj4HmBUsi1FbtVTyCUAidJmjDXUApRi7SRqGZaohgqV3OHmb0ohmL4omGaoxgsWZxZcmZEioEpFuYDUifFQDEWw4CeZcnmUORxfU/IFC0sJcOAnrPNaP+rI6XTSOkz1cPPjgngRA4flos60oAGOiSBW3H0ct52x02Oc0YPJYNdDoigJ0/sVG+9fsKstIxQR2O8juUJ3HKDQQeA594BUND9yFEjupzjS/dOAKKnHxdC0Hr5fOuodwJcnx8Ahc+ZlBbYfE46kX6CCbF9ggIY96kMwB2nvWN8jxBABjyWAHHAuHORjIYx6qIjDaPZSV3MwTHyAcvxKAl8yOMpcKcz9NY+Bs6zZpQGQubhHMgbhn4gep4lgBJ6PgH6iLkHqKbnKSClntGQwEL2Q7I7MyXS4plRTwpd05p9T7ZdEmbqwchnNr+o+vcf//Pjb48yQX4Z/cvoX0b/MvqX0b+M/mX0L6N/Gf3L6F9G/zL6l9G/jP5l9P+uGf23/aGCH31WIAUqzImPFEug/GMPCvQ1/T9+9/G7/3b8/ve/+8dv/us/HPH4wx/++A/ffPzuz+box3d/+0jjqYnUE18sFnmkHd99+fh9jCQx5jL+k29ilP8SY04xRqNNMj6Lju8cwSbjb6Xab384vvtfHyk2Gzob5nh899+P38fI2n8p0yDn5eRP/Yc//eM3H3/67vOeeH5q4tMHHChdcgilgbEaqCGUOgorIIZQGnht1UIoDWinIIVQGhgQ/MhMHSsuOghRh5UMKgjRgJ8oghANpLpIIEQD0xIoIGYz8JtgDhGdOHnRP4gGomaQP4gG9CaYwWbrKH0RP4gGoCfQPogG7lfQPsxmFEEW6YNosAkB5YO4044G4ctMXfdYZA/ik8u46kF8ch6InWYzelQWzYP4ZFIgeZjNKBeGbuLBzlbBw6ydyIHeQTwIH0PmMJtxQ17UDuKTRrrYYaZONz1rEZ/EdJE6zCrMBkpmIjSbcV0GpYN4VzrMdlc6zHZXOszWiEe6m4mdeDD3AkqH2YzhF8AKZjMlIC1Kh1lNM8igdJjNtIUMUMVspkKkRekw613pIBlKh/2LSke3T2AFR04MtlxjwjVozcR10OoJAZf7O7Ei9MOElNBfE31izzpQ9TFwROtj5cgXx9RBso++o2n3Egfe6E+O0d3xHMy7fzruR092iuA+P6mETw0nHTiJnJ/4dHMi49PSOQ9OYKdHPtWdR3lEcMqFscPZ2QwyzuI8Fjnhw6jl3NDj2+SQHgadbV4BkxdVw0OrE1gPwZPqYqx2UuxR3dmzR38n2pAmnJJ7PnHuPtOOs3zMT5ccMNOYiwae7VxfwLzoUsRMoCZWeIY9v50iBqUBe/jAAwcySsslBoiqi4JB6cRbh7e4w7K63NgAcLyoFxRPrAfiBcUBClG7oDjwY1mkC4oDagooF2YzTJphNGNHr0P38GGPA+gKyBYUd9nCbIadG6oWFE+UDaIFxQHHCV04DuROi2RBcYB8RsWiDTbQULBogzjc9Io2OEZGuaINMtJQrWgnbVnFijYYTkatog0qpChVtJM1LUpFG/wKdYp28jCUKdpJ2VaVop3sDkWKNmigoEbRBmHUVaJoJ7VEhaINDiooULQHgaINUrvoE22w34ryROtEeSwyuDrRBqcmFyfaoN6E2kQbJL2u0kQbfD6jMtEG8V+EiXZqBKsu0U45AWWJdi4xtJseYXYXIvxI1yHOa9RVhvDWuArhrXYRAu/PRQjvCdcgvL9cgminBLEqED4GLkDMsQL9oT3oD3PsQX6YPuLqAziTiw/T60B7mN4J0gP4MSgP0+NBeLgmBsgOMIFAdZhTDUSHOSVBc4DJ65LDnOWgOMxoAIIDxA3QG2aEcbnBI5GrDRizgFbM6Ab044yCikTlDJdlURquwJpBabgCMCFJOkN1XXQGj+lAu87Yn5GfnVlCF5HhzCcCEoOnHWSGnqCQQp6ZDJnmle5cXcDE6OKCp9BBb68ke9Hen/GwwMuOX3b8suOXHb/s+GXHLzt+2fHLjl92/LLjlx2/7Phlx78BdvzVFt7TJwvvmgK1Uo1L07ny/snauC+3ZzqX27+J0dBa/57P72kswa9L9biuvraPPmlfs7EzdkF6NS+dV9PzwYB2/lvOq532q4W5fNUV/To1izoQVUHNou71DVQfRYs6YFxB0aJ2tJca+mYdqHCtbaC2qxbtQbVoHY7GusoW7UG2aA+yRRtQOK+yRRuYOaNs0Qa2xsdyqI2ShrrKFs3werE47fGlDVgvKFu0QQBolS3aLltw3GQLMxn1WFQLjoOjqKsWHDuVUXweymxGenRRLTjuqoXZ7qoFxyfVwqxVTJaZmYTjIHAZco7ZjOrJIlpwHKRQXLQwk3HH6smO45NoYda7aGG2u2jBcRDcCqKF2YwIK4gWZjPCXEG0MFvr/oCiBcdOwq3uYyIGs3FujQBbmG0vXjCr0f8KooXZTCbApw/NZoKCLKKFWe+iBaeBnexfFC26faIuOHLis+UaE8lBaybig1ZPbLjc34khoR8m0oT+mpgUe9bRq4+Bo1wfK0fDOKaOm330HV+7lzgSR39yzO6O59je/dNZAHqy8wX3+ckq5sxw9oFTyHmKTzbnMz4pnfng9HWO5BPduZTHA2ddEDicns0AAyyuPUgWELGAGc7Y5gRyhkBgms01XuCkZ1gVlCxm+HWSC3Ea2HB7kCzag2QBOQKYeHvQLNquWUB2mgrAzGKgE8xsB4pCfRQtKlYmeI49v12qRR2AKqFqUR9UizrA2VqVQHXAOC9KoHo+arnc20CFaZUt9EG20BNmQq/qwKNrOQLpQK4VVQsdCLfBgOp4IpVW1UIHaK6oWugA14sv6ZNqoYbXOWIhAunA9QW9WAcDyKtqoYMrFFAtqHROkVDyK5180KJZUBkspYBmQaWzmX7wVBvLoD28aBZUBkGqoFmYLTUhLHWiMiiXomZhRqNmKFpQGRQuo8ZaBtkri2hBZRctzNaf7EZ9tzyJFmY1QlpBtDCbEddFWy5GcOkM01OFLueT6iBbmO0uW5htly2oDBruFQdmMbIuqKeXJ9nCrHfZwmx32cJsu2xhVhMfCsgW3WbkYKwalFW8gF991cHP4usTeD1fySi7hAF34Gsj5UnCgF7x1RbvuylhLL08JQwYjylh+Li5hIEjDGtH0xdgjWn6jC9GlQcRw70Q1rbKLmKgX8N62ZwBsK42ZwqswMGUgrW6OflgTW9OUlj9g+nsy4Rz3sNq4owPsO7ogcRFjBlwQMOYcQk0DIhgwDFmrAMuMmMisJYRPBOtGsYMs8CDZjgGxgSBG7jVjPDAwWYmALYGOQN4ne4ahj5oGJCtkFFeeQ2Z55X9QMSAPAkiRl1EjJlzLx78c5b4X7r80uWXLr90+aXLL11+6fJLl1+6/NLlly6/dPmlyy9d/g3S5a+25s+frKnXElqp9oBxpXu1/bV8b4vpfxxL+nMh3f6t9wX19bLy2WX5XMpv11I+lfOs8fyv+kMFz8v5X3Mp31Dhl+vTVn7AedcmDAwYBkuLNmFw4K5NGBiwBzexAMFsuzbBZdMmOmq4aRNcnrQJAxN3bcJsd23C8MWuTXDp4FgaaBOGOmJvrs9ys+3aBJcBzAtoE4ZPDL+DNGGmWtvYX2RKE1wGJUgoTejYFUxRm9AnbUIHFxHQJnQvQDCbkRtZtQl90Cb0QZvQQax41SZ0PGW9iBM6iBpu7GI2rbbTzCJO6CB/CcQJHRyRQJxQQ896JrEpTuignYzihA56itqEDh5LqE1o57v2oJhrE9p5sRbUJnQ8Jc+rNqHjeXpGbUL3+gOz2VY4bdUmdK8/MNu9/sBse/2BWTdtop7aRL1pE3XRJvRBm9Cn+gNojWsTutcfLPd3aRO61x9c/YX1B1fPllWbmGMA2sQcK9AmYExBm7gGH6SJ6SMgTZzeJKs0Md0OpInpnSBNgB+DNDE93qWJOTFAm9BHbUIftAl90CZg+oI2oXv5gccD0Cb0SZuYEcbJmkcip3UYs5wAzuA2aaKHQOeTGCydeXpYdYbq4XdSWYzTznk9ojs39sjvLBpzhNNtzyZOy2fScf6O2eni+Z7FXA24sh3uMnjlxVWb8AzKgjn2/HZqE9ZzhpPkwCMHkpLlGgNztUWbsJ5bCxCs2+7ahNl2bcI6865NWGfetAn7cS9AsJOPh1BhnOTcMgoGVMZTrWXRJliu51/BQ2SA5sWXxJ+odaeTvQCBZeB19GHpwL60RZpg2esPmMfTwYu0x0/1B8y7OMG8ixNmMzazaBPMe/mB2eyZ6IxRgweRSqhNmDHlXvXiUYgHM8NyKbNZU3nRJpgH22PQJszGrHWRcXnQx0WaMKPRzAzShNkoFXMij9I8iGtepAmz3qUJs92lCbPFzo9QmmA+t7yb0oRZjIQnzEw86HpepAmz3qUJs92lCbPt0oRZ79JEt01pgnmVJuBXz9+8SxPL9RwT8C5NwB04ysB7dTziveK4xftuShNLL09pAsZjShM+bi5N4AgDCJu+AGBt+oyjOvctB3/TBwEjTl8FNAleDbhz+j/g0zlPAMnChALMO6ceYGPeyxFgLjva5l2Y8NgA6J2fqhE83rg04XHJpQmMYEAxrlAHTGRGROAs8lSM4EEWWJDsxQgYtoFZzfgODEz2YgTMGMDqZFMmPAMhS3xSJjyrIe/cqxEwS7oy4fl0sN0r414s+Gcs5L9k+SXLL1l+yfJLll+y/JLllyy/ZPklyy9ZfsnyS5ZfsvzbI8tfbRk/f7KeXjjYlvmc5yL+WYdvS+d9KT2ObfD74v21Vf65sN+X1v+N9frls0X+ZrGkU/P7Kr/8+fzPdujPsGXA/9NVfou+X65Pm3AhtAsXFqX3CgShXbgQ2isQzLYLFxbl7d1OCsqF8MCaArPBIv+uXAjvyoXZaooZH6gRHoh4fQ2h5Q17BpZAuRDelQuzGRjPi3IhvJcgWNa5lyCYbZcuhHfpwvLTrQTBTPtGgyJbDYLILl2YbZcuLN/dpQuz3aULkacaBLPeahAsWd5rEHoCrWVki5mVRDblwkxGISHHycDWi25hNuOk+LZBs910C8vRd93CbDK8YOoWZjPO3EC3sE/7JoMi+8sGzXZ/2aDZ9gIEs94LEMymrUkCNCPyVIBg1rtuIXnoFvYv6hbdPnEXHDkR2nKNieWgNRPzQasnOlzu70SR0A8Ta0J/TVSKPev41cfAca6PlSNiHFPHznPwHWK7jzgWd19yzO4u59jePdNZAPqw8wX39kkrzjmxqBbX7OFFtfB55ozG56NTH5y5TpJ8jjuZ8lDgtAuDhhO0GV2cx3kQcsaH4cqpoQe2ySA9/jnVvCLlKlucMfUEFoO8euydLBeDtNNhD+dOmz3sO8HGBOFM3FOJM3ZPOc7tMTldGoAnMVcKPNm5poBp0dUHT6CmT3iKPb+duoXQrlsI7QUINtH3AgShewGC0EB4ebm3jgVLXXQLCxaGGgV0C0ljm0HFfk1PwoWkAVgJhAuzGbCFEU0DAPOiW1jwKVpOheZ0kTQgNaMzpQfdQtJA6QS6hUUubalvfzndOA3YXxbhQtIgCKBbWIgzHoGyn9lSJ4KoW0gc3ARkC4lj97GMczc+yBYWMu+yhdnusoXEhy0GzXjbYtAC7l216EF4Uy0k7uUHZruXH8iAZGNzUI+pcZctzHaXLSzY77KFWY3+MsgWZjOanDFBxCfZQuK9/MAs9/IDs+3lB2a9yxZmu8sWZksUZX01oFnvmwxKPBNvXAWLbveUHfdNBs9r3KSKqzUEUsXVaqxsvO5vlSqunkCp4uovlCqWnp1SBYzBlCp8rFyqwFEF3BV3qcL9xGFcfCg5cM8DVBj3kgP0ZUCacdcqzsmxaBXXLFq1Cp9vAIbjrlXABHZ4PSc6oPArHgBcPwOHLFLFFWJQqrgiEUoVV8xapYozuqFUcQVBfFM6RkugM2mXKs74u0gVV6RepYoZ0YFxjcDfX5U3udmZInhRKjyZANubSQd5oacnZJBXIkOmuVccXImRF6nCU+jgtyhVjOT7k+v6Lz1+6fFLj196/NLjlx6/9Pilxy89funxS49fevzS45ce/xbo8VdbydfPVvLbWZBvTwt6QX5fx78Wxhvstf/NfLW9PeVBKTbZ3mwfahUt2Xfxv5ba5dzJ/9+y8l8/W/nX6yZYbzchBXYPOB9GuJ4C6LX+f8ab+6qr/23KG61jr0oob7TxhiRCeaMNHKervNGuBznBOdtetmC2Xd6wiXMrW7B5cy9bsF/t7VHrWwbt5AZzM6gbZruXLVhj97KFHPf9B3Pc9x802162kOP+lsEcd3XDbLu6keO+/2BOg38wxEuz7fJGTpu8kdMub5ht34Ewp06nLFTNyG+2Gjvdnzkipyd5w6z3woWcOuOzo2d+MtteuJDTtgWhmW76Rk5PhQtmFba9XDzTms1IbgOJI6d9C0Kz3SUOs90lDrNdz9c7bshpr1ww271ywWx75YJZTSwgkDjMZrUCBCgo95ecjbelOF4yqwkVAhJHpoG07F+UOLp9YjQ4cqK55RoT90FrJj6EVk8kudzfiTihHyYuhf6aCBZ71rGuj4FjYh8rR884po6zffQdj7uXOHJHf3KM747nXMD901kDerLzC/f5yUJ8ajhdwUnkxManmxMgn5bOlHACO6fyqe7UyyOCkzSMHU7nPMo46/No5PzwjFu3XQivCAfvGfRA6Mz0DJm3XQiv4Iq7EHoQnqQYo7WTZ4/rTrI9/jsdx0zhxN1zihP8mXpACWgPKkfbixc854ECAdkRtIqZR7uaMTPt+e1SOdqDytH24gVLNXvxgiWbtXjBEs29eEHaU/GC1L14oaektXhB6tMuhJan7sULZjNIjCpHfSpekLoXL1g6uxcvmG3bhVDqXrxgic94AKPKUZ9eNSh134WwJ8h1F0IzbbsQiu61C5ZI77ULZtt3IRTddyE0m9EufD2ppeFd5tBd5tB9E0Kz7ZsQ9hR+lzn0QebQp00IzXrfhNBs900IDRQ8yBz6IHPog8yhT5sQit6LF8xSJMZFf9chA9Aqc+gUDFzm0AeZQ5+KF8x6L17otlm8IHoTO3QvXoCzuOShj5KH7sUL1x1g8cJ1rzfJQx8kD32QPPRpE0IYD5c89EHy0EfJQ/dNCN1nXPLQJ8lDHyQPfZA89FHy0H0Twmui4CaE14xaNyH0uQeSh+6bEOJsds1D9/IFDw8geuhT+cIMOKB51H0XQoxgoHnMWAeiR93LFzB4guhRH0SP+iB61EfRY0Z4UD3qJXeD6lGfyhdmcgHRo+7lC5itkFfu5Que/UD0aE/lC55RB+tdRI/2854JeEnzS5pf0vyS5pc0v6T5Jc0vaX5J80uaX9L8kuaXNL+k+TdLmr/akwLtsycFYkia7A1irZ2L7D+94P+N76r/vOA/vl/7/F+1+XOLAMVjf/zhgBQ/a7gE6U8HpHhv+GywnC8hsKcT+l4FERopo+HyuK9BP1GToETYA/2tBnZn/AufKXgaObGRSzWe7zTsbx/pn3+4Pif7bFt72Esn+pdvrxG3vTRq7dYvH7ZzSP9Sw3bE/C2N3/y4H7pwc7bjVzrft3BD12H1seEVL1TXC1W8UF0vVH+k4b/wfN9+OhJGGubpxpf7DY39LM+LGCrcjpi/LQ0Yv+039EvP9/kNGaCYpxtf7jc0CnnOi9gDytsR87elAeO3/YZ+6fl+4oYanq493lDDBrS1AQ0b0NYGtB+5oV94vm9//EmjZFvbHZRT6J1mX6W1Voet1Vrq0Y2pGW2mTEHJ2JgZKTe1195k7ozKcqKZY2vF3uFp+8+URvlIpYRayLQBM1Y1bGvGLNXAC+V8plc7QQm2N6W98yXbRysiSCWHKs0eczRjrbmVbuTGLOmgbHQ9ptxPIIYDWOy8NaRk9MGMklqyV5Jlk2eo0JFsvz2ulewERv+kjVsw0aIK125W0n67FApppPHSqtTszYrJXvgkktt4F1WJ0g+3fEpJynidVLKHzFKJIUvqb+Wxt0mV2PhIdvbKmYaxCPfqFDNHq7w43xlGdiXbjU94vMGJQuJm42Lb8XHtr4KzLQEr19SPN3bOxW6rUBAyFJpsWz6KmvMwttbUjONVVP0oCUlbf4WY/27YorDU5UyGgBPncrtqCprn314tjKHZc6wFbyUaqhZO611LC5Jr6u/1mj0kNSirni9Fi0mk22LOnNvV6f3dlUk0sFIbbx67BkgM9abMCYfStneyjTt5HXbJIdeoNpjuIpJN3en97s5kO0nFUhKvjicS7PnV1UmFg5Y8XH+6s3CQnDbXN9bD/X12PkuEQovR9CWYT0JBJfb3EOPcE7I7sHIhmKdCYZnM8zvl65iDcgw5GejHc1hllTal5XrSrPdJzmOvtkkNzLE3eN6EaS+ktN6v7aMlou2836tvrHypUG+A96KJQYlbXXpcJFiAOkfsGhzpZL0cOIoWBJP2AfMRt2Kllk+Xce+wO1RD5uhHQoFj4dXnJIXachsd4O5pZUw1Z7uYO7I988otpsXpe3FT4THVfX5IDFmN3uBMkmgzgeoy66SfqzMvnKESQ1STfmEqSxyTXGL/Y48B/QePE3Csx5TlOh5/oE0eqKD1HtTwTiEAeq9AqPT+g6CKfQ0B2McFQrWPIIR1HG1IAe4ZkCymC0FeGc42vBVykDsmZCt3Ychs6O6QBX1qQL485xAtufWcb3Tm1isP+9zEjD1nMWb1n1g2fRHAiwBeBPAigBcBvAjgRQD/YRHAt1MHnCH/S//MMR4/DKtGs3HsnxZbRZsdMf7O9oZebPWyfTXJOaUfl24tHFWqvZxZ6qXd1lOqtX/z11JXS7kUo1wvHdA+WRD44cOeZDAMIItaZI8OpJ5h7LDE48tQcJYj5m9D+YHjFrXoVzrft8vNuPx1fk5wuptUfJ5oSLvnRS75djli/rY0YJOKf6XzLTd0HlYfG17xQnW9UMUL1fVCd6n4Vzrf5yMx9NfzdDep+DzR+eqjcZFLvl2OmL8tDdik4l/pfJ/f0NBfz9PdpOLzROeeT+Mil3y7HDF/WxqwScW/0vl+4oYanq493lDDBrS1AQ0b0NYG3KXiX+l8n0jFpS1E0b5a2hGAlt2WWqd+F/w0m6WyBaia0ZKeAqYtrWdHex35BL9ms0RaFphsVsu5FRB1aSM5K0Bvs3GzFx0hSi9tZPwKgN5sBg0aIP/S+HzMAEmCWQ1wEPCJ0gYySUA8ShsgpgIxNJuhnQy8sLQBi5D0lNoR1EmELn5kVgNbyZlUqR2UZQbGVWrHb1kWclbqgHrICEsdaFCA8JXqhLDUgSLL8vuAm205T0em9wt2DCtpadoAu4x3cMLi9VZ1IGjGTtEBtYEImslA+UIDi3b4bj7og6ED5y+DpuV8oHMZXh3sASmg2WIhA97uMNr5SNbVtbRTl7w4oQ6Og76qgw3R6tW6k7+ig2At80QHF0vrjNJB21Ch6Tacnrowv+vrhRnhFBNcwsWA90GzJu2D5k9sCzcKMNh7ZAJm6LiJrKGLnfHBWFxoHYZsonoYXCAA4AaTK4C7TFLhfgX0A/xvMhXw00lpwKOB/YDrT6IEU2QyKp9LwL1g0k2aBpNT4pi2neLBpO72Oe3hyBkglmvMUAKNmREHGj1jE96eRzHvCI923mEeFbFrPX76GHic9bHyiIyj6rHbx99j/HQTTwbA6SBtuON5enEH9USEnuwpy33eU9ukc1cO1IXNQbb0+QZZdc7L9vPV3DdJv0n6TdJvkn6T9Juk3yT9/zNJT8HVo/WX/nkIrt3axdWuIOhq04S2Ia7a3w1x1W32d19bcKUfF1xLMRHBtda+i5aej71+s78f668f/xckDzQmDQplbmRzdHJlYW0NCmVuZG9iag0KOCAwIG9iag0KPDwvQ291bnQgMS9LaWRzWyAyIDAgUiBdL1R5cGUvUGFnZXM+Pg0KZW5kb2JqDQo5IDAgb2JqDQo8PC9JRFRyZWUgNTIgMCBSIC9LIDEwIDAgUiAvUGFyZW50VHJlZSA1MCAwIFIgL1BhcmVudFRyZWVOZXh0S2V5IDEvVHlwZS9TdHJ1Y3RUcmVlUm9vdD4+DQplbmRvYmoNCjEwIDAgb2JqDQo8PC9JRChub2RlMDAwMDAwMDMpL0tbIDExIDAgUiBdL0xhbmcoZW4tVVMpL1AgOSAwIFIgL1MvRG9jdW1lbnQvVHlwZS9TdHJ1Y3RFbGVtPj4NCmVuZG9iag0KMTEgMCBvYmoNCjw8L0lEKG5vZGUwMDAwMDAwNykvS1sgMTIgMCBSIF0vUCAxMCAwIFIgL1MvRGl2L1R5cGUvU3RydWN0RWxlbT4+DQplbmRvYmoNCjEyIDAgb2JqDQo8PC9JRChub2RlMDAwMDAwMDgpL0tbIDEzIDAgUiAgMTcgMCBSICAyMSAwIFIgIDI1IDAgUiAgMjkgMCBSICAzMyAwIFIgIDM3IDAgUiAgNDEgMCBSICA0NSAwIFIgXS9QIDExIDAgUiAvUy9Ob25TdHJ1Y3QvVHlwZS9TdHJ1Y3RFbGVtPj4NCmVuZG9iag0KMTMgMCBvYmoNCjw8L0lEKG5vZGUwMDAwMDAxOCkvS1sgMTQgMCBSIF0vUCAxMiAwIFIgL1MvTm9uU3RydWN0L1R5cGUvU3RydWN0RWxlbT4+DQplbmRvYmoNCjE0IDAgb2JqDQo8PC9JRChub2RlMDAwMDAwMjIpL0tbIDE1IDAgUiBdL1AgMTMgMCBSIC9TL0Rpdi9UeXBlL1N0cnVjdEVsZW0+Pg0KZW5kb2JqDQoxNSAwIG9iag0KPDwvSUQobm9kZTAwMDAwMDIzKS9LWyAxNiAwIFIgXS9QIDE0IDAgUiAvUy9EaXYvVHlwZS9TdHJ1Y3RFbGVtPj4NCmVuZG9iag0KMTYgMCBvYmoNCjw8L0lEKG5vZGUwMDAwMDAyNCkvS1s8PC9NQ0lEIDAvUGcgMiAwIFIgL1R5cGUvTUNSPj5dL1AgMTUgMCBSIC9TL05vblN0cnVjdC9UeXBlL1N0cnVjdEVsZW0+Pg0KZW5kb2JqDQoxNyAwIG9iag0KPDwvSUQobm9kZTAwMDAwMDI3KS9LWyAxOCAwIFIgXS9QIDEyIDAgUiAvUy9Ob25TdHJ1Y3QvVHlwZS9TdHJ1Y3RFbGVtPj4NCmVuZG9iag0KMTggMCBvYmoNCjw8L0lEKG5vZGUwMDAwMDAzMSkvS1sgMTkgMCBSIF0vUCAxNyAwIFIgL1MvRGl2L1R5cGUvU3RydWN0RWxlbT4+DQplbmRvYmoNCjE5IDAgb2JqDQo8PC9JRChub2RlMDAwMDAwMzIpL0tbIDIwIDAgUiBdL1AgMTggMCBSIC9TL0Rpdi9UeXBlL1N0cnVjdEVsZW0+Pg0KZW5kb2JqDQoyMCAwIG9iag0KPDwvSUQobm9kZTAwMDAwMDMzKS9LWzw8L01DSUQgMS9QZyAyIDAgUiAvVHlwZS9NQ1I+Pjw8L01DSUQgMi9QZyAyIDAgUiAvVHlwZS9NQ1I+Pl0vUCAxOSAwIFIgL1MvTm9uU3RydWN0L1R5cGUvU3RydWN0RWxlbT4+DQplbmRvYmoNCjIxIDAgb2JqDQo8PC9JRChub2RlMDAwMDAwMzYpL0tbIDIyIDAgUiBdL1AgMTIgMCBSIC9TL05vblN0cnVjdC9UeXBlL1N0cnVjdEVsZW0+Pg0KZW5kb2JqDQoyMiAwIG9iag0KPDwvSUQobm9kZTAwMDAwMDQwKS9LWyAyMyAwIFIgXS9QIDIxIDAgUiAvUy9EaXYvVHlwZS9TdHJ1Y3RFbGVtPj4NCmVuZG9iag0KMjMgMCBvYmoNCjw8L0lEKG5vZGUwMDAwMDA0MSkvS1sgMjQgMCBSIF0vUCAyMiAwIFIgL1MvRGl2L1R5cGUvU3RydWN0RWxlbT4+DQplbmRvYmoNCjI0IDAgb2JqDQo8PC9JRChub2RlMDAwMDAwNDIpL0tbPDwvTUNJRCAzL1BnIDIgMCBSIC9UeXBlL01DUj4+PDwvTUNJRCA0L1BnIDIgMCBSIC9UeXBlL01DUj4+XS9QIDIzIDAgUiAvUy9Ob25TdHJ1Y3QvVHlwZS9TdHJ1Y3RFbGVtPj4NCmVuZG9iag0KMjUgMCBvYmoNCjw8L0lEKG5vZGUwMDAwMDA0NSkvS1sgMjYgMCBSIF0vUCAxMiAwIFIgL1MvTm9uU3RydWN0L1R5cGUvU3RydWN0RWxlbT4+DQplbmRvYmoNCjI2IDAgb2JqDQo8PC9JRChub2RlMDAwMDAwNDkpL0tbIDI3IDAgUiBdL1AgMjUgMCBSIC9TL0Rpdi9UeXBlL1N0cnVjdEVsZW0+Pg0KZW5kb2JqDQoyNyAwIG9iag0KPDwvSUQobm9kZTAwMDAwMDUwKS9LWyAyOCAwIFIgXS9QIDI2IDAgUiAvUy9EaXYvVHlwZS9TdHJ1Y3RFbGVtPj4NCmVuZG9iag0KMjggMCBvYmoNCjw8L0lEKG5vZGUwMDAwMDA1MSkvS1s8PC9NQ0lEIDUvUGcgMiAwIFIgL1R5cGUvTUNSPj48PC9NQ0lEIDYvUGcgMiAwIFIgL1R5cGUvTUNSPj5dL1AgMjcgMCBSIC9TL05vblN0cnVjdC9UeXBlL1N0cnVjdEVsZW0+Pg0KZW5kb2JqDQoyOSAwIG9iag0KPDwvSUQobm9kZTAwMDAwMDU0KS9LWyAzMCAwIFIgXS9QIDEyIDAgUiAvUy9Ob25TdHJ1Y3QvVHlwZS9TdHJ1Y3RFbGVtPj4NCmVuZG9iag0KMzAgMCBvYmoNCjw8L0lEKG5vZGUwMDAwMDA1OCkvS1sgMzEgMCBSIF0vUCAyOSAwIFIgL1MvRGl2L1R5cGUvU3RydWN0RWxlbT4+DQplbmRvYmoNCjMxIDAgb2JqDQo8PC9JRChub2RlMDAwMDAwNTkpL0tbIDMyIDAgUiBdL1AgMzAgMCBSIC9TL0Rpdi9UeXBlL1N0cnVjdEVsZW0+Pg0KZW5kb2JqDQozMiAwIG9iag0KPDwvSUQobm9kZTAwMDAwMDYwKS9LWzw8L01DSUQgNy9QZyAyIDAgUiAvVHlwZS9NQ1I+Pjw8L01DSUQgOC9QZyAyIDAgUiAvVHlwZS9NQ1I+Pl0vUCAzMSAwIFIgL1MvTm9uU3RydWN0L1R5cGUvU3RydWN0RWxlbT4+DQplbmRvYmoNCjMzIDAgb2JqDQo8PC9JRChub2RlMDAwMDAwNjMpL0tbIDM0IDAgUiBdL1AgMTIgMCBSIC9TL05vblN0cnVjdC9UeXBlL1N0cnVjdEVsZW0+Pg0KZW5kb2JqDQozNCAwIG9iag0KPDwvSUQobm9kZTAwMDAwMDY3KS9LWyAzNSAwIFIgXS9QIDMzIDAgUiAvUy9EaXYvVHlwZS9TdHJ1Y3RFbGVtPj4NCmVuZG9iag0KMzUgMCBvYmoNCjw8L0lEKG5vZGUwMDAwMDA2OCkvS1sgMzYgMCBSIF0vUCAzNCAwIFIgL1MvRGl2L1R5cGUvU3RydWN0RWxlbT4+DQplbmRvYmoNCjM2IDAgb2JqDQo8PC9JRChub2RlMDAwMDAwNjkpL0tbPDwvTUNJRCA5L1BnIDIgMCBSIC9UeXBlL01DUj4+XS9QIDM1IDAgUiAvUy9Ob25TdHJ1Y3QvVHlwZS9TdHJ1Y3RFbGVtPj4NCmVuZG9iag0KMzcgMCBvYmoNCjw8L0lEKG5vZGUwMDAwMDA3MykvS1sgMzggMCBSIF0vUCAxMiAwIFIgL1MvTm9uU3RydWN0L1R5cGUvU3RydWN0RWxlbT4+DQplbmRvYmoNCjM4IDAgb2JqDQo8PC9JRChub2RlMDAwMDAwNzcpL0tbIDM5IDAgUiBdL1AgMzcgMCBSIC9TL0Rpdi9UeXBlL1N0cnVjdEVsZW0+Pg0KZW5kb2JqDQozOSAwIG9iag0KPDwvSUQobm9kZTAwMDAwMDc4KS9LWyA0MCAwIFIgXS9QIDM4IDAgUiAvUy9EaXYvVHlwZS9TdHJ1Y3RFbGVtPj4NCmVuZG9iag0KNDAgMCBvYmoNCjw8L0lEKG5vZGUwMDAwMDA3OSkvS1s8PC9NQ0lEIDEwL1BnIDIgMCBSIC9UeXBlL01DUj4+XS9QIDM5IDAgUiAvUy9Ob25TdHJ1Y3QvVHlwZS9TdHJ1Y3RFbGVtPj4NCmVuZG9iag0KNDEgMCBvYmoNCjw8L0lEKG5vZGUwMDAwMDEwNCkvS1sgNDIgMCBSIF0vUCAxMiAwIFIgL1MvTm9uU3RydWN0L1R5cGUvU3RydWN0RWxlbT4+DQplbmRvYmoNCjQyIDAgb2JqDQo8PC9JRChub2RlMDAwMDAxMDgpL0tbIDQzIDAgUiBdL1AgNDEgMCBSIC9TL0Rpdi9UeXBlL1N0cnVjdEVsZW0+Pg0KZW5kb2JqDQo0MyAwIG9iag0KPDwvSUQobm9kZTAwMDAwMTA5KS9LWyA0NCAwIFIgXS9QIDQyIDAgUiAvUy9EaXYvVHlwZS9TdHJ1Y3RFbGVtPj4NCmVuZG9iag0KNDQgMCBvYmoNCjw8L0lEKG5vZGUwMDAwMDExMCkvS1s8PC9NQ0lEIDExL1BnIDIgMCBSIC9UeXBlL01DUj4+XS9QIDQzIDAgUiAvUy9Ob25TdHJ1Y3QvVHlwZS9TdHJ1Y3RFbGVtPj4NCmVuZG9iag0KNDUgMCBvYmoNCjw8L0lEKG5vZGUwMDAwMDEzOSkvS1sgNDYgMCBSIF0vUCAxMiAwIFIgL1MvTm9uU3RydWN0L1R5cGUvU3RydWN0RWxlbT4+DQplbmRvYmoNCjQ2IDAgb2JqDQo8PC9JRChub2RlMDAwMDAxNDMpL0tbIDQ3IDAgUiBdL1AgNDUgMCBSIC9TL0Rpdi9UeXBlL1N0cnVjdEVsZW0+Pg0KZW5kb2JqDQo0NyAwIG9iag0KPDwvSUQobm9kZTAwMDAwMTQ0KS9LWyA0OCAwIFIgXS9QIDQ2IDAgUiAvUy9EaXYvVHlwZS9TdHJ1Y3RFbGVtPj4NCmVuZG9iag0KNDggMCBvYmoNCjw8L0lEKG5vZGUwMDAwMDE0NSkvS1s8PC9NQ0lEIDEyL1BnIDIgMCBSIC9UeXBlL01DUj4+XS9QIDQ3IDAgUiAvUy9Ob25TdHJ1Y3QvVHlwZS9TdHJ1Y3RFbGVtPj4NCmVuZG9iag0KNDkgMCBvYmoNClsgMTYgMCBSICAyMCAwIFIgIDIwIDAgUiAgMjQgMCBSICAyNCAwIFIgIDI4IDAgUiAgMjggMCBSICAzMiAwIFIgIDMyIDAgUiAgMzYgMCBSICA0MCAwIFIgIDQ0IDAgUiAgNDggMCBSIF0NCmVuZG9iag0KNTAgMCBvYmoNCjw8L051bXNbIDAgNDkgMCBSIF0vVHlwZS9QYXJlbnRUcmVlPj4NCmVuZG9iag0KNTEgMCBvYmoNCjw8L0xpbWl0c1sobm9kZTAwMDAwMDAzKShub2RlMDAwMDAxNDUpXS9OYW1lc1sobm9kZTAwMDAwMDAzKSAxMCAwIFIgKG5vZGUwMDAwMDAwNykgMTEgMCBSIChub2RlMDAwMDAwMDgpIDEyIDAgUiAobm9kZTAwMDAwMDE4KSAxMyAwIFIgKG5vZGUwMDAwMDAyMikgMTQgMCBSIChub2RlMDAwMDAwMjMpIDE1IDAgUiAobm9kZTAwMDAwMDI0KSAxNiAwIFIgKG5vZGUwMDAwMDAyNykgMTcgMCBSIChub2RlMDAwMDAwMzEpIDE4IDAgUiAobm9kZTAwMDAwMDMyKSAxOSAwIFIgKG5vZGUwMDAwMDAzMykgMjAgMCBSIChub2RlMDAwMDAwMzYpIDIxIDAgUiAobm9kZTAwMDAwMDQwKSAyMiAwIFIgKG5vZGUwMDAwMDA0MSkgMjMgMCBSIChub2RlMDAwMDAwNDIpIDI0IDAgUiAobm9kZTAwMDAwMDQ1KSAyNSAwIFIgKG5vZGUwMDAwMDA0OSkgMjYgMCBSIChub2RlMDAwMDAwNTApIDI3IDAgUiAobm9kZTAwMDAwMDUxKSAyOCAwIFIgKG5vZGUwMDAwMDA1NCkgMjkgMCBSIChub2RlMDAwMDAwNTgpIDMwIDAgUiAobm9kZTAwMDAwMDU5KSAzMSAwIFIgKG5vZGUwMDAwMDA2MCkgMzIgMCBSIChub2RlMDAwMDAwNjMpIDMzIDAgUiAobm9kZTAwMDAwMDY3KSAzNCAwIFIgKG5vZGUwMDAwMDA2OCkgMzUgMCBSIChub2RlMDAwMDAwNjkpIDM2IDAgUiAobm9kZTAwMDAwMDczKSAzNyAwIFIgKG5vZGUwMDAwMDA3NykgMzggMCBSIChub2RlMDAwMDAwNzgpIDM5IDAgUiAobm9kZTAwMDAwMDc5KSA0MCAwIFIgKG5vZGUwMDAwMDEwNCkgNDEgMCBSIChub2RlMDAwMDAxMDgpIDQyIDAgUiAobm9kZTAwMDAwMTA5KSA0MyAwIFIgKG5vZGUwMDAwMDExMCkgNDQgMCBSIChub2RlMDAwMDAxMzkpIDQ1IDAgUiAobm9kZTAwMDAwMTQzKSA0NiAwIFIgKG5vZGUwMDAwMDE0NCkgNDcgMCBSIChub2RlMDAwMDAxNDUpIDQ4IDAgUiBdPj4NCmVuZG9iag0KNTIgMCBvYmoNCjw8L0tpZHNbIDUxIDAgUiBdPj4NCmVuZG9iag0KNTMgMCBvYmoNCjw8L0Fjcm9Gb3JtIDYxIDAgUiAvTGFuZyhlbi1VUykvTWFya0luZm88PC9NYXJrZWQgdHJ1ZS9UeXBlL01hcmtJbmZvPj4vUGFnZXMgOCAwIFIgL1N0cnVjdFRyZWVSb290IDkgMCBSIC9UeXBlL0NhdGFsb2cvVmlld2VyUHJlZmVyZW5jZXM8PC9EaXNwbGF5RG9jVGl0bGUgdHJ1ZS9UeXBlL1ZpZXdlclByZWZlcmVuY2VzPj4+Pg0KZW5kb2JqDQo1NCAwIG9iag0KPDwvRmlsdGVyL0ZsYXRlRGVjb2RlL0xlbmd0aCAyMDM5OS9MZW5ndGgxIDM1MDM2Pj5zdHJlYW0NCnic7L0JeJTV2T/8O+fZZp9nJrMlM8k8k8kMkElISAIhEMkECKiRHWKCRBIgCohCCOBSl1iraNzQ11q3utRqXWqdhIhDtIWq1boVtBR3QUVFK5UqorLk+TxnZsJQ7Wu/6/uu/3e93/U+kznnPufcz1nv87vvswyAAFAJIAIz5pRVrPj4D8MBkgTQ1jR5WvPMG5d/BZT5AMdNi89uXyXcS18HqA/AhYvXrdEe2bLrOkDZCsjnnLHqzLPH3ueJAd6xgDlxZnvXKuQiBBALK+XMFeefsWD0YwNA/LfAieVLl5x9XuDOs24FbOWA0bC0o33J3xubXgJIN4AxS5d2tDsrjVGALABQtPTsNeetb7cQQJgJkDUrVi5uv27cfQmA3gTgybPbz1slzzE+CpAAAO2c9rM7xh+avxUQnwHooVUru9boxbgZILUsfdXqjlX39O39FCjcC1jKQCDAABMckHQddrC+aaWPoRYvQAGFijiuACSv9BkkUAjgjz6M5fkDDwGUCYPTMUnFoUcPXaDymOOeVh6jAN4/3f7KQnvtVwa/gSf86oNhxczf+bM9nx169OiZKgyzABiHchCEK8kGSDBIt0mVAPGnfOEVnEGdBomaZZGyR2S82UXOnTZJQxwa7pb+OjiLVCoTSF8cRNd1QIxKT7CegRsATb/pgsBLdUHEUgAeqBAgQ0M9JmM65mEZVmEdzsfdLA8ePwnTMAftOAurU/H6B9/7LP5ebxx7xvy/8yF3kDvomUL8Xz+SWS7MfAxWw8PGc374Y55t6bF+bNfUdkeV86qc612/cf3G0+j15Yp5fv+UQHugPV8IzteqQ+MKL2efIp+c1Sha82/b93/skZr0o9x/DmdIz+HOH+OXH8It0nO44/v5YIH4Acql53DP/53yxS6cLHbhChGYKXZhitiFRlqDHLELE8UurCfP4UrOB1xJnsNl8kNYz+LFLkxmPkujD+FyEaijNSgSu3CZCOQN5Q+GL1Awn0mpaARoAX6apglMOC9NU9iwPE0LmIxomhazeCT4YEvTMmwA6rEay9COFZiGuWhCB1ajC8uwEudAQzVGohzlmMbDK7EG52MVOjAu6z0Ns9GBM7EWK9CO1dAwHNOwDIuxGivRhZU4A2sw4l+4jr3/IDRUoByjUA0Nc7EUHdC+V6KGSViJ1VjF3XasSddxJJ+NK9L1WIYzsRRr0JWuVRdvzzp0YAnntMLEvyeiA4uwGh04Fxpm8BLOwdyhsk5BO87HSqzFGmhYgZU4k7dIw2KsxCqcz2ufKksbakE5KqEhOhSqRgmvB2vlKiyFhhPRjnN4HotxVpr3ZKzEUt7bJ2ItlvAeS7WL9cUy3pYV/7Y+Z/D+0DARy7AIK3hsalSOb2Mqn5Xplmq8lLVYjcW8vZlROpePDYtZi3OwhPeehjVDY3IS5vLeWcbfO4f373j+fgfn6MDZWMR7ewl3tXSNMrwaj+/issEwdc2QpGXawdLXoB3LsAJdGAlIA8iVBpAn/Qa5YhQ+QP8Y0Pcyf3CZvpelM59+CiCZ/gIP4BGyDI9gC54i++HDo9iMfvwZXkzGHbgQN2E9ZMzHn3EVZmM2JEzGTSRX70cZ7oGAe/AyvDgVF2MAHuLTP8EluFz4K9bjclhRiHrMxEpcS07R12IBdomXoRqn4BysIt16s36dfqP+a9yHzcKf9aMwIw+LsRgv6/+QXtffRikW4Oe4FbvIjcbHEMep6MZm4ZdYjduEVpHoZ+qHvqtBCOfiZYiYhpfJVhrDKd/Nn4+Jj1woTJJe1+/VE/ozEBBAK5biNgyQ0WQqDUkL9Gn6y/CgFOehG7eiD5uwCUn8Hm8Si7Rf/7W+H7kowUm4BP34C9kqDB69dLCOASB8GIEanISV+AOew3YSJn+kKyWLVCHFpQv0HXBhFObhVPwG/fiIfE0vphfTS4RnxSn6RNhwOW5gvY0/4T2SR8rIDNJER9CV9E5hNQwowSiMwhIsw1W4Bc/hXRIjm6iFbhPuFR8WD8v5g7t1G2REcTt+iT8SK/ERjXSRn5Kd5AM6iS6kt9P3hZvEB8VXlXYEcDrOxrV4GF8TJxlLZpHTyFJyIVlPbiC3kpfJdrKX1tO59Cz6ubBU6BR+L04UJ4pzxC7xMukK6Wp572Dz4DODrwx+rVfoV2AWLsSluAE/x53ox2Zswxt4A7vwPpGImdiIjWgkROaRn5CfkIvJteRX5AHyIOkn28l28j75hHxBviKHKSioTP00RAtpIQ3T1fRcehO9g26j2+h2+hn9VvAKhUJMGC3UCi3CSqFTWC9sEDYIjwnviXniNlGXKqQK6WbpLukB6WHpKWm/bFF+aoDhpSP3Hi0++u4gBq8cvHmwb7Bffw9u5CIPAQRRi1loRzuW4zzcjPvwKP5KLMRH8kgxmUBOIbPIQrKcdJLzyE/Jz8ht5D5e99+RJ8nL5DXyOQW10gCv80g6mk6kM+gMejrtoJ10A72R9tOd9JCgCGbBLriFYmGq0Cp0CGuE84WbhYTwkvCO8L5wUDgiHBF00SQGxUIxKsbEqeJCca14p/ix+LG0QHpR+lA2yWfLV8hJ+Z/KGGWCMlOZpbQq1yublB2GNmzC03gMj2frVLJbuFRoEB7DdbRSzKV/oX9BKRZiiTCN1gH0AXIlvYj00yLpPHk8HU+mY78YpTfRZ+ld9CAdL0wjjWQOltNRaY3vEh/6znquFZ/GPvFJ2kH/IjyG82QLuZh+LlvQR7gdQ/4klIsx4UW8KewiingP3hJNxEv20d8IM4mZ/F6cIDUjJNyB3wmd5CI8RhsA02HDNSRGppOHsB5zSQX5RtAh0OnoR7XwAS7DWfR17MO5uBK/IEvEM3EdKsmF+Bj30zuFEdI5crHsJs/TZWIPzSH9oOKDzKYiRUSQXPgZaRVukz+nb2AttokmvCv8VnySbqO/E6aJ+6XZZCnOxkW4Ap36pThfahZfJWdCIE2IiLtxEy4UKsQQbsIlWI0FKMMm+DCAJOqFaVgNH4I4hSwn83ArbsNtuAV9EHEelsGFU3EO/oJ+eS5N4kzJRjrwMSC+ODgb8/X7cat+Js7Rb0SpvgPr9QuRxAP4ENfjAXL54E+wCgV4A++SU6QpdJs0RS+lPfQNOofefPz4AiRCfPgUn+J3ACZIT6BHfA1zUKdfo/8NbgxHIW7FIpyMPTgb/8CHOFHYisrB6bRXnyKswvnSLszSf6MHiQlL9RWYgSdxnyKhXYlhn5ggr2ITfoIOOltfI3QMLsNNuB4L+NpmLa7CVWKneJn4La7BDbgZt+Nu3IeH8Cif++xha782s8HwL+uKH3oMUJQhmlOKrGSly+wRZZlCogZZliHKgiwDMixm43+QvwKjMUOnKINizE5XZEURFEWALJgVRYGoCIrEwNxqNnHj8b9/jFn5mzll/Jf8lXT+SiZ/keWvwG41/0f5m81D+ZuYazKastIN7BENBpa/1WAwQDKIrB8VqFbLf5C/GRZLhraaU60wZ6UbjQajUTQaRBgEq8FoPJa/w2pl3fT/OH+j0SgZjTx/o9EI2SAaFdbuHNX2H+Rvhc2Woe1WHmOxZqWbzCazWTabRBhF1WQ2QzZJJiPL3+1QmRj9aP52e4Z28JJsFltWusVsNltks1mCSVTNFjMUs8xGzAyfy8nX7f/9Y4fDkaFzOKXaHFnpVpvFZlVsNgkW2WWz2mCwKDYzYIHf62LT50ceJ1yuDO3N4TFqTnb5dpvdrtjtMmyyx263w2gzsH60IT/X8x/knwO3eyh/TuXkuLPSVdWuqgZVVWBTclVVhcluUK2sXzW/jw3DjzxueL0Z2s8pd443K93hUB0Ok8OpQFX8TocDZtXotLN+Dflz/4P8PfD5hvLnlMfty0p3OB1Oh8mZyd8JsyOdfyQYAEw/mGnWkwu/P0MHOZXr9Welu9w5bpfJ7VaQowTdbjcsTpPbAThQXKSxYf6RJ4CCggwd5lQgryAr3et1e71Wr9cEt6nI6/XC5rKwHnVjZDTMhuFHniBCoQwd4VQwEMpKz8vz5uXZ8vJM8JqieXl5sHuteV7Ai4oRUcD2g5lmPSEUFWXoEZwKBYuy0gOB3EDAFghYkGsZHggE4Mi1BXJZv44pHcGG4UeeIgwblqFLOVUUGpaVXlDgLyiwF+Rb4beW5hcUwOm35/sBP8aNKgHUH8t/GIqLM3QZp4YVFWela1q+pqmaZkWBdZSmacjJV7V8lv+kmgo2fX7kKUV5eYau5lTpiPKs9EikMBLJiUTsKLTXRCIReApz2DiF0Fg3FnD/YKZZTwXGjMnQJ3CqonRMVnpxcbS42F1c7EDUUVdcXIzcqLs4AkQwZ+oENsw/8lSjtjZDN3Cquqo2K33kyOKRI30jRzoRc04dOXIkAsXekSNYvy6Y1pC1i/PvnhMwcWKGbuTUCTUTs9IrK0dWVvqrKl0oc02rrKxEcGReZSnr1yVzG9n0+ZFnEk48MUPP4dSkCSdmpY8dWzF2bH71WA8qPHPHjh2LUEVg7ChgFOKnXb6ma3XnqpXnnL3irOXLlp55Rsei1uZTm+bNnTG9Pl434YTa8eNqxlaPrqqsGFVeNrK0JFY8YviwaKQoXBjSggX5AX9ers/rcbtynA7VbrNazCajQZElUaAEJQ3hKW1aItqWEKPhE08sZeFwu5aItmdFtCW0di0x5XiehNbG2bTjOePtWuKMf+GMpzjjQ5xE1WpRW1qiNYS1xMuTw1qSzJ/VHNYS104Ot2iJfZyexukNnLZODreEQqUlmtbgWzpZS5A2rSExZd3Snoa2yaUlpNdsmhSe1GEqLUGvyTwpPMlcWoKEN7yql3gnEE5Qb8O4XgqDtbSkIZEXntyQyA1PZjVICJGG9iWJmbOaGyb7Q6GW0pIEmbQ4vCiB8MSEPcZZMIkXk5AnJRRejLaMtQZXa70lW3uuSapY1BazLAkvaV/QnBDaW1gZjljCG56c8F6wx3csWFqScE5qXp+d6hd6GnzLNBbs6VmvJe6e1ZydGmJuS4uvtKS0JEEjU9p6piTi7decWFrSOEdb0Jygl7c0J8jlLaUlGmsJa1WqfR3hBhbTtlxLGMMTw0t7lre1a4m8ngRmnx/qy8uLb9Z3I69B65nbHA4l6vzhlvbJgV4XemafvzE3ruUen1Ja0qs6Uh3ba7OnCYs1m+gYSuMUZ2dU4+yhniWsRuGTEvG2hLZYS2B2czhBI2OZ0zEWPYvH+kPsaSGlJY2JJbOaG5YljJPaetRxLJ69n5Aialjr+QoJ0hbe99nxMe3pGDmifgVGMjkZErUEac/QiVgsUVzMRESZlJBZCybw8OjSknVJGg6vUrUkZd2Hmc0J0t4yrsxXWhIKsQG+OhnHotKSUKJ7VnMqrGGRvw/xslhLgraxlK2ZFPc8ltKdSRl6vS0cKi3p57v37oQhOvRnVz05DUvHJYjnv0nuSKU3zgk3zprfrDX0tKX7tnHucaFU+tihtDSVyJnULPhpmqJ+gacmnJMWDDGzQLMlIUYSYkTmQr0kqRhmNadiiDYlobadmHJbTKHQf/hSUt/P3uLesdfS1UyMix0fHn9c+LjqWXqExrkJMUob587v6TEdl9Y4O13gSWmvXUtgbnNIm5TAvOaEEEkIkaS+dSz7tvgT8bnNLGVu83dCmIpKB49j9KfplpaWFiadpSVTwlPaenqmhLUpPW097Um9e1FYU8M9m+lT9KmeVQ1tGcFJ6gNX+xNTrmlJqG1LybjSkjBL6elZ0gshMrc5Eff3Ek5UT7q6JTEj1hJOLIqFQ+HmjpbSkt5xsITmtk0qLemlmNgbJlfO6o2TK+fMb96sAtqVc5v7KKGT2ia29BaRK2c1b9aAOI+lLJZFsoDGAmgkjbOb+6iB8/s3x4FuniryCB5enCTgcYZMHMHiJE3FqamCorygOCgWJ8VUSjzDLWJx0pCK605xD09zG7A4qbKUAVAC8MTU0ws6aW5z3FQdHxcfH59A66i/l7Covur4uAECjCfYOIHUEX9vN500m0cnSXfv+Lh/M89pdpqzG+MJi+seiktSMLasjFpaUg29ct6xFsyb37xxAuqIn7stLS0T2cOQdtLc5uw5xIGJyfmpsWYL7WmckxCjLNE01m/KStbYiwkSTiwMnxdirUs0hc8PJeikcELTFjSHQqFeTA209PRoPVpPOKlicVNzymVJpCTQ4g+1JLoXZXj9gZZwVtASaOnhcrUxwDBkqLSfZEpbHT6fEz2Z4hKLf7C0hBhNkNOYy/949XvHIJwqX4ymC+1Z0DM/HAqHEvms4HQ9wqGELdDCc2hP6rfwmhCunBYntLYz2FzSGMgtKi0Jn9xLp8e4T7jfc3K4YUmCRti3fUli9KTZzSFtSQvjCrNJwwT/3zKRLCamSHjmPer4TIikQ6np25M48/jg0qHgFPZtS4iRkSmYSIhRPmVDieX+xIqW2BBLO2tzj6aGx7EJPo6/PJV92xJSZGqie3F7gkYScuSkxeGEFDk50b1Ya16U6kGmqHuY5bS4vbSE93K6pMQ5seOyDGsJMrc5lKAR1pxE90ytrUVra9MSZFZzKOTXEtKs5pB2RnsiHm5nuDEz1Z6Z85tZq9t75jSHEmDD5k8oc5u1M9o7wgxcE0zeU73P6ih+VzvMaU7A39MT7kmQloQYmaKd0a4lpGhCjp7EPCmaWBULt3cwy+4MZth1pEwOrSfVOyw3f0M41NLekaAR3pdiVEtSLGLO4h5mN7a2xRJSxNHj7NFqepoH0Kqyo/7FTW2xcEhTtSkaH+p2fzjEOuEkFmoZX1qSYjRGGGNCivC/aOLsWG+rEjkWw/9WxlLMBp4rNyISMzMsCv+TIonOWIJ6xyYwmzWezJ7P9YIcOYl1nhQ5qU1LxGc3h/zsbS1B56bVRur9k9ir/syApV6jXo7/XAGESkt6I+TKmdlIuCDhbJx9mj9BWkp7515ebxZK2IcWIh9BISYUoxZBobhPzg8mheEbo77g9ieFEdgtjAAVRvTF8oObhWFCft/4YDwphDc63RX2+lJBA0EZdzVBw0pBw6OChi2CBhELhQIQqEIBLhEK0C0U4FGhAFuEAmwXCth2lFDAUzWhACuFAtwlFGA3SxHyhUCfFlTrhwm5uETIBYVd8OJzwQtd8EJAUPCiTPBihuDFQsGL6wUv7hK8kDkfi1n5He8lghdbBC/285S44O27sTKeFLx9V3Nv4/IVFTzYngouaOXBjae2pPxps1L+5JNSbONSbKOqUtEjJ6b8YSUp3xmp6Ga+yVqxtd4jeLBd8IBileABoc/ATgiCuFtwIyG4QQU5HRMXnBuLohV3bRFEEIEKBEsQ1LcKpM/qqKg3UZ1+DieC9B90XyqF7ttoc1TcVX8yfR+P0vexhb4Pgb5P36fv0fdwCd3N+pzuRh3djbu+87fQ3dhGd+Nzuhsy3U130110F32Xvgs7fQdl9B3U0XewkL6Du76jt9B38Dl9Bwp9h74Dlb7NjDzuMrqOvg1K36ZvQ6VvgdC36Fuw0zdB6Jv0TX0r/WtfdU3FZk7EytJEMJImvP404fRUJOmrfd+OCG4WokKASdQTQiEmoFIo7IuMCiYFX1/tsmCSfrBRiwXvri+nO5CgO9gVHLoDKt0Bje7ATLoDbXQHVtEdkNFGd2IV3YluuhMb6E7cTXciQXcyKfsuRv0uRqMvQKMvQfsupZzuRJzuxEy6Ewa6vU+LBZN0W190YrDeQ/9Cn4MXQfoy/TP3X6LPcv9F+ifuP0//hAIE6Qv02b6CIOrN9FmAPgeVPguVPocy+idI9I8bi5xBvd5Bt4AgSLegjG5BHd2CGXQLFtItuJ5ugUy30MK+JUFnvZk+gRcMQJD24RPu349fGRBfHoxHJ51UEdeYEx13QkVcG3dCxV3aXVEaj958a0VcY070uhsr4hpzoj+7piKuMSd6waUVcY050RXrKuIac6JLllfENeZE5y+siGvMic6YWxHXZsytSNI7Hy8aFqyecRbR6u30XJTTcxGn52ImPRciPZd98K3I6nZ7X3FxMElvi8dGFAe7B0j3k6R7Nun+FenuIN0Xk+5LSXct6T6ddMdId4B0F5DuOOl+goz9Tpi6Sbz/uGBN3Ee6XyDdj5DuLtIdJd0R0l1EujVSHU/SUN9Jldxr4N7GejbpaGjjCRMq7PV2GkIdDeESGoKALTSEbd+FdB6K09BGrTDFnFvA/MKNxXWp8MhxFSvrT6ZP4xL6NK6nT2MXfRoiyujTaKNPYxt9GgLs9GnUfZe2kD6NrfRpfP4dv06fhoxdtBAE13PXTgtRRgtRRwuxkBbiElqIz2khZF6dz2kIFCvTVXyUV4xVuixd8Rk0BJE+TZ/mp8AhGornqwE1pp4oXB8g9gIyo0AvoNXweNhWtsPgSBLrpq+t33xthbHeSK+j1zPophvS/vV93+YHk+SWvugTwXo3+QUKRIIgqUGURBAkY9HFw6MRMDC/CgH6MIKkoi/QFEwSe1+0JDhAbOytTcFvA3uCnwSSlGwK7g08EXxNS4qkL/i3QJI+vCm4I3BV8PmypIH0BZ+MJgnpCw5onHVzYGzwkRc466XRJLmtL3gx8zYFLwpMDZ4V4AkdqYTTu5IiiduDs6PzgycGrgpODiwKxruSBrIpWBc4PVib4hrN3tkULA88EYylyOJAU3BEgBcaLkiKpD84et686iRZGi9RblaalRnKGKVCKVFCSlDJV/yKy+A0qAabwWIwGQwG2SAaqAEGV1LfHY+xC4gumd9DlEXmipxWKXNp6sYiJQaKk5HIERpp45yJpDGxdTEaF2mJg3PCSWKaNT8hhSeShLMRjXMnJsbGGpOKPjtRHWtMKDNPa+4l5LqWxNhYgl6ZJJjbnCQ6i7rcz7ZYNoMQx+XX+pk//PJrW1rg86yr89U5Jzhqpkz+Aact7caOPb7j6PyJiZsb5zT3jX7oofyJLYkKTut6/sSWxsR/sa2YzeQLsr9h8mbyT+a1NG8WJpAvGmazeGHC5JaWxiRp4nzQyD8bJm9GlHktzZsNBdAYHzRDQYrvthRfhHzB+IqY19K82WhEhPNFjEbOJxLG19tV1DC5t6iI83g1dHGeLq+WzfNCpGFybyTCeTzdeIHzvODpZjyJCZwlEGiY3FsQ4CwkDwHOEiB5nKXpGEtZmuWqIZareEkCOcYTSPFYd2d4rLsnt7TE/tOnY2IsRjaOb1m8gG1jtYUbOtrCDW2Jq9ct9TGLXOtd3JLe34q2LVq8lPntHYmWcMfkxOLwZK13/IIfSF7AkseHJ/diQcPc5t4F8Y7JfePj4xvC7ZNbNk6dWVV9XFlXDZVVNfMHMpvJMqtiZU2t/oHkapY8lZVVzcqqZmVNjU/lZYGL+szmXgMmtkxakPI3UrPJOam5zR9qmehRV03gMjw+5LvYPyCCPABzrCVhCU9MWMMTeVJpfWk9SxLBk2xsrzKd5Lt4fMg/QB5IJ6nhiQlHeCJia9Z2rYWvYdnk1F9XV1fXmrVda9ayDk+5sa5/98RisYZEvH1y1xqgMVE8pzFRN2t+c6+iNCTibaxJiXGZOLO5IalvTUWOnNOYGMciBWGIkcXVsjijMc34/fFfm/YnsVnQTZ/YSOIFZA26WoREQeNcmnA2zk1vCg3gLq4ruloQW9NFYqQrk0e62rEYUmGwNme+a9amqXRfrEn7qTdjiHVlumToYZ0VG+qxNTxb3p2xBc31NmGMUIZ6BIVyoQylCAqlQhkqEBQqhLK4MxoUaHXQaKgOmk2Tg4o8OZjJtSUGfvdZIOyRBIFQQuCTPjNvxTcGHQYY9EF2OUA/ChNM/A6bWT8KCyz6UVhh1Y/Cxl07bPpRqLDrR+GAXT8CJxz6EeTAqR+BCzn6EbiRox+GBy79MLxw64fhg1s/hFx49cPIQ65+CH7k6YcQ4G4+/PohFCCgf4sgdzXk698ihKD+LQqh6d8iDE3/BkUI6d8ggkL9G0RRqH+NYQjrX2M4ivSvMQJR/WsUczeGYfpBlGC4fhCl3B2JYv0gyhDTD6IcpfpBjEKp/hUqMFL/CpUo079CFcr1AxjN3TEYpR9ANSr1AxiLKv1L1HB3HEbrX2I8d2sxRv8SJ6Ba/xITMFb/EnWo0b9AHOP0L1CP8foXmIha/QtMQq3+T0zGCfo/0YAJ+j8xBXX6fkxFXN+PE1Gv78dJmKjvx8ncbcQkfT9OwWR9P6Zhiv45pnN3Bqbqn2MmTtQ/xyycpP8Ds7k7Byfr/8BcNOr7MA/T9H1o4u6pmK7vQzNm6J+hBTP1zzAfM/V9OA2z9M+wAHP0z9CKufpnOJ27CzFP/zva0KT/He04Vf87FuFU/VMsRov+KZZgvv4pOnCa/inOwAL9E5zJ3aVo1T/BMpyu78VytOmf4CzurkC7/gm7I6rvZfdg9b3sJqy+F6uwRP8YnejQP8ZqnKl/jC7ursFS/SOsxTL9I6zDcv0jnIvl+oc4D2fpH+J8nK1/iAtwjv4hfsLdC7FS/xAXYZX+IS5Gp74Hl3C3G136HlyKNfoe/BRrdXY3a53+AX7G3ctxrv4+rsB5+vtYj/P193ElLtDfx1X4if4eenCh/h6uxkX6+7gGF+nv4VpcrL+H63CJ/h6ux6X6e9iAS/XduAE/1XfjRlym78Z/4Wf6LtzE3Z/jcn0XbsZ6fRd+gSv13bgFV+q7cCuu0nfhNvTo7+J2XK2/iztwjf4ufsndO3Gd/i7uwvX6u7gbG/R3cQ826O/gV7hBfwf34kb9Hfwa/6W/g/twk/427sfP9bfwG9ysv4UH8Av9LTzI3Ydwi/4WHsat+lv4LW7X38Ij3P0d7tDfwqP4pf4WErhTfwu9uFN/E324S38TG3G3/ib68Sv9DTyGe/XXsYm7j+PX+utI4j79dWzG/frrGODuE3hAfx1P4kH9NfweD+mv4Q/c3YKH9dewFb/VX8Mf8Yj+Gp7C7/TX8DQe1XfiGST0nfgTevW/4VnuPoc+/W/4MzbqO/A8+vUdeAGP6TvwIjbpO/ASHtd34GUk9R34CzbrO7CNu9sxoO/AK3hS34FX8Xv9r/grfq+/ih34g/4q/oYt+qvYia36K3iNu6/jKf0VvIGn9VfwJp7RX8Fb3H0bf9JfwTt4Vn8F7+I5fTt2cXc3nte34T28oG/D+3hR34YPuLsHL+nb8CFe1rfhI/xF34aPsV3/C/Zy9xO8ov8Fn+JV/WX8HX/VX8Zn3N2HHfrL+Ad26i/hc7ymv4T93P0nXtdfwhd4Q38JX+JN/SUc4O5XeFt/EQfxjv4ivsa7+ov4Bu/qL+Bb7NJfwCHs1l/AYbynv4Aj3D2KD/TnMYg9+vPQ8aH+/P9i+v8BTP/n/3BM//t/jOmf/BtM/+R7mL7332D6x9/D9I/+A0zfM4Tpq4/D9A/+DaZ/wDH9g+9h+vsc09/PwvT3Oaa/zzH9/SxMf+97mL6bY/pujum7/wdi+hv/H2H6jv/F9P/F9P9xmP4/3U7/n4vp/85O/19M/19M/2FM//P/DzCdXVSBxH42IEDBxH5K9shKkt4az4Ek7hFgUsQ9BLkGWdpDhSfpKBjJrWQkfDH1YO3R2unqgdppR2tRV3u0Vj1Se7R2VHnIEXJEQo4QgYgjmrD1SFzCYWjiVoCy301LLdIAFNhoT+LyWHN9Poj+DdMeJI4mmPQjQ7QxK17KosUM3d9kMFgsSUbIYppQDBbLH9KvHGKqibPJZvMf0u8eyERSSyaSHIuUTWZzKh9PmmC/V+CEWU4XYTKlCSlDGG2ZamRilFTM403EZlfpPJrUv+hPE9/0W60yIw7EWywWeZ7RwlyJu2VquXqmYamxTb1S2KA+Lz0rb1X3q2aD1EKa6Ex1qTmhfmn50vqlzShaRKtoE8wmoySKFqvNICuKxSiJBtmiECCpfxO3Wyx0HjTF4lIUCxUEFudmcYImWlyiaDEWSJKhQBbkJF0VN8Jg+SROCaUDxAxCzHGnRUOHIsyeKW4Td4nCBpGISULi5pmWrcoui7DBQiwsrNqVbQq9ROlWqPJf9p2v+WLqgdbO3AOtnQdaO3371H15ueq+ffDV1ebtq9tTq+6rVfetl0bGYhepz6wf6eM+cThrahw1NevVZ56xPfPMeinljyonjQnznMZEwaz5CTopEZ85v7lftAsGZUDfD+jfjB07dmwLWd3Z+t/tsft7DXJSGBW3rDAYQEQDDBZC4aurrKtzOGvKYuWjWsKkkoSFkJATEqLDZEWgla/Q5ncePnr7PW+Qf946pTBQKQ0cmkKeHJxM55ObN5977dUgOEP/WFon/RX5pIxJ8mOL6fJ8SpL63n6zWZ6HpL43vpBRGiqsi9kvj/O78bP8DbhNeli4z7pZ6Lc+Z92OPflf5jtsznxHfr5QLA93FAe04FRrk+tUd1PuUums/J84r3beJtxquy3wAPk1fcDxN1sOXMhTXWqeSJP6u33Da0hS3xrXhteodhDRn1NgEfwFolGN2k9GVCOE5AW9NC2XXltamr0mizVJ4nFTkzeqGYjBkgpamwwWVmdDbsHiBb7YdPVALNY6bV8sFpuuHmydtu/APtTtq9vn8NaMKiexWGtrJ1pjMbLaHzexf+/ErqoW0Z8UKvpXiEZLTlKo6FthEeCri9XFnDVllY6assryUS3EK4vhwiI6uspZVFkhepVoNFwoU7fL6amsGCP2P3XC4NMf7ht87fZHyaSn3iYl47dUPvVfD36w4OyPrrj3fUpHfX74j+ScVz8k83p3v1h6942/Gvz8hicGP+l5kv37GncC0nxpAHbkk+lsXOJOLUgmGQL5BZRQh1pgh8Fbr+qDQ3ji1b9ITX9OH4QFVhKPB1nHGEkwbrXSeUZNVek8o8lup/OMPh7D5i+fs8a8YL6a6VbVZLWmCAvv8bitSdUIv9jCckBSP9jPMuEEywdJ/VA/n6hJ/et+lh+fuyaGEWgtGL+AAW1Kjltrj8Zisdp0sJUNCsfdOg67k86PjxH8ikE2sN+biXKuL89HZbPJYrKaBNntcXlyPILsF7wh4rR5Q8RnCISIx+QIIRYjsVhxcXHxpaTV3ws1KVT2r4CB5CeFyr4VfKrE6tgsqXSEKrwer8fpdlEbDUdCFWOqx4wZXRUdFg2H7iTfPjz/4pY1XdMvuOHlywd7Sc0N941qmPaLFdMfGXxJGnDnn7JocNszvxkcfLC94pExoxo+uf+jr4sL2OnoLYBslwagCjPZeG00FJtTfUiLzdbNbFh6KbuluBkG/WDczDrLYLM6OJj+o58RUlL/R3w4oyxOlizZLYIRhBqMZhsMRmoyy6z3zSrrcXNSP7SJcZlVJPWP+tPj8k1mXI6kxqUsFou9zB3U1W3dqm7fvtXh9NbEYlzwY/D3yvxKZ1DR2ISRuStwV+SuxF1DUv8iHmYU5RNLkNkYU9sx5DdxV8koBgMb/iCjohKxaCZnlZ07kkUAsZlhMBBqYg1nuXGCZ/IEbYITKm2KW8ELgpwRJp4tCGvLgbIDXGjqamtTjWlNtSbr+MgfvwTUbnBRv0FcZ7nC8meLYLScZDnJLowQI9YSW7NwmrjOep5tvdVgppKhxjrGNoM2CpOVuGGadaLNdAu9VbhZudnwgPAbRXZSu81WLlGXJFGDxWotlwwuSTJYZttnkzih1GAwmsxmq9VmU9k4tTm7ndQ5QB+AlYzqkzRDkox6zGI0ZZRyWvPGjU0mLW65xEzMA7QJNmLukzSaJOY+O0G9ST84NJ3Bp7OFKWJo9lUqUZO06XFNapO6JUFK0gc2Osa3+GK56oHWA621vqNsenF9daC1Ni8ruKcVvrq62lo165On7uN6bP1FXI2tv+iZUeUYUlfNv4dFPwyDvhNU38nVVGPCMqcxMfyYKtsMq/5Nr83EEvkBoFXfsSlUYysJ1ViT+o5N1TW2impOPlZaYysprUmfpK3ubEVnK2ltaQEbL6vZAIPELidQe1qxsU9dasYSj3dMNQk5wg4SJo5bSBE5rdyTO5osJNITg02PDjZLA4e/uOHEmbcLRw5NEV88PFrcfZjh1R2AFJQGYKSUz0rBlzGsDPreVKf2NTnNTPWYctxVBp/FQ+cJTPuliQPxsMMxcZ7Bwl0qCJpicCmKgSqCYDCKlBoVgyjUq/rhISQWspBYyMQ/1iRosiwl9c/4DJXYhDKzKSql5npS/zqexydcq2Ymmnmmuc28ytxtlswGYwaWjUOWmkbAqmzNcVf9CCqnkAZiWpl/H5xNTHQy4BxrjdVyeWntPBDjMM3Bms81Z00NYcaNyIUlhRubIei7H7c4qgyaxVEFdj4aG1XOoHjSguZ+Q3xKjZDUt26aUmOIV6TIihqlMLeGqfxNuTVKYUWKZLFhTsbN4RrF5qpRbDksfGBTTo1iy0+R+TWKzc3Ib3rdaSmKkaxZnxIki2AAUQwwiJTLUR03kGq4HFUSR6UjTBx3PCfQgeeODEoDhy8VLzk0Rew+3A2CBfrH4t+lv6JcqOdWvQPD9G/YbhAfy2gWHcnQ/U0+NT0quRkiT7VY6oOcz6rvHZIFSxZtzqIDWbQ/Q/c3Cb70sNMMQVJEfHjTYmGx2CWsEcXIsNFCTWCScJJySn5DcHLRlGFzhBZlQf6pw6/KsYWZvc5EoyhDRDJENEMMyxBhLjUp5hQRyRDRDDEsqR+MT2HUcGu0iBYJwyJj7FXhyZGGsvlaU3heZIV5ufUs2xmuDt/55gusF9gvUtcWdUWuEHrMV1l77NeqlxddFrnRerP9ZndBWvGUhqJOfzTPGB1BosCIPKdYMSqKDlBYS8/3X+Wn/ojHWlowLEIikkcaMlekglJjQYFH4HZczOGsaXU4a9JeK2FaoWxf6uOPl0aKbFazFArkF/gNiiwKVCaRokKb1SxLBf7SvDibIdfnkbx9HpRyK5RPSZVoZCZpI6vIBiKTJEnELaUFWk7OxHmsYIndmrKyEKuKP5p3srFe1Q9kLfuOgYAxIyybmoxRjCAjkvqn/TYbnTeCtYdP0BF5FSFLWnxCmfkeMnAzbFNTKOokUSfDDvaWMzO/nUPrI+dcBgO5oxafxq3d1ml7YrHYPjVt8WaMX272xur2xdSjrbE9zDnAesrhZT1XQ5zempZR5WjtPLboINkBPsn8jxM/KfV7SiVuYJWaPQXcwPKk7WNHjbOmrKx8VEtOdQGtrEgbVkXDotHRVWPGVFZ4PGk72e3yekSvx+N2yXK4sCi64HHrwj9ftPKhOTMXjB9cMWvZmRd/cdO9314hDdgfeTBxT81Y8kZz9wVXHP7lc4Nf3kpeU8+59tSJXZMbzgx722PV93as/OOSZS9darv6uktPm1FZedbw8Y+tW7uta80nzDIrB8QBtlonXq4D5MwyQskQspJZLytmc701vZz+NksBfzu0tJYsKbNOkSzWIdbDKXObs6bpuK1JogWiQMF/vGlM0q6NWmrx+bisEVomECFJyGOE29VsmWXmKG5IQ/gXGXv6/QyWH8lg92DKFmI5Gjbdmm1aqwdaa9Wje1o/YqoddSmbmhwbQX8/DLJA+YgJ3CSuYAo25AiNDrlDDpozmC/2DPol6yOPHPqS9d09+sdSoTQAFxnPVyGmqL1ZbDY8bxA9bKJ4ctxVVeJ4wxTxZMM6+/3SXrtiAXUk6RN9stF13PrElTUhXJn1ycYmV5RmdCId0olUZW2nbIpxnUhbNQ/RPDM9tM2zytPtETzWzNBZM5PFmloKbmqyRjUTMWU0uonrRlNGN5oyc8c0pBtNYtoGTelG05BuNLW6mW7kq8fYsdXKNLW1tZP3+LTU4mVfHevk1hha/b2yIylUblohG0HNKeXDlhyk0uGiqbWio9Lh8rD1oUNse2rJ4OEdfxk8tOqpqY9ctHOTNHCk953BI/deR6yfCDOO9G15bNFTxMVWgyfre8WAOAHDUS0U8nEoMVqNxbnWvOIR1uLiGusYd7V/XPFJxa3W1uLl1mXFbeU91itG3Oa5Pe9Bq3t4ZjE/jElZLqPuz31o+KbcJ4Y/k7tt+Kvud4YbJntIAQMjB+sCp/PYXs5oNggzGBX0Bn2xkuKqGrGm5CTxxJImQ0vsDMOy2DrLesvzlm+t38Yc1VU2IqplRVXeipDLt3DEyhF0RKDMVme73naXTbdJd9ketX1uE2xPZDa1Hm+yWdiw2BgisoGysUq4VFWeZ7OwMbDJdrs8zxZNr0dtPj7sjzXZbAHBm6QPbfSVpHSirclXYjJNnOf7uSsQUDDUFjQMM1UEBPOIdrUd9epxVvWxzTjoR1IIHTc3QebzLRIqYoKZVp+fpQSzSGQSU5TU9/SbzZw4wHu2KKm/zeavPK+IV7goM1uLkvS0uG1YHFE1qkXLo49GpZqkvpXjeDSp70wRT+gHUsVvbIqOquGWXUG4qrxmaw29u4bUeJP6gcdZ5l5DZuXgjfgKywzpXinLaI6y1GSIO5rKirbI22QalOtkKrvSU0R2pV+Q0/mMbJJtrPtlC2uc7GONky2sZTJffck2Ngayyloijxo7ZCWyqdCZ0iixmNraGTvIJ8fQPOFL/NiHH7K5sSdWt+9oLLaHb1Ide7kzpa9ruK5mWoerG7YFhk7/4xBiMYvFNiIplD6+wmYLDDMJFZwWzD6vN+BKCmV9KwIKB7CyyrpYnaOmLFbjqHQ4mZ0XYRqF65tq/hldNYxpHGXYBMoVkMftdnm84aggKzbqdrHZWD1mtFC7ZPPyR5+c2nXi6LPePJNUNlx5yfn5Cd8526+68qGZqtFb+GTAu+iZlQsqzl629FfR/MvmTXn48umXTnfZrHlFEdM5pSe0dPo6r26Mt5888rz9hy8/YSx5Z3hAHT6t7MS202accC6bx1foe0W2GlGRT518Hv+ESBZ7kTRaapCkumAiSIPBwkBlYGJgVXBDUB6XU+upzTvFc0peq6HV2mxv9Zyet9ywwrrUfo7nnLytwTcsb3rfzH0/5zPvZ7kf5O8O6sFcTSqzl7nKpTp7XDrFPlM6Q3oz/yvxkGpR3TZRpvAHZIWY3AGb2VevZhm0vizbxZeB6nhhk69ou5mo5ri5zdxtFlP7SGY+Z82+9D7EQa6pzEl9P58LZjYp2CQwJ/XdfBKYuZnDRMm8hjhoWggdKSHc1OSohDOzTS3yxHhOE8TUuoVrukohI+FCSubjuU1ChNKthGwgd5ME2U/EIKkjM4hAmHpkk5Yk9SPxfDa9CJduwnUKcTLpJly6CdtVYNOKs3pYlYmP1Ze4WKkkt2Bq9XHwzwR3de00tibicXtiMb4+ypoQTOLr9tU5mGwzqSatnavR6e8nJtXmTgplj62wmUXZnxTK+lfICgVTEbGajBoOOyodYyorCqhbRbhwmODyMtkcXcWkl5T+pn9176JHO+ODX/z+ybNo1bwb1v32vrXrfisNHP3q+hnXv9A1+Pngzl+Sm7fMu/rlF7c/+zIIZup7hX3iBOTRdiZtT8Kr788cOpgyhw7GDGHPEGqGYEOUtXUVr7JdYid2Bp8zsQoCRGfArPgCopnY3IqB9bXC+1qxsL5WVNbXCp/1L+94lpvq6jOtFew7qtwfn2q0kGBgUs4k75ycOd62nDbv7fR24Tbrr9Vf51kM1lzTcrpMWC6ttayydlvvtzxm3GR6zGLxWK6wfEAFW+FC+0r7JXbBTpL0oXi0HKxSbViFDbgbu7EfRtjt7F/aytQxYCf2elOWmNuHxNzeZC+yGbi+KfSD774cyNIN/xhiQ5E5FiQEhJC4LZZalMXT8kzi6V4jY1IorDWROJezOBeyE7lo5XHROingzoC3OyPa7jR4h5rcRdsUElTqFKrYWAaKiWWgcK3MOjhlf1rS00cZ5a96ZsgITInhMaRuXZ3+WfRmEPaj+H2x2OoDMeby8XDWlDlqytTWPWrrHm77k9bOlrTBmNoNd9rsdqfo4xIrms1ODr1mJWPtZ++Gy+FCOKqczMofMvKZAAu1vfmf/+7Nwa9Xf3LVI28HH829ZP6VD/36Z8uvI5d7H99G8onpt4Re+ug9/rNWPP3XnU/9FBRT9L3CLmkADuTTHI6UF5qoaI1Yq6yTrdJo1+jAqXSuabZrTuBMukTqMC52tQW2BndIf8t5J/fDnA9dn3v/nvshR0RPMBjLYzDamMcwVRlJi6wjPePoaGsjbbBOcZ0UONXUZD3T+qH8secQOWBTiVuwmVU7/AGz4oDJHRDMvnrTcVA5dHLnqyR4IiNG/U2IOOzHoar9B8WtqMkeUdXtDqI64o42R7dDDMbZVEmhq8PJ4MvBLRiGsw6ZTSwHR1sHN5GZTDhsTCYcmZ1TR2aH1PFEpnabmhxrnBkpc2akzJmSsk1NziIls1+hqClQHd+0Rdmm7FJ0RWTSN0MRlAI+hblhoBSkpjaXSG6cKXlcInMLqmZm4SRbMnLL+GgsGzhr+WpUPRqr3ZM2mtn3GFCy3UB/r8BAMm5aIZiJzQaTOYWUZsWeQsq6SmcNt6hDo5mKj45OS5uj0kFcx7BSGNvxzCV/W7t8x2VtN5dtPKr9du26+x74yXn3XHHnNYfvvYsIPbPqqe3QFOp86YU/PvvmS+yfgEejvlcsECfAjXzq4RLnDSLgpvOEVqnVOM/cIZwlrTR2mA1uZv3xrk7qe+KzGZUfYO4w5xvSIdfBPHGUc1zuqEC9c1pefWCWc0Hu7EC78+y89sB58nnug/SgT4WH2K1e70wPW84InoB9g3q3SlVV9AdMCgboQ2yuZrTY1jgfapUQ8vOcgGhmxz77/82xzzcZM9Ibtyb1t/lKx8rPF6wyIz7lwmJlmRqHFVclrMSaF0zqWzdGolXMf5yZnUES9DyRMYg3NXkqh/TBsQMiQ0ZPq0VKvKi4KiMvGTFLw1Q81sQOFoZEKMBFKAVqAS48Hi5IuQVVx6va1ti0o1zDTlc7Y7GDndnLraOtsdgeDl2ttUc7a/mpKxMi0sqtSNK52h/PB1dR3dgAqTxNbMV29hNYUfUwGbOuUKGWqzRHUE1iThreTH4ObyYlc9i38PTWspijsqy1MwviVFRWwOFSQnwhR0JRbl4Kpw+U/GPzJ4OfE9fbfyM2cmSvqe/yxdccfZPOsoxtuurCB0mT995+EiQCsZDhg+8Ofqtqjw4sJT+/YtLS+9laO+c7MeyW/govOZ3LX4HLSOy5ZbnlufHcVbm3W+6wPmg15FmHWxO5W3PFXDaIwbxgVb7BKljsARNx05grRxRkmO5yEZeekxqsx5ty4uKxA9MMIHjTJ3vmJm9EhEBvJHxLeeOosVV8azkWCFZtAMmNMwjKjVttdB5cfINiON+gKGSghJL01sQX6W1mV3qb+VNuV/GDKWZWsY3ox/lq7F5f7pNkACEcJCb4YrGD2RjB9psP1Kq1HCj2xfa1sh2MWnY2uK/GUcMPB12qQzYqskGmsmp0+uGQ7X4SI7HiSy8lsc5WrPY/BpMnh21xlPavEGSTnZ/emkhqQCsrUucJ4dGVo6uq2X6UV+F6yl3pDjv67rorJ++ydacs8I+tmD152zbhtms6z6qacqrzl6YpbYuuOXIGw4mJg7OET8UJKEAxHcHHqc1sllwl5ojrFHODSzbm5+aXmKOuknCNeYzrZPMUV5PSbF5qPmT6ym0bGS4ZNiE8YdgpwzaU3F2ijAmNGVFXMsU8JdQwYm5o7ohlyuLQ4hFtJd0lbw7bG/pH+PNhDq9Hdidpb//wQI7CLR1VQzm3c7q5QCtI0oviqhQI2E0NhQGLyeOujFSa6tUsXDDpX2RdTUljRLyoyRTx+bZ7ieqNe9u83V6xJG620HklXAt5uRbyDmkhL9dCXg9PS+qfprQQ45JZOKWFvKlzR3met96kH8rCqEPpMi1N3jV2EkFhMCOQwYxABtMC6W0KFm2xb7Pvsut2MWivs8+wC/YMrNjTmmpkk53Dij2PiZ29kNXKHmA1snPNZOeayZ4bK1kTYsopNv0YsnSm90LVbP3EFRRHnIO1qNu3h6HMHubzrZ1OtHb64yaAeAQgJyBxSz5gN1kKk0LZ4yssJo/szhnOsSMntSpNmfXOmrKFp7eWj2rxshNnvs4cJocLaUpveUdXOvjuZzQnS3md8ai5YtKai6702ci6xFv7z3nl2icvuL/jrbv/8Omt91904QOPXHDeA815syIVS+ZXJ64mte/cQsg1t3QfWf7NtvMeFopf2brlpaeffZrhyXpA2Mv37p5ncroZHn3rRre3SmBbOnxlHxFHCw3CgFXkUW5vbpXX4LA4XIJEYA9Iistsshxnz1iypMqSsW3iw5osEWO8ckyVbiRbjcTDjRlPnF82GM5dFxMeI9tGcfBrB3xxZ8xjfEZ2psCFycj3fYxs/40vFtlFBR4+uImfM0/nW47eqjFVCc9+D13luduT8Oge0UNdGSFyZQTFlZEvVyR1VKZWjqnaz37ErIHddhP5jYX0sdmhuJejWWrJaWC1GjowO5RaGIJy+KJ8OTrdPXWmL9vG7oylLzW0dsYOHC9VsfQFh9SisIY4Uzhmk21KxCZb/MRqsPsJ2DnWpYi1xkjMv8lsgkmQ7EmhvH+FxO5BpRaJKejiK0SPx+0IO7i4yG7H+v6Lt677XWP/2rNmXlsrDRz94sbWX99xdCG9Z/1P5lx30dEnQNn/pEFqpQF2O46a+C44zRxHCxni2K0xk9lcn5ve2j6StWF2jJayaDFD9zdRc2adniHkDKGYLZahTI9mra6OZl2PO5p1Pe5oxsimYnp0hQwhZwhFtFqzamod2oQ/RktZtDi0zVfdZBzDxnmGcYPxbmPCuNW4y7jfqMAYNK4ydhvvSkftNupGU9BIQBSRCkZZeELfms6huEm4mECWZNEkKxEJ4l3i3WJC3CruFuWt4n6RQtTE7eJuURRT+wx0njgkaiIXNdHEqiBypSlmlKaY2d8X2a6EiYmdON3wrwK3uvYo39+v2xdL3Tpz1nALaHX2ec3xj/9x0STJiHN5ynuZi1PO6Eq34Kh0XNnf3y/+fdu2w24xevhNECYvwjfSAMyCM3VubjOb63O+d7JlyKLFY+ugITNQzhBSGt0DTXJq6SA3yfONgt36pXRQFowW1j0y2zjiO/IZwpgh2Il8XGUvzhPONVGnrOWEqgxJff9G57AqI9t5cg6rcko8IsQj4j9zDquSRVES5WrjVFGKyKWmZtO5wlrTm8IHsnK/TMJyVIkYauSxxjrrDGuL2CI3Ky3Gi8TzpVuNz8qvijvlPfInytfytwa302SSBEGksqwYjQaTSTIaDBFFdimKLIhiRDK5JMlkMsqCaCAUoiQrBoPZDJOYJPa4URL5dnqhgYXcGl/X8y1VJW+DlVjNGagyZ1DMbElfuzRHQDOpNJNKh+5k0QghG0DqMAOUHQvFR3EY4/eDwLe7wCWMba/J88D3D8C3OZBrsb4XmnpGtmZs7aydpqZNL3Zs2HmQHRseiO1DHb8pwu4AOLw17LKIyC49SiN9Mdt3hKIaag21AnfTh7rWRiMJGn8mUKPPyq4FtHa2jCpnl0PiJmNJfo3RkJ9fK7Nbf/k1clLf0adxrzeUOtRv4fdCOpH+Pbmsb+0L8csDfR7mvdun1sgpj4cs3Os1Z+6VkNQP0ePOd0RicHlqjAaXq5Y7clI/2OdjL3/W60+xk9aW1NbzsaNOfonAbhKMsgjRYIJJlFMQzO4ReNP3CBykkpAwURxX9pOHPhlcTra8O3jPJdLAkSdJYnDd0SU0eMHgaSC4DCDVDHfJpd9H3aHjwx/A2H/B0iHWH0DOf0HIrFy/h4ePN0kc9iRm6lePreJ+1eiUXz4q5RdGuB+PuL1Vdiko3SXtksQZ0i5pvyQEpVVSt6RLIgFMVEgpV5YTV7LuytFVd4FsxX72T4Yc07TfHNO0+VmaNiWcqTWDIb1gyJxt6nrmtDMNgpguHg+CDAXZUQPDQW6krf4BzNsIU2rw0sN2WT+7Apu2juSoOAFhYSW/63EjcrLALNt8dmbRjiw6P6uHA1m0P4vOy6Lzs26FB7Jofxadl0Vbsk5PrVm0LYu2Z9E5WWa+mkU7s2hHFp2TZdhlG3nOLNqRRVv1A5m7fSnCmNRfj08zW6si4h5xj/E974ea9DfpoEa9Bi1s9Pk1oyCECwKym1nmCpHDebmqaXuEbIjcHaERrzfPFtngIA6R73f5+F4XP2nj+10uJiIOhvteJiYOyne9LHzXi5+xOVJ3TrP3vpKkdaMvs1nhyyCnL32oYG3yRTb4iZ+X5B8qyc9L8rPLlw5Wkp+bfn6+5+pnqMqNUb+FlenPnOv5k6R1E2hlOFNIOAPP4TQ8u5rCEbIdhG1H0yAYSAscpPO/B9L8xA2etMV5JLN2PhB3cdMzJf62FG4XRZLkvI2hqccvalIHE3z9knVcwY+rs08vjk5v6Jj8UedqsGV1XR3De5XdgmYmRMYwtbhyoi6Lw0+cVnfGMM3srPxb0yJuUk15JpiIbHYnhfJNK8yKUZALkkJ53wo5tSCqqIsxCE3NQze/CuJlTsqQ5YvwbJP2nor7l6/7RfDiF+58aGN4wYRVN/U3Lznl0nFi9OfTFy5qHnh009Fh9JcrFo77+a+P/oL2nXfezNtuOPpGZtXzkTgBHvIRX53nSIKcQx9Qk+oHwsc5+4WDObLI7INCs7XqfJXcom737fbpPlEzuGwujzMgKUT2WE3s/184buljy5r5tqGlT6DJVuTjKx0fX/WY+XrHzNc75qH1jpnjnbmQc/DDMH5Q9n/VdSWwcVRn+L2Z2TnezO4cu56dY21P1nvhNXawNzY2IZ6EpEkJJITAtk68NAISasehuQikmDZpAwaacqqCSFRAiKBVUUmwk5jbqggqhahpKa3aKg1VXRpBXSHkRq2QvdV7M7MeA7Xk3d87s7Nz/PMf3/f9XtLviOPV//rkGPJZswsuSdUiaalEWBWhuMbA8dXCvY/xiUFtN54yjhoTBmPQVEedHvieHnijHtRdOonQF8ZU1Rdpf2nLgz7X8qihlofx4/GEq32+hVqTVC6EBUJeEzRN2qB5C7AYifRHREnYOzXXB+msKiAecYhmlZzKxmwoI813O6zk3oGLB9sVokhHkKUjGnGpSNBj19zJ53VDvjRy+Lazm56+RkFjzVtX7XqOyT32wortV7ffNbOLuufWbUsfeXfmVUCB5dXzTJ5ZAqLAhFXsLyfqDHzAcayZIEgCjkCbsWWSBRqHTGklu4ovs338LewAz5eUHq1HX2SsUFZrq/UVRn+kX7hWqWgV/VpjW2SbcLOyTdum32zcDusENhLdSF8XuQ5tlIbozZHNaEhCyRTDqSlRTMzDbBIh5iBRw2yUciJjE3zGJu7GYSSG4DMc4Qd8yi2gYolBym1s4ItKDF+pPeHGMtnSQg4CTuEcjuZqMgRMKp2zoY3XETEkbEM7FjhZLPCtmE9YLS3HMkCKYVRQI1GNsH8gRZyKYL1+8CLBG+jErdxMtoSjIgUCQgsE2/VnlU6UwSUWhoVJyq/M8yRlR7FyoVipzPcvwmhdspBQCbgCFNZH1gs3Rm4UGFzmkUB1TFQ9RkFkkgSuYbjaYEBc6ersaAeeIA2EIZnlR+479Weo3/nxD87NTr304sg9L47ePfIiFYf5B/bM/nXm9Mffgw0w+u477/7m1Du/AhQYmR1gFjBLgAYa4PskCu2WlIuVy5XVCtPrHHWoRuciqam+va69fln9duchh+9J9thXJq+0+/iNUn+y3x7kt0oDyrbkVnvCeS9x1jhrvdcwmZhs+MCpOnoTU1SKdYuYHuUrzJXKBuXv4sf1s4qoxmg9hel9Vk/FRBAz5zmUGXIos+ZQqbKZOYOggly0Ce1DjEPcynF9idSHrkhUU0YgmQr6s5pw36P6Eb5LZCKf2g3jHVTHHPEUhCSfgXLNspYF4MuZ+4CwV0KEvTKPsL/wecKeiJSg5hH2jSu7DDiPsa8R9sXpyS9y9YSsV7vnU/UgpsZ0AuvFRMjSbGqcvriWxQgQg30lyGF6XYLCCF5epUMOM3Kk55Fv3ntm8LZzd254sFV9ds8dP3tu965jswOR1+5ft+5g9fFnZj/7wVU9M5/RR06/+c777/zqDwCCuwGg3mKWABVyxGcua4tDhYFNTIm5glnPbGF2M6yg8gIvROOqEAU0D0VyuQESCg/xkE87cRin0mpwytXgIqjBraX+fzSsVqP/x1VDqYEld/G8qsQDxNhQN7lGW/nmlwFik0pleuck6CVnGU/GEawCKG+PxMicQWUnrNgncdkg0Kw4TneGqoVwpeCB9Bxbp959eMlA78YblixbdtkNiQYm9/SOVT3P5Vf2bto58zuc/Xur5+ljzBKwkGkg/VaN+KhVgyZGMrrIbVAI3RL5kJ0L2dmQnQnZTSE7HbIXhGynViYMl5l0It0jXCksz5TTm9PDwgPCgcyz8Z+1/IKOCknLSC5c3fL7ZMSmrqcopR0io5/vF/pRv9gv9UcH+UFhEA2Kg9JgdCw3lpexoDZzUWdmA+oTb87dXNjdtDuzL/MoekJ6pPBYy48WHkE/lZ7JHymM5k7l9EJQrqcDoykwMoFR8IAWfx1sNAVGJjDqsTpfa+jewOezEmIsJ1fHiK31FiYl0mYLIbDNXnOt+Q3zBfPXJiubjea3zHMm02g+aFLma9T1+FtpPG7TTeDVFTw9o8AzkAJQgXjocGI0oZcI56nE1BKErf31Q/VUfaqOYzypHQHRPgyAsg/dOPZFJtUqNlrQyphu3Ci147e3E9rK8B5xNDF17M6mg99pOvhdJsFgTEJA4qVLBS82UhsBF8TN0TKXaR6vThxPdZ9phs34o/FmmnF1gLdNDLyZZgzf4S01vxJc9NFys0X2ZUG+ubSpfaKd6m3f1061YyI3Awyv/ie3j+NdBup6YuA9xMZJvJOOn2P1spORSSiUyYHIDqE8cLGWwDsik1Esn/zwRnxdtSynzwXwkHmJz7BWdlw9HcqZRaVYnNq5JhDxFYs7MM8aahqmsFCkWCz2Tu0gCj7cZ2PtOH7yNHy+hO+Kva6bv7ihKZJoyamKpsQVmk1HHRsIBc6GkYs5GzYkHBssiDXZIN0UlfiLkA0LeQGxRcYGjUo9rvuKGGryHki70Vzcv38/CMVzjHFW5l6AXvsBIKwXc7n6VoZE7lbRtKy6epLh6+ZkgiqWCHpylXiX7oXrfC7fSi0qdXZ9QZ2e1JMNlFcN5HpflO+7c/iORdlH3zq0dumlzQ+vv+u1DepRadfA8KCut9kH3nisPPDWXb/+I7w8tXXn5uWXNxnZ9q/uX7Nyb6GxuOrOW4xr+6/takrVx1GmY+lw/4Ynv/Y8gCBT/ZRqjhwCSXgrwSCceT2/GLL5kM2FbDZko+rEaFMOo58TbqYpV9pnQgClKII00BWhKCNWT9GirKRBGka/JEH7Y2npspaVYJXjVwgrNnHbuX3cQxwDOId7ijvKTXBnOJbD+R9nC87L/8T4lEhZ/QFA3yCcv9d1eKUnLicw+OtXoF6Jzb1MDQIDdh7b8jl4Z3pSmfKJlcnpxUQzMrMYp2u1o0N5m2iu/f7zGK2TcV1ahGCcbneFIYiiUTWGBJK8EYtdoKO9vc0v9bJJTz6CiWC1S8XkL1FlU4p11eIbh1oOHBg9fjxeLDQ8/aSyZPNh6qaDkBua/eHBmUevbrFwnvl+9Tz9Af5WZXjS49YsLKmoS5YoJ66XZHyoppYoFeMww8d1CcZ1kQVITdEi6NDn9ZV6qEbTQ32lnjWSuAG0SHeZJH1lUiMkbE2OnCQ5OlnrKJMJn471GbQkAS2SuKOM4lNeTcKJJEyusYh2HzeT1icWtd16yjpqVS0Gq+48p5ACp5C8ymEUM3y1wkGAQHCEM8IHAiMEhYNQKxx8cg8RSg9/NKkXBNJNCoRAE9aY86A8nyX7YtvoFRFEU7nYKx5ImLEYJRaVoxTrzQnTrMJINojyqg1w49jcvB9UoDftgCCtEkCCFnWWuEFvILb0FET5HJHkJ0k06MQ23Tv8/g3PrFXEMVG9dd26By4be2Js1ba1i3ZRj8yM/vCSlevWP3gv1U1YEgszrEwOIOomT1/Jz3EgGLhfGsCvH9UuNx/YY2VKr4G1IFQ18HMaTTwHEdZfJiM8QDwLWQQiAh+BVCRDhgnbimdPK2dPqx0duNbCZ8k+uSgCQVrtRjhrR9VuQddSJR4/UOPVj0a1FE6z5BlhFE9oWFAChYYFJVLJC+lsCejpLP7rT+53Cq0l4BRaS7J0ESgIOdQNFqFVYCUqwzLVx39d2AK3UAP8gHAHuB3eTu3l7xBuRyNwhLqHvo+7l79f+DF4XHgYPQ8Oo9fASe4YehucQn8C76N/gr+hz8A0akEgggygowLIoS60FrhIiLiaXoq4YrTkcwpCBAJ86AA3Ha5MBjQAyXf4XODXSBOAzwp5lYpEJBGLzs8WTyv493TxdBG0kWFArD7tQhzPZwWUEAQEaIrKQpCAEEQQAkjgeYqCLIcEGsBImwSlNO+6rrBPoIRxaB93I/siVGQc2q7gUC5Mix/9FrvzlGXOVGYqljE1WfFESd017kTtnj9liyetfMH73A+o9NUwNvtExLvWxGdxyloAO+J4DDbeAeHPZ4den8w2GsV/vjR7K5ObOXDLt67bQ91LvHLB7Dr6X0wOWNQpUgPLRo0dr2lOA8AoMGQmGn3dR3+nAweNBUujgSHV1q+BAIERDQwcMoJN1e4GHFDCnlyPEjIt0ilT1liRjbua7Iiu5MikYpPNtqJ11jJOW6aCn0gDQWoMe1ROQRm79K5UdyFRll9AtBt1ZUp2CgtLCn7gJEHTo4aWF/NSPtopdUYXxQ6pYkErxFfpfVpfvK9uQBuID9TtZfdE96rfTny77u7o/epB7WD8vsTj6Cfiq8or6suJj9A/Ev+Ozij/TVRTDVrciMWWXe97oh4XUzYjL5cPyLRs1g7Ca3O88cPubtvtkmVJUTUNAdpMxONZDSU0DcmSrEpZESVEEcXxoI3I4g2AlJKi2lJvpKjUONV7XI67mpsYp65zxV7N1ahvaG9olDYOl52QYRqssBFeRM6Z60gLpbUSfY1UlShpHC4bbZOhPE71jtnO8BajaJnKDP4XJpZBRsANZXrSVCYrO6YsQ5kiFjBwYsVeij2UD1N7QNW6R2LK4sX8m6uPxtavPmrMjX2/4s2zVs/DSy/t6yt6/N5LIFH9y4mubpTu6o6NV88fr+tW096sbh+O7GBHBVNu89FjULSPmfQ43eGiIVOWESJnk3i9h8vkPeVMV2fX3B3Acrgu+27ispbFq5JqLiLObvvF2WK6sfi3sdmhpZmFw+XS7C0/VQoZe6tczxRmDt22f3gPtfWzX76wrG89+B9RhCKWDQplbmRzdHJlYW0NCmVuZG9iag0KNTUgMCBvYmoNCjw8L0FzY2VudCA5MDUuMjczNDQvQ2FwSGVpZ2h0IDcxNi4zMDg1OS9EZXNjZW50IDIxMS45MTQwNi9GbGFncyA0L0ZvbnRCQm94WyAtNjY0LjU1MDc4IC0zMjQuNzA3MDMgMjAwMCAxMDM5LjU1MDc4XS9Gb250RmlsZTIgNTQgMCBSIC9Gb250TmFtZS9BQUFBQUErQXJpYWxNVC9JdGFsaWNBbmdsZSAwL1N0ZW1WIDQ1Ljg5ODQzOC9UeXBlL0ZvbnREZXNjcmlwdG9yPj4NCmVuZG9iag0KNTYgMCBvYmoNCjw8L0Jhc2VGb250L0FBQUFBQStBcmlhbE1UL0NJRFN5c3RlbUluZm88PC9PcmRlcmluZyhJZGVudGl0eSkvUmVnaXN0cnkoQWRvYmUpL1N1cHBsZW1lbnQgMD4+L0NJRFRvR0lETWFwL0lkZW50aXR5L0RXIDUwMC9Gb250RGVzY3JpcHRvciA1NSAwIFIgL1N1YnR5cGUvQ0lERm9udFR5cGUyL1R5cGUvRm9udC9XWyAwWyA3NTAgMCAwIDI3Ny44MzIwM10gMzZbIDY2Ni45OTIxOSAwIDcyMi4xNjc5NyA3MjIuMTY3OTddIDQ4WyA4MzMuMDA3ODEgNzIyLjE2Nzk3XSA1NFsgNjY2Ljk5MjE5IDYxMC44Mzk4NCA3MjIuMTY3OTddIDY4IDY5IDU1Ni4xNTIzNCA3MSA3MiA1NTYuMTUyMzQgNzNbIDI3Ny44MzIwMyA1NTYuMTUyMzQgNTU2LjE1MjM0IDIyMi4xNjc5N10gNzlbIDIyMi4xNjc5NyA4MzMuMDA3ODFdIDgxIDgzIDU1Ni4xNTIzNCA4NVsgMzMzLjAwNzgxXSA4N1sgMjc3LjgzMjAzIDU1Ni4xNTIzNF1dPj4NCmVuZG9iag0KNTcgMCBvYmoNCjw8L0ZpbHRlci9GbGF0ZURlY29kZS9MZW5ndGggMzAwPj5zdHJlYW0NCnicXVHLboMwELz7K/aYHCKbR5JGQkgtKRKHPlSSDwB7oZaKsYxz4O8r1iSVesBo1jM7411eVOfKaA/8042yRg+dNsrhNN6cRGix14ZFMSgt/YrolENjGS+qcz1PHofKdCPLMgD+hb2evJth86zGFreMfziFTpseNtei3jJe36z9wQGNB8HyHBR2jBdvjX1vBgROsl2l0Hjt5921qP8Yl9kixISjkEaOCifbSHSN6ZFlQgiRQ1aWZZkzNOrffRJUbSe/G0fsJIdMiFjkC4pTQmlEaF8QOp6o06o53Ds8DONDaHEM2oS0iSCURKF4DsXATJ7otw/MdPUMZodgnb7eKVR8CXn2oXgKseI1VgiyvHXZyWOQ8uYcGk+Lo+EtY9MGH7u1o11Uy/cL58yWnQ0KZW5kc3RyZWFtDQplbmRvYmoNCjYwIDAgb2JqDQo8PC9GaWx0ZXIvRmxhdGVEZWNvZGUvSW5kZXhbIDAgNjFdL0luZm8gMSAwIFIgL0xlbmd0aCAxMzkvUm9vdCA1MyAwIFIgL1NpemUgNjEvVHlwZS9YUmVmL1dbIDEgMiAyXT4+c3RyZWFtDQp4nCXPxw3CUBRE0Xnf5GiyyWByhi3uClGBRRGs6Y4qDFfeHF1pViMpSZzuEhg48CADWZOfrjnIQwGKUIIyVKAKNaiDDw1oQgva0IEu9CCAPgxgCCMYwwSmMIM5hLCAJaxgDRvYwg72cIAjnOAMF7jCzSniYCSz8J2WA88eH8mewZ84/vP6Sj/+0BhbDQplbmRzdHJlYW0NCmVuZG9iag0KNjEgMCBvYmoNCjw8L0RBKC9IZWx2MCAwIFRmIDAgZykvRFI8PC9Gb250PDwvSGVsdiA2MiAwIFIgL0hlbHYwIDYyIDAgUiA+Pj4+Pj4NCmVuZG9iag0KNjIgMCBvYmoNCjw8L0Jhc2VGb250L0hlbHZldGljYS9FbmNvZGluZy9XaW5BbnNpRW5jb2RpbmcvU3VidHlwZS9UeXBlMS9UeXBlL0ZvbnQ+Pg0KZW5kb2JqDQo2MyAwIG9iag0KPDwvQVA8PC9OIDc2IDAgUiA+Pi9Cb3JkZXJbIDAgMCAwXS9Db250ZW50cyhBY3RvcnM6XG5cbjEuIFVzZXIgIFxuICAgUmVwcmVzZW50cyByZWd1bGFyIHRlYW0gbWVtYmVycyB3aG8gcGVyZm9ybSBkYXktdG8tZGF5IHdvcmsuXG4yLiBBZG1pblxuICAgUmVwcmVzZW50cyBtYW5hZ2VycyBvciB0ZWFtIGxlYWRzIHdobyBvdmVyc2VlIGFuZCBtYW5hZ2UgdGVhbSBhY3Rpdml0aWVzLlxuXG5Vc2UgQ2FzZXMgXCh0aGUgb3ZhbHNcKTpcblxuMS4gQXNzaWduIGFuZCBNYW5hZ2UgVGFza3NcbiAgIC0gQWN0b3JzOiBBZG1pbiwgVXNlciAgXG4gICAtIERlc2NyaXB0aW9uOiBBZG1pbiBhc3NpZ25zIHRhc2tzOyB1c2VycyB2aWV3LCB1cGRhdGUsIG9yIG1hbmFnZSB0aGVpciB0YXNrcy5cblxuMi4gVGFzayBNb25pdG9yaW5nIGFuZCBOb3RpZmljYXRpb25zICBcbiAgIC0gQWN0b3JzOiBBZG1pbiwgVXNlciAgXG4gICAtIERlc2NyaXB0aW9uOiBVc2VycyBhbmQgYWRtaW5zIG1vbml0b3IgdGFzayBzdGF0dXMgYW5kIHJlY2VpdmUgdXBkYXRlcyBvciByZW1pbmRlcnMuXG5cbjMuICoqQXN5bmNocm9ub3VzIENvbW11bmljYXRpb24gIFxuICAgLSBBY3RvcnM6IEFkbWluLCBVc2VyICBcbiAgIC0gRGVzY3JpcHRpb246IENoYXQsIHZvaWNlIG5vdGVzLCBvciBjb21tZW50c4RhbGxvd2luZyBjb21tdW5pY2F0aW9uIHdpdGhvdXQgbmVlZGluZyByZWFsLXRpbWUgcmVzcG9uc2VzLlxuXG40LiBEb2N1bWVudCBTaGFyaW5nIGFuZCBDb2xsYWJvcmF0aW9uICBcbiAgIC0gQWN0b3JzOiBBZG1pbiwgVXNlciAgXG4gICAtIERlc2NyaXB0aW9uOiBCb3RoIGFjdG9ycyBjYW4gdXBsb2FkLCB2aWV3LCBhbmQgY29sbGFib3JhdGl2ZWx5IGVkaXQgZG9jdW1lbnRzLlxuXG41LiBBY3Rpdml0eSBUcmFja2luZyBhbmQgQWNjb3VudGFiaWxpdHkgIFxuICAgLSBBY3RvcnM6IEFkbWluLCBVc2VyICBcbiAgIC0gRGVzY3JpcHRpb246IFRyYWNrcyB0YXNrIGNvbXBsZXRpb24gYW5kIGxvZ3MgYWN0aXZpdHkgdG8gbWFpbnRhaW4gdHJhbnNwYXJlbmN5IGFuZCBhY2NvdW50YWJpbGl0eS5cblxuNi4gVHJhaW5pbmcgYW5kIE9uYm9hcmRpbmcgIFxuICAgLSBBY3RvcnM6IEFkbWluLCBVc2VyICBcbiAgIC0gRGVzY3JpcHRpb246IFVzZXJzIHJlY2VpdmUgdHJhaW5pbmcgbWF0ZXJpYWw7IEFkbWluIGVuc3VyZXMgb25ib2FyZGluZyBwcm9jZXNzZXMgYXJlIGNvbXBsZXRlZC4pL0RBKCAvSGVsdiAxMC41IFRmIDAgVGMgMTEuNzYgVEwgMCAwIDAgcmcgKS9GIDQvUERGSVVNX0hhc0dlbmVyYXRlZEFQIHRydWUvUmVjdFsgNDkuNDk5OTk2IDYuOTk5OTM5IDU3Mi45OTk5NCAzODMuNDk5OTddL1JvdGF0ZSAwL1N1YnR5cGUvRnJlZVRleHQvVHlwZS9Bbm5vdD4+DQplbmRvYmoNCjY0IDAgb2JqDQo8PC9CQm94WyAwIDAgNTI0LjI0OTk0IDMxOS40OTk5N10vRmlsdGVyL0ZsYXRlRGVjb2RlL0Zvcm1UeXBlIDEvTGVuZ3RoIDEwMTIvTWF0cml4WyAxIDAgMCAxIDAgMF0vUmVzb3VyY2VzPDwvRm9udDw8L0hlbHYgNjIgMCBSID4+Pj4vU3VidHlwZS9Gb3JtL1R5cGUvWE9iamVjdD4+c3RyZWFtDQp4nL1WTW/bOBC9+1c8IIdNBdtrJ3HctIdFmi7Qw2aL3TjopZcxNZa4pkh1SNnwL8nfXZCS08SOG59ylWY4783Hm/nRG2GEydnF8GyC8/HVcAJhfIPtfZr1Rpip9H8EKXojnI+uhldX04spZnnv9y9sVhiPhhPMFr3TWcloPEORZ+SaCqEKG9fAM0Mb0/ggFNgjlAxtAwupoJ31mHNYM1tkWVg7VKQtSAUnPssesuzes2QZyOZ4h9l/vREG4/FwOp5evZ+OI47TLLvOK22z7GGtQxm941Pkl6jIUsEV25D8lTOG5k4oxoXf+MBVlg3xhYV/8yDMhWmZu7X98CzU+9F4ehlD7cceDAbHmp6cnCDLrhOzD1l2rNt4iMck4GWnUwD/ci3s2QYP4aIxJAhMFSqu5iwe69KhZlk4qZDTZhDcIKcN1k6Ww5fzuh/mLELpco1D1XiOpa2AeLgOj2HKWzRuxRJ7I1amNWstYlusdNDshzt0R2fnz4F1H16owkHTtgr3nnFDnj2+n8Z+dCsy/vu7/bIcfCeV5dp7XdjE4LZlMCO/9C9UausGYPC0C5DS2Ucs8GtOn9kr0XVs3kdPUILgEfvdf4wTKB4rzes+mjqnwP2Y+m1+S9bSmh6d21T0SAu3zurgRNsiMf7bBb3QKg3TPuVnDXEs5T2nHcr3iV0MTvENj6qFlCjBBwpN+1tYsV5xl4LUfcKVtjmLf6Xdf2I4b0u8saoUZ13jceOqqrEd57ehfFNS6GPltGJYF9ineipXRVXzD2SMW8eKqKfQEIXQNQGWOY9/hckMgq74UHBhXzvr92fuoC5dxOx8dqpJ8npX0mNj3DyV2bfJ0icXym5pQJFFUxtHeb8bhB3tX7HZgHMdkHfwj++JybBFHBVqg5mQWm5pXyvlGhtoro0Om7fhnQC0wx87oDacyh/hGFf4rZZuENrFGuJyDULW1yRs1aYdpmfIj87FZVIGIW23Kfhq544kdtxb6sF22MMWSkWBRZP52GkkW99IVIFHeKjFKfZxAZDwNnWcH819d+P8Ymu2G+cuSKNCI3xw9Z8OkplWSyx0EQFnGWS7StPZ1Hb4gRFN/l/jItvz295lv3S9i/krygCjbYrtS7fGutSqGy3UJEErXSdJ1bb7t338FeV4Euy1m+mn6azU/vGYLPQq1gs/Gq2WfZS6KAeGV2zSKRFHHW6BCDrXiwVLZC/OJKztuZl0MWWkPf5S05Zsao+cF9ryoQOrM/fK1Yy8SVJXG7Kp3ZwgjzBcHbVkiG9kAyqOM1ew5Xj1tjGpipcv7m//gnI5J0ehNXSIn3f6aXI5SaHJulCywIeN4T+S0Z+z3j+9/wFk8VLdDQplbmRzdHJlYW0NCmVuZG9iag0KNjUgMCBvYmoNCjw8L0JCb3hbIDAgMCA1MjQuMjQ5OTQgMzE5LjQ5OTk3XS9GaWx0ZXIvRmxhdGVEZWNvZGUvRm9ybVR5cGUgMS9MZW5ndGggMTAxMi9NYXRyaXhbIDEgMCAwIDEgMCAwXS9SZXNvdXJjZXM8PC9Gb250PDwvSGVsdiA2MiAwIFIgPj4+Pi9TdWJ0eXBlL0Zvcm0vVHlwZS9YT2JqZWN0Pj5zdHJlYW0NCnicvVZNb9s4EL37Vzwgh00F22sncdy0h0WaLtDDZovdOOillzE1lrimSHVI2fAvyd9dkJLTxI4bn3KVZjjvzceb+dEbYYTJ2cXwbILz8dVwAmF8g+19mvVGmKn0fwQpeiOcj66GV1fTiylmee/3L2xWGI+GE8wWvdNZyWg8Q5Fn5JoKoQob18AzQxvT+CAU2COUDG0DC6mgnfWYc1gzW2RZWDtUpC1IBSc+yx6y7N6zZBnI5niH2X+9EQbj8XA6nl69n44jjtMsu84rbbPsYa1DGb3jU+SXqMhSwRXbkPyVM4bmTijGhd/4wFWWDfGFhX/zIMyFaZm7tf3wLNT70Xh6GUPtxx4MBseanpycIMuuE7MPWXas23iIxyTgZadTAP9yLezZBg/hojEkCEwVKq7mLB7r0qFmWTipkNNmENwgpw3WTpbDl/O6H+YsQulyjUPVeI6lrYB4uA6PYcpbNG7FEnsjVqY1ay1iW6x00OyHO3RHZ+fPgXUfXqjCQdO2CveecUOePb6fxn50KzL++7v9shx8J5Xl2ntd2MTgtmUwI7/0L1Rq6wZg8LQLkNLZRyzwa06f2SvRdWzeR09QguAR+91/jBMoHivN6z6aOqfA/Zj6bX5L1tKaHp3bVPRIC7fO6uBE2yIx/tsFvdAqDdM+5WcNcSzlPacdyveJXQxO8Q2PqoWUKMEHCk37W1ixXnGXgtR9wpW2OYt/pd1/YjhvS7yxqhRnXeNx46qqsR3nt6F8U1LoY+W0YlgX2Kd6KldFVfMPZIxbx4qop9AQhdA1AZY5j3+FyQyCrvhQcGFfO+v3Z+6gLl3E7Hx2qknyelfSY2PcPJXZt8nSJxfKbmlAkUVTG0d5vxuEHe1fsdmAcx2Qd/CP74nJsEUcFWqDmZBabmlfK+UaG2iujQ6bt+GdALTDHzugNpzKH+EYV/itlm4Q2sUa4nINQtbXJGzVph2mZ8iPzsVlUgYhbbcp+GrnjiR23FvqwXbYwxZKRYFFk/nYaSRb30hUgUd4qMUp9nEBkPA2dZwfzX134/xia7Yb5y5Io0IjfHD1nw6SmVZLLHQRAWcZZLtK09nUdviBEU3+X+Mi2/Pb3mW/dL2L+SvKAKNtiu1Lt8a61KobLdQkQStdJ0nVtvu3ffwV5XgS7LWb6afprNT+8Zgs9CrWCz8arZZ9lLooB4ZXbNIpEUcdboEIOteLBUtkL84krO25mXQxZaQ9/lLTlmxqj5wX2vKhA6sz98rVjLxJUlcbsqndnCCPMFwdtWSIb2QDKo4zV7DlePW2MamKly/ub/+CcjknR6E1dIifd/ppcjlJocm6ULLAh43hP5LRn7PeP73/AWTxUt0NCmVuZHN0cmVhbQ0KZW5kb2JqDQo2NiAwIG9iag0KPDwvQkJveFsgMCAwIDUyNC4yNDk5NCAzMTkuNDk5OTddL0ZpbHRlci9GbGF0ZURlY29kZS9Gb3JtVHlwZSAxL0xlbmd0aCA5MDEvTWF0cml4WyAxIDAgMCAxIDAgMF0vUmVzb3VyY2VzPDwvRm9udDw8L0hlbHYgNjIgMCBSID4+Pj4vU3VidHlwZS9Gb3JtL1R5cGUvWE9iamVjdD4+c3RyZWFtDQp4nL1WzW7bRhC+6ykG8MUhRJayLSt2DoXjFOihbtBGRi65jJcjcqrlLjO7lMAn6esWuyStWooQBQh83Z3Z72d+yK+THHKYX1xlF3O4nN1kcxCCz2Am75eTHJYq3ucg5SSHy/wmu7lZXC1gWUx++Z30BmZ5NoflanJ+p7wVd/sGlv9Mckhns2wxW9y8XcxC7HjwNp8trsPB+SyDR0cC8O2EcwD4mxohR8Y7ECpbjQKesIaa6icSB9vKQkOyslJDgV3qbVpgB1sr6+zFqzvUiwzuiprNSaA1GiwDkB2ANWHRw9oNiSMCNMUQ1keg8rxhz+SOMDjEfHQE9+jIwZdzXxHYDWr35c3tqfmzDJLkzjkuTaTz0NNZolu75IgNAJCGrL5kSdKbMv1uRULSB3JKuPFszXMmYMR34APqO2hdsG3DtJ1C2xToaRpMHJ2qiKUP3Xcpv7h82S7DQShckgRN8GANeytsyij3T+t5xQoDH5cke+x3D/yA5IOkPcmPUV0Ax/CGg7qnFCWB8+jb/lpIEW9osCD2kVDNpiA5XfllX9/OqEqssa2De1vXrRk0v47k+wr9FDaWFYGxnlysp7J1HSblX9TabkNF1P+pwZZ9ZVsPhqgIt0KoU881HQMXco017nB69tzZNeVVcOeDVW0gAp8qfG6Me6s1Pln5tksHbf0zZuG99VVYAVYcKDTQNtpiMR0GIZBSO1Ib0h1QwR6Kgf6e6oPluYOfZz3jsGs6WAqq9Sj7TinbGo9PrNl3r6M7EuiHP3RAoymWP9DRtnTjVuzAW6iRjUc24AWNa1DIqK4fphfMT/biOm4GQTajBR/Nk0UJHfc68vt9MA67H6nU6EkY9bthR5JxrYQt8EwPGrGKXNj9KDRaR8XJ2tM0PTX07OwMkuSTl1b5Vug2SY5oTGMYqzWsuAyEkwRk/CiG3T10+BGSMf9j+IYd5LWOQOHBdO9DC3JZedBsIrar7Ba2FathtKBB8ay4iSuVzXA3Pv4zvZtfz2PosmIHBWMpWEPJm1Av+NqyWk+h4rJKNW1Ix5+CMOpgVxBIF7xakQT1YnXk6klQ+bgXoyOuc57q2LQV6cZBQSs2B+tx/GwP4U7ZhqBo46prNJrYblagCDRsE3ZJBp/ReKgpzFxJhgQ99ZhYU7Dt8eEPULagmCi4Bfbh+Ag0GusrEnC+0/RrDPptOflr8h/7xeyIDQplbmRzdHJlYW0NCmVuZG9iag0KNjcgMCBvYmoNCjw8L0JCb3hbIDAgMCA1MjQuMjQ5OTQgMzE5LjQ5OTk3XS9GaWx0ZXIvRmxhdGVEZWNvZGUvRm9ybVR5cGUgMS9MZW5ndGggOTA4L01hdHJpeFsgMSAwIDAgMSAwIDBdL1Jlc291cmNlczw8L0ZvbnQ8PC9IZWx2IDYyIDAgUiA+Pj4+L1N1YnR5cGUvRm9ybS9UeXBlL1hPYmplY3Q+PnN0cmVhbQ0KeJy9Vs1y2zYQvuspdsYXhyOylG1ZkXPoKE5neqibaSNPLrmswRW5NQgwC1AaPklftwOQjGIpanXo+Ars4vvZH/LrJIcc5lc32dUcrmfLbA5C8BnM5P16ksNaxfscpJzkcJ0vs+VycbOAdTH56VfSW5jl2RzWm8nlSnkr7u4NrP+a5JDOZtlitli+XcxC7HjwNp8tbsPB5SyDR0cC8OOESwD4kxohR8Y7ECpbjQKesIaa6icSB7vKQkOysVJDgV3qbVpgBzsrz9mLV/eoVxmsiprNWaA1GiwDkB2ANWHRw9otiSMCNMUQ1keg8rxlz+ROMDjGfHQE9+jIwZdLXxHYLWr35c3dufmzDFbOcWkimYeezBrdszvhAQCkMFSrd2P6n6VI4QM5Jdx4tmbIAoywDnwAewetC15tmXZTaJsCPU2Dc6M9FbH0oYfW5FfXL3tkOAjVSpIgBR6sYW+FTRlV/m49b1hhYOOS5ID5/oHIPEkGsUnyL3KPkr4XnCQxxUVwDG84qHtKURI4j77tr4UU8ZYGC2LzCNVsCpLzlV8H5SvXGVWJNbZ1cG/rujWD5teRfF+hn8LWsiIw1pOL9VS2rsN4/I1a212oiPqeGuzYV7b1YIiKcCuEOvVc0ylwIddY445H5sCdfUPeBHc+WNUGIvCpwm+NcW+1xicrP3bpoKXPc+ko6cCl99ZXYe6tOFBooG20xWI6DEIgpfaktqQ7oII9FAP9A9VHG3MPP896xmHBdLAWVM+j7JVStjUen1iz715HdyTQD3/ogEZTLH+go23pxlXYgbdQIxuPbMALGtegkFFdP0wvmJ/txW3cDIJsRgs+mieLEjrudeT3+2Acdj9SqdGTMOp3w44k41oJW+AbPWjEKnJh4aPQaB0VZ2tP0/Tc0IuLC0iST15a5VuhuyQ5oTGNYayeYcNlIJwkIOOXMOzuocNPkIz5H8OH6yivdQQKj6b7EFqQy8qDZhOxXWV3sKtYDaMFDYpnxU1cqWyGu/Hx/9O7+e08hq4rdlAwloI1lLwN9YKvLavnKVRcVqmmLen4JxBGHewGAumCNxuSoF6sjlw9CSof92J0xHXOUx2btiLdOChow+ZoPY6f6yHcKdsQFG1cdY1GE9vNChSBhm3CLsngMxoPNYWZK8mQoKceE2sKtj0+/AbKFhQTBXfAPhyfgEZjfUUCzneafo5Bv6wnf0z+AUZL6roNCmVuZHN0cmVhbQ0KZW5kb2JqDQo2OCAwIG9iag0KPDwvQkJveFsgMCAwIDUyNC4yNDk5NCAzMTkuNDk5OTddL0ZpbHRlci9GbGF0ZURlY29kZS9Gb3JtVHlwZSAxL0xlbmd0aCA5MDgvTWF0cml4WyAxIDAgMCAxIDAgMF0vUmVzb3VyY2VzPDwvRm9udDw8L0hlbHYgNjIgMCBSID4+Pj4vU3VidHlwZS9Gb3JtL1R5cGUvWE9iamVjdD4+c3RyZWFtDQp4nL1WzXLbNhC+6yl2xheHI7KUbVmRc+goTmd6qJtpI08uuazBFbk1CDALUBo+SV+3A5CMYilqdej4Cuzi+9kf8uskhxzmVzfZ1RyuZ8tsDkLwGczk/XqSw1rF+xyknORwnS+z5XJxs4B1MfnpV9JbmOXZHNabyeVKeSvu7g2s/5rkkM5m2WK2WL5dzELsePA2ny1uw8HlLINHRwLw44RLAPiTGiFHxjsQKluNAp6whprqJxIHu8pCQ7KxUkOBXeptWmAHOyvP2YtX96hXGayKms1ZoDUaLAOQHYA1YdHD2i2JIwI0xRDWR6DyvGXP5E4wOMZ8dAT36MjBl0tfEdgtavflzd25+bMMVs5xaSKZh57MGt2zO+EBAKQwVKt3Y/qfpUjhAzkl3Hi2ZsgCjLAOfAB7B60LXm2ZdlNomwI9TYNzoz0VsfShh9bkV9cve2Q4CNVKkiAFHqxhb4VNGVX+bj1vWGFg45LkgPn+gcg8SQaxSfIvco+SvhecJDHFRXAMbzioe0pREjiPvu2vhRTxlgYLYvMI1WwKkvOVXwflK9cZVYk1tnVwb+u6NYPm15F8X6GfwtayIjDWk4v1VLauw3j8jVrbXaiI+p4a7NhXtvVgiIpwK4Q69VzTKXAh11jjjkfmwJ19Q94Edz5Y1QYi8KnCb41xb7XGJys/dumgpc9z6SjpwKX31ldh7q04UGigbbTFYjoMQiCl9qS2pDuggj0UA/0D1Ucbcw8/z3rGYcF0sBZUz6PslVK2NR6fWLPvXkd3JNAPf+iARlMsf6CjbenGVdiBt1AjG49swAsa16CQUV0/TC+Yn+3FbdwMgmxGCz6aJ4sSOu515Pf7YBx2P1Kp0ZMw6nfDjiTjWglb4Bs9aMQqcmHho9BoHRVna0/T9NzQi4sLSJJPXlrlW6G7JDmhMY1hrJ5hw2UgnCQg45cw7O6hw0+QjPkfw4frKK91BAqPpvsQWpDLyoNmE7FdZXewq1gNowUNimfFTVypbIa78fH/07v57TyGrit2UDCWgjWUvA31gq8tq+cpVFxWqaYt6fgnEEYd7AYC6YI3G5KgXqyOXD0JKh/3YnTEdc5THZu2It04KGjD5mg9jp/rIdwp2xAUbVx1jUYT280KFIGGbcIuyeAzGg81hZkryZCgpx4Tawq2PT78BsoWFBMFd8A+HJ+ARmN9RQLOd5p+jkG/rCd/TP4BRkvqug0KZW5kc3RyZWFtDQplbmRvYmoNCjY5IDAgb2JqDQo8PC9CQm94WyAwIDAgNTMzLjI0OTk0IDUyOS41XS9GaWx0ZXIvRmxhdGVEZWNvZGUvRm9ybVR5cGUgMS9MZW5ndGggODQ1L01hdHJpeFsgMSAwIDAgMSAwIDBdL1Jlc291cmNlczw8L0ZvbnQ8PC9IZWx2IDYyIDAgUiA+Pj4+L1N1YnR5cGUvRm9ybS9UeXBlL1hPYmplY3Q+PnN0cmVhbQ0KeJy9VsFy20YMvesrMOOLwhEZya7syDkpTmd6STNtlOklF3gJkaiWuwywlEZf0t/N7JKME7tKdMj4ygUW7z0Ab/l5Moc5LK+uisslLC9XxRKE4B9wkzebyRw2Jp3PQarJHJaLVbFa3SxhU05e/kF2D4t5sYTNdjJdm+BFb1/A5t/JHPLForhZ3Kxe3Sxi7Pjh1Xxxcx0/TBcFfFQSgP9PmALA39QKKbmgIFR1FgUCYQMNNfckCofaQ0uy9dJAicc8+LzEIxy87Irvbn2oelnAumzYnVW0QYdVLOSHwpaw7Mv6PYkSAbpyCOsj0ATec2DSEwie1vyoBHeopPBpGmoCv0ern17cnpu/KGCtypVLYN71YDaoOz2hAQDkMHSrV2P201bk8JbUCLeBvRuyAFNZhRCLvYZOo1Z7psMMurbEQLOo3ChPTSx96NnSXBaQZZEKvPOOgxd2VWL5pw+8ZYMRjWbZj5Fn2UA2y35A95E+WfYt4SxLKZqKY7xDoekhJUqgAUPXHwsZ4j0NEqThEWrYlSTnM7+KzNd6dKYW73yncOebpnMD5+ehfFdjmMHesyFwPpCmfhrfNHE9/kNr/SF2xHwLDQ4cat8FcERlPBVCmwdu6FRxIW2908cr88Q7Hjj+FtV5600XgcCHGr8Oxp23Fu+9/EKVniQ9UumND3Xcey8KBh10rfVYzoZFiKDMA6g92SNQyQHKAf75rJdFjzgazBE2gmY30l4b4zsX8J4th+Pz8E4A+uWPE9BaSu2PcKyvdLTCIwQPDbILyA6CoNMWhZw59sv0HfKztbhOziDIbpTgvbv3KHHinod+7wfjsocRSoOBhNG+HjySnHYSXeArPGjFG9Jo+Cg0Skfl2dzzPD839OLiArLsQ5DOhE7oNstOcMxTGJsdbLmKgLMMZHwJo3cPE34CZMp/Hx+uJ3mdEhg8vd1DaUGu6gCWXaqttT/AoWYzrBa0KIENt8lS2Q1n4+W/Urvldfq7mW5qVigZK8EGKt7HfsHnjs1uBjVXdW5pTzb9CcRVB7+FCLrk7ZYkshdvE9ZAgiYkX0yK6FEDNWloa7KtQklbdiftcQhX41uCsktW11p0ady8QBlh+DZ6SdHf8ftm8tfkCxPizjsNCmVuZHN0cmVhbQ0KZW5kb2JqDQo3MCAwIG9iag0KPDwvQkJveFsgMCAwIDUzMy4yNDk5NCA1MjkuNDk5OTRdL0ZpbHRlci9GbGF0ZURlY29kZS9Gb3JtVHlwZSAxL0xlbmd0aCA4NDUvTWF0cml4WyAxIDAgMCAxIDAgMF0vUmVzb3VyY2VzPDwvRm9udDw8L0hlbHYgNjIgMCBSID4+Pj4vU3VidHlwZS9Gb3JtL1R5cGUvWE9iamVjdD4+c3RyZWFtDQp4nL1WzXLbNhC+6yl2xheHI7KSbVmRc1KczvSSZtoo00sua3BFbgUCzC5IjZ6kr9sBSMWJXaU6ZHwVdvH9YPejvkxmMIPF9XVxtYDF1apYgBD8BW7ydjOZwcak8xlINZnBYr4qVqvlzQ1syskvv5HtYT4rFrDZTi7XJnjRu1ew+Xsyg3w+L5bz5er1ch5rjz+8ns2Xt/GHy3kBn5QE4L8bLgHgT2qFlFxQEKo6iwKBsIGGmgcShX3toSXZemmgxEMefF7iAfZedsV3tz6iXhWwLht2Z4E26LCKQH4EtoTlAOt7EiUCdOVYNlSgCdxzYNITDJ5jflKCe1RS+HwZagLfo9XPr+7O7Z8XsFblyiUy7wcyG9SdnvAAAHIYX2twY/q/T5HDO1Ij3Ab2buwCTLAKIYK9gU6jVz3TfgpdW2KgaXTuaE9NLEPp2dZcFZBlUQq8946DF3ZVUvm7D7xlg5GNZtmPmWfZKDbLfiD3iT9Z9q3gLEstmsAx3qHQDJSSJNCAoRuOhQxxT6MFaXiEGnYlyfnKr6PytR6cqcU73ync+6bp3Kj5ZSTf1xim0Hs2BM4H0vSexjdNXI9/0Fq/jy9ivqUGew617wI4ojKeCqHNAzd0ClxIW+/06co8y45HjTfRnXfedJEIfKzx62Dce2vxwctPdOlZ0xOX3vpQx733omDQQddaj+V0XIRIyjyS6skegEoOUI70z1e9KAbGMWAOsBE0u6PstTG+cwEf2HI4vIzuRGBY/jgBraX0/JGO9ZUeo/AAwUOD7AKygyDotEUhZw7DMn3H/GwvblMyCLI7WvDBPXiUOHEvI3/Ig+OyhyOVBgMJo30zZiQ57SSmwFd60Io3pDHwUehoHZVna8/z/NzSi4sLyLKPQToTOqG7LDuhMU9lbHaw5SoSzjKQ45cwZvc44SdIpv4P8cP1rK9TAoOnt3uEFuSqDmDZJWyt/R72NZtxtaBFCWy4TZHKbjw7Xv4zvVvcLlLppmaFkrESbKDiPr4XfOnY7KZQc1Xnlnqy6Z9AXHXwW4ikS95uSaJ68TZxDSRoQsrF5IgeNFCThrYm2yqUtGV3Mh7HcjW+JSi7FHWtRZfGzQuUkYZvY5YUwx2/biZ/TP4FCmzObg0KZW5kc3RyZWFtDQplbmRvYmoNCjcxIDAgb2JqDQo8PC9CQm94WyAwIDAgNTQyLjk5OTk0IDQ4Mi4yNDk5N10vRmlsdGVyL0ZsYXRlRGVjb2RlL0Zvcm1UeXBlIDEvTGVuZ3RoIDgwOS9NYXRyaXhbIDEgMCAwIDEgMCAwXS9SZXNvdXJjZXM8PC9Gb250PDwvSGVsdiA2MiAwIFIgPj4+Pi9TdWJ0eXBlL0Zvcm0vVHlwZS9YT2JqZWN0Pj5zdHJlYW0NCnictVVNbxs3EL3rV7yjEkhbSZYjNzkpToFe0qC1jF5yGXNHu1Nzyc2QK0G/pH+3IHdVQ3aECGh95df7mHnDb6MZZrheXmF5sygW11DGn3Cjj5vRDBuTd2fQajTDcrUoVsvVcoVNOfrpV7Y7zGfFNTbb0Xhtotfw/g02f41mmM7nxWq++vlmNU9njws3s/nqXVoYzwvcB1bg+xfGAP7gVjmwiwHKVWdJEZkaNNw8sAbsa4+Wdeu1QUmHafTTkg7Ye30sTl59Ql0UWJeNuItAG3JUJSA/AFumsof1O9bADHLlcKw/QSbKTqJwOMPgJeZ9YNxS4ICv41gz/I5s+Prm/aX35wXWIUjlMpnPPZkNhcdwxgMAUwzV6t2Y/LAUU3ziYFTaKN4Nt0AZNiAmsA/oQvJqJ7yfoGtLijxJzh3tqVm0P1pc2iOLIgvBZ+8kehVXZY2/+ShbMZS4hGes/1eZ91lRgqR0P6DpiWQZCJFi128rG5YdD7Jzwyg34krWy9VeFXj7dh0OztTqne8Cbn3TdG5Q+ppCb2uKE+y8GIbzkUOunPFNk4LwN1nr98l9c0JoL7H2XYRjLtOuMtlplIahHFrvwssUzBZXp+KHhfGywCdvuoSHu5r+rfWtt5YevH7PgmeK/psFH32sU3y9Bhhy6FrrqZwM/ZyomCcqO7YHcCkR5UD6R2V+gr4uEtM0JQ7YKJnHo9S1Mb5zkR7Epr1X1Jph+9ymkraWs7uJhPVVOE6xA6JHQ+IiiUNUcqElZWcOfSZO+F6s/12R8MUdZX9xD540N9ArSu6jfMxpPBJoKLIK2Q/DSGMXOk0BfiLVqjcc0nwm5aNdXF6s9y5qZ2KnfOZrHE9xF8U8YitVxtbjD5Rm5tCSZ9DGU3xJ38WzO11gGHoRv1NIJanqCCuOA0Lt99jXYoYMoCWNYqTN40zcsHd8+FLxL5E3tQSUQpVSg0p2yVZ868Q8TlBLVU8t79jm/zUlD36LRK2U7ZY16VNvM6PISibmGZQ1h0OI3OSOqtm2ASVvxfG5DhmOB+NbRtnledNacrkrvKJMNHybol30b/yyGf0++geyzK7wDQplbmRzdHJlYW0NCmVuZG9iag0KNzIgMCBvYmoNCjw8L0JCb3hbIDAgMCA1NDIuOTk5OTQgNDgyLjI0OTk3XS9GaWx0ZXIvRmxhdGVEZWNvZGUvRm9ybVR5cGUgMS9MZW5ndGggODA5L01hdHJpeFsgMSAwIDAgMSAwIDBdL1Jlc291cmNlczw8L0ZvbnQ8PC9IZWx2IDYyIDAgUiA+Pj4+L1N1YnR5cGUvRm9ybS9UeXBlL1hPYmplY3Q+PnN0cmVhbQ0KeJy1VU1vGzcQvetXvKMSSFtJliM3OSlOgV7SoLWMXnIZc0e7U3PJzZArQb+kf7cgd1VDdoQIaH3l1/uYecNvoxlmuF5eYXmzKBbXUMafcKOPm9EMG5N3Z9BqNMNytShWy9VyhU05+ulXtjvMZ8U1NtvReG2i1/D+DTZ/jWaYzufFar76+WY1T2ePCzez+epdWhjPC9wHVuD7F8YA/uBWObCLAcpVZ0kRmRo03DywBuxrj5Z167VBSYdp9NOSDth7fSxOXn1CXRRYl424i0AbclQlID8AW6ayh/U71sAMcuVwrD9BJspOonA4w+Al5n1g3FLggK/jWDP8jmz4+ub9pffnBdYhSOUymc89mQ2Fx3DGAwBTDNXq3Zj8sBRTfOJgVNoo3g23QBk2ICawD+hC8monvJ+ga0uKPEnOHe2pWbQ/WlzaI4siC8Fn7yR6FVdljb/5KFsxlLiEZ6z/V5n3WVGCpHQ/oOmJZBkIkWLXbysblh0PsnPDKDfiStbL1V4VePt2HQ7O1Oqd7wJufdN0blD6mkJva4oT7LwYhvORQ66c8U2TgvA3Wev3yX1zQmgvsfZdhGMu064y2WmUhqEcWu/CyxTMFlen4oeF8bLAJ2+6hIe7mv6t9a23lh68fs+CZ4r+mwUffaxTfL0GGHLoWuupnAz9nKiYJyo7tgdwKRHlQPpHZX6Cvi4S0zQlDtgomcej1LUxvnORHsSmvVfUmmH73KaStpazu4mE9VU4TrEDokdD4iKJQ1RyoSVlZw59Jk74Xqz/XZHwxR1lf3EPnjQ30CtK7qN8zGk8EmgosgrZD8NIYxc6TQF+ItWqNxzSfCblo11cXqz3LmpnYqd85mscT3EXxTxiK1XG1uMPlGbm0JJn0MZTfEnfxbM7XWAYehG/U0glqeoIK44DQu332NdihgygJY1ipM3jTNywd3z4UvEvkTe1BJRClVKDSnbJVnzrxDxOUEtVTy3v2Ob/NSUPfotErZTtljXpU28zo8hKJuYZlDWHQ4jc5I6q2bYBJW/F8bkOGY4H41tG2eV501pyuSu8okw0fJuiXfRv/LIZ/T76B7LMrvANCmVuZHN0cmVhbQ0KZW5kb2JqDQo3MyAwIG9iag0KPDwvQkJveFsgMCAwIDUyMy40OTk5NCAzNzYuNDk5OTddL0ZpbHRlci9GbGF0ZURlY29kZS9Gb3JtVHlwZSAxL0xlbmd0aCA2NDkvTWF0cml4WyAxIDAgMCAxIDAgMF0vUmVzb3VyY2VzPDwvRm9udDw8L0hlbHYgNjIgMCBSID4+Pj4vU3VidHlwZS9Gb3JtL1R5cGUvWE9iamVjdD4+c3RyZWFtDQp4nLWUy27bMBBF9/qKWSaBrUpxbOexcpwC3aRFWwXdZDOmJhYbiqNyKBn+kv5uQT1q2ElQA0W2Ikf3njsz/BUlkMD0fBJPYTKfxVNwBD/ARrdZlECm2uME3DpKYDKbxVdX84s5ZHn04ROZBtIknkL2FJ0slGcn16eQ/YwSGKdpPE/nV5fzNNwdPlwm6XwWPpykMTwIOYDXC04A4BtVjoSsF3C0rg068IQllFSuyAlsCoaK3BO7EnLcjj2Pc9zCht1zvPfXnep5DIu81PYo0RItroMQ98KGMO9kuSEnRIA27691N1B53WivSd5w8FLzQQiWKCTweOILAm7QyOPp9bH1aQwLEb22rZn7zkyG8ixvZAAAY+i71aUx+mcrxnBHopyuvGbbVwG2sgI+iN1ALSGrRtNmBHWVo6dRSG6IpyDtuquH0STnk/0Z6T+EbgUQuGerPTtt1y3jZ/b6SSsMXuTA9a74SMyDgj3Mh5YoSGKoFyg7Iy0GiEdfd8eOFOmGeux2YByV2ubkjqedxHB2tpCtVYVjy7XAksuytj3pe4IuC/QjaFgrAsuepO2c4rIMi/AbjeFNSF/tGdpoX3DtwRLl4dQRmrHXJYEjqdjKyy14E/4ihjtWddCD7wX+7fWSjcEVu9ciOJjQ/xvpW/ZFWF92Agot1JVhzEf9PAcramelIbMFyrWHvDd9QPri4dtJT+PgNLwSW8gcqucBdaEU19bjSptw9o6srWy3t6GllaE23WDC8FqGV2wLnqFEbT1qC96hlQodWbXtdmLP79H8szjoaztgf7ErRtcO0Dsid6s87KkfDJToyWk0N/2TRlZqFxZ4Z6pyrEjC+4yOhrgo73g/ZtHX6A/FixlWDQplbmRzdHJlYW0NCmVuZG9iag0KNzQgMCBvYmoNCjw8L0JCb3hbIDAgMCA1MjMuNDk5OTQgMzc2LjQ5OTk3XS9GaWx0ZXIvRmxhdGVEZWNvZGUvRm9ybVR5cGUgMS9MZW5ndGggNjQ5L01hdHJpeFsgMSAwIDAgMSAwIDBdL1Jlc291cmNlczw8L0ZvbnQ8PC9IZWx2IDYyIDAgUiA+Pj4+L1N1YnR5cGUvRm9ybS9UeXBlL1hPYmplY3Q+PnN0cmVhbQ0KeJy1lMtu2zAQRff6ilkmga1KcWznsXKcAt2kRVsF3WQzpiYWG4qjcigZ/pL+bkE9athJUANFtiJH9547M/wVJZDA9HwST2Eyn8VTcAQ/wEa3WZRAptrjBNw6SmAym8VXV/OLOWR59OETmQbSJJ5C9hSdLJRnJ9enkP2MEhinaTxP51eX8zTcHT5cJul8Fj6cpDE8CDmA1wtOAOAbVY6ErBdwtK4NOvCEJZRUrsgJbAqGitwTuxJy3I49j3Pcwobdc7z3153qeQyLvNT2KNESLa6DEPfChjDvZLkhJ0SANu+vdTdQed1or0necPBS80EIligk8HjiCwJu0Mjj6fWx9WkMCxG9tq2Z+85MhvIsb2QAAGPou9WlMfpnK8ZwR6Kcrrxm21cBtrICPojdQC0hq0bTZgR1laOnUUhuiKcg7bqrh9Ek55P9Gek/hG4FELhnqz07bdct42f2+kkrDF7kwPWu+EjMg4I9zIeWKEhiqBcoOyMtBohHX3fHjhTphnrsdmAcldrm5I6nncRwdraQrVWFY8u1wJLLsrY96XuCLgv0I2hYKwLLnqTtnOKyDIvwG43hTUhf7RnaaF9w7cES5eHUEZqx1yWBI6nYyssteBP+IoY7VnXQg+8F/u31ko3BFbvXIjiY0P8b6Vv2RVhfdgIKLdSVYcxH/TwHK2pnpSGzBcq1h7w3fUD64uHbSU/j4DS8ElvIHKrnAXWhFNfW40qbcPaOrK1st7ehpZWhNt1gwvBahldsC56hRG09agveoZUKHVm17XZiz+/R/LM46Gs7YH+xK0bXDtA7InerPOypHwyU6MlpNDf9k0ZWahcWeGeqcqxIwvuMjoa4KO94P2bR1+gPxYsZVg0KZW5kc3RyZWFtDQplbmRvYmoNCjc1IDAgb2JqDQo8PC9CQm94WyAwIDAgNTIzLjQ5OTk0IDM3Ni41MDAwM10vRmlsdGVyL0ZsYXRlRGVjb2RlL0Zvcm1UeXBlIDEvTGVuZ3RoIDY0OS9NYXRyaXhbIDEgMCAwIDEgMCAwXS9SZXNvdXJjZXM8PC9Gb250PDwvSGVsdiA2MiAwIFIgPj4+Pi9TdWJ0eXBlL0Zvcm0vVHlwZS9YT2JqZWN0Pj5zdHJlYW0NCnictZTLbtswEEX3+opZOoGtSnFt57FynALdtEVbBd1kM6YmFhuKow4pGf6S/m5BPWrYSVADRbYiR/eeOzP8FSWQwOxiGs9gupjHMxCCH2Cj2yxKIFPtcQKyiRKYzufx1dViNoUsj959JNNAmsQzyB6j0VJ5Fnd9BtnPKIFJmsaLdHF1uUjD3eHDZZIu5uHDKI3h3pEAvFwwAoBvVAk5st6B0KY2KOAJSyipXJM42BYMFckjSwk57iaeJznuYMvyFB/8da96EcMyL7U9SbREi5sgxL2wIcw7WW5IHBGgzftr3Q1UXjfaa3KvOHiuee8IVujIwcPIFwTcoHEPZ9en1qcxLJ3TG9ua+dSZydA9uVcyAIAJ9N3q0hj/sxUTuCOnRFdes+2rAFtZBz6I3UDtQlaNpu0Y6ipHT+OQ3BBPQVq6q8fRJBfTwxnpP4RuBRD4xFZ7Fm03LeNn9vpRKwxe3JHrffGJmEcFB5j3LVGQxFDvoOyMtBjgPPq6OxZSpBvqsduBESq1zUlOp53GcH6+dDurCmHLtYMVl2Vte9K3BF0V6MfQsFYElj25tnOKyzIswm80hrchfXVgaKt9wbUHS5SHUyE0E69LAiFXsXXPt+BV+Pcx3LGqgx58L/Bvr1dsDK5ZXorgaEL/b6Rv2RdhfVkcKLRQV4YxH/fzHKyovZWGzA4o1x7y3vQR6bOHby89i4PT8ErsIBNUTwPqUimurce1NuHsDVlb2W5vQ0srQ226wYThjRtesR14hhK19agteEHrKhSyatftxIHfk/nncdDXdsD+YteM0g7QGyJ3qzzsqR8MlOhJNJqb/kkj62oJC7w3VQkrcuF9RqEhLso73g9Z9DX6A7BiGVMNCmVuZHN0cmVhbQ0KZW5kb2JqDQo3NiAwIG9iag0KPDwvQkJveFsgMCAwIDUyMy40OTk5NCAzNzYuNTAwMDNdL0ZpbHRlci9GbGF0ZURlY29kZS9Gb3JtVHlwZSAxL0xlbmd0aCA2NDkvTWF0cml4WyAxIDAgMCAxIDAgMF0vUmVzb3VyY2VzPDwvRm9udDw8L0hlbHYgNjIgMCBSID4+Pj4vU3VidHlwZS9Gb3JtL1R5cGUvWE9iamVjdD4+c3RyZWFtDQp4nLWUy27bMBBF9/qKWTqBrUpxbeexcpwC3bRFWwXdZDOmJhYbiqMOKRn+kv5uQT1q2ElQA0W2Ikf3njsz/BUlkMDsYhrPYLqYxzMQgh9go9ssSiBT7XECsokSmM7n8dXVYjaFLI/efSTTQJrEM8geo9FSeRZ3fQbZzyiBSZrGi3RxdblIw93hw2WSLubhwyiN4d6RALxcMAKAb1QJObLegdCmNijgCUsoqVyTONgWDBXJI0sJOe4mnic57mDL8hQf/HWvehHDMi+1PUm0RIubIMS9sCHMO1luSBwRoM37a90NVF432mtyrzh4rnnvCFboyMHDyBcE3KBxD2fXp9anMSyd0xvbmvnUmcnQPblXMgCACfTd6tIY/7MVE7gjp0RXXrPtqwBbWQc+iN1A7UJWjabtGOoqR0/jkNwQT0FauqvH0SQX08MZ6T+EbgUQ+MRWexZtNy3jZ/b6USsMXtyR633xiZhHBQeY9y1RkMRQ76DsjLQY4Dz6ujsWUqQb6rHbgREqtc1JTqedxnB+vnQ7qwphy7WDFZdlbXvStwRdFejH0LBWBJY9ubZzissyLMJvNIa3IX11YGirfcG1B0uUh1MhNBOvSwIhV7F1z7fgVfj3MdyxqoMefC/wb69XbAyuWV6K4GhC/2+kb9kXYX1ZHCi0UFeGMR/38xysqL2VhswOKNce8t70Eemzh28vPYuD0/BK7CATVE8D6lIprq3HtTbh7A1ZW9lub0NLK0NtusGE4Y0bXrEdeIYStfWoLXhB6yoUsmrX7cSB35P553HQ13bA/mLXjNIO0Bsid6s87KkfDJToSTSam/5JI+tqCQu8N1UJK3LhfUahIS7KO94PWfQ1+gOwYhlTDQplbmRzdHJlYW0NCmVuZG9iag0KNzcgMCBvYmoNCjw8L0FQPDwvTiA3OSAwIFIgPj4vQm9yZGVyWyAwIDAgMF0vQ29udGVudHMoVXNlIENhc2UgRGlhZ3JhbSkvREEoIC9IZWx2IDEwLjUgVGYgMCBUYyAxMS43NiBUTCAwIDAgMCByZyApL0YgNC9QREZJVU1fSGFzR2VuZXJhdGVkQVAgdHJ1ZS9SZWN0WyAyNTIuOTk5OTggNzQ2Ljk5OTk0IDM0OC4yNDk5NyA3NTguOTk5OTRdL1JvdGF0ZSAwL1N1YnR5cGUvRnJlZVRleHQvVHlwZS9Bbm5vdD4+DQplbmRvYmoNCjc4IDAgb2JqDQo8PC9CQm94WyAwIDAgOTUuMjUgMTJdL0ZpbHRlci9GbGF0ZURlY29kZS9Gb3JtVHlwZSAxL0xlbmd0aCA5Ny9NYXRyaXhbIDEgMCAwIDEgMCAwXS9SZXNvdXJjZXM8PC9Gb250PDwvSGVsdiA2MiAwIFIgPj4+Pi9TdWJ0eXBlL0Zvcm0vVHlwZS9YT2JqZWN0Pj5zdHJlYW0NCnicHcmxCoMwFAXQ/X7FHeuSvgSDZLUKroUnzkHToFTBCH5/oWc9J4TC4I3ztI4lceKBViHU+X/CkiF0pg5NHYKnLngO6XvTivHUDx7jlfiKV2K3xlziXlE39Io3fvLQFpgNCmVuZHN0cmVhbQ0KZW5kb2JqDQo3OSAwIG9iag0KPDwvQkJveFsgMCAwIDk1LjI0OTk4NSAxMl0vRmlsdGVyL0ZsYXRlRGVjb2RlL0Zvcm1UeXBlIDEvTGVuZ3RoIDk3L01hdHJpeFsgMSAwIDAgMSAwIDBdL1Jlc291cmNlczw8L0ZvbnQ8PC9IZWx2IDYyIDAgUiA+Pj4+L1N1YnR5cGUvRm9ybS9UeXBlL1hPYmplY3Q+PnN0cmVhbQ0KeJwdybEKgzAUBdD9fsUd65K+BINktQquhSfOQdOgVMEIfn+hZz0nhMLgjfO0jiVx4oFWIdT5f8KSIXSmDk0dgqcueA7pe9OK8dQPHuOV+IpXYrfGXOJeUTf0ijd+8tAWmA0KZW5kc3RyZWFtDQplbmRvYmoNCnhyZWYNCjAgNTgNCjAwMDAwMDAwMDAgNjU1MzUgZg0KMDAwMDAwMDAxNyAwMDAwMCBuDQowMDAwMDQ0NzIxIDAwMDAwIG4NCjAwMDAwNDQ5NjUgMDAwMDAgbg0KMDAwMDA0NTAwMyAwMDAwMCBuDQowMDAwMDQ1MDc1IDAwMDAwIG4NCjAwMDAwNDUxNDYgMDAwMDAgbg0KMDAwMDA0NTI4MSAwMDAwMCBuDQowMDAwMDU0MTIwIDAwMDAwIG4NCjAwMDAwNTQxNzYgMDAwMDAgbg0KMDAwMDA1NDI4MyAwMDAwMCBuDQowMDAwMDU0Mzg0IDAwMDAwIG4NCjAwMDAwNTQ0NjkgMDAwMDAgbg0KMDAwMDA1NDYyNCAwMDAwMCBuDQowMDAwMDU0NzE1IDAwMDAwIG4NCjAwMDAwNTQ4MDAgMDAwMDAgbg0KMDAwMDA1NDg4NSAwMDAwMCBuDQowMDAwMDU0OTk4IDAwMDAwIG4NCjAwMDAwNTUwODkgMDAwMDAgbg0KMDAwMDA1NTE3NCAwMDAwMCBuDQowMDAwMDU1MjU5IDAwMDAwIG4NCjAwMDAwNTU0MDIgMDAwMDAgbg0KMDAwMDA1NTQ5MyAwMDAwMCBuDQowMDAwMDU1NTc4IDAwMDAwIG4NCjAwMDAwNTU2NjMgMDAwMDAgbg0KMDAwMDA1NTgwNiAwMDAwMCBuDQowMDAwMDU1ODk3IDAwMDAwIG4NCjAwMDAwNTU5ODIgMDAwMDAgbg0KMDAwMDA1NjA2NyAwMDAwMCBuDQowMDAwMDU2MjEwIDAwMDAwIG4NCjAwMDAwNTYzMDEgMDAwMDAgbg0KMDAwMDA1NjM4NiAwMDAwMCBuDQowMDAwMDU2NDcxIDAwMDAwIG4NCjAwMDAwNTY2MTQgMDAwMDAgbg0KMDAwMDA1NjcwNSAwMDAwMCBuDQowMDAwMDU2NzkwIDAwMDAwIG4NCjAwMDAwNTY4NzUgMDAwMDAgbg0KMDAwMDA1Njk4OCAwMDAwMCBuDQowMDAwMDU3MDc5IDAwMDAwIG4NCjAwMDAwNTcxNjQgMDAwMDAgbg0KMDAwMDA1NzI0OSAwMDAwMCBuDQowMDAwMDU3MzYzIDAwMDAwIG4NCjAwMDAwNTc0NTQgMDAwMDAgbg0KMDAwMDA1NzUzOSAwMDAwMCBuDQowMDAwMDU3NjI0IDAwMDAwIG4NCjAwMDAwNTc3MzggMDAwMDAgbg0KMDAwMDA1NzgyOSAwMDAwMCBuDQowMDAwMDU3OTE0IDAwMDAwIG4NCjAwMDAwNTc5OTkgMDAwMDAgbg0KMDAwMDA1ODExMyAwMDAwMCBuDQowMDAwMDU4MjM5IDAwMDAwIG4NCjAwMDAwNTgyOTYgMDAwMDAgbg0KMDAwMDA1OTIyMyAwMDAwMCBuDQowMDAwMDU5MjYyIDAwMDAwIG4NCjAwMDAwNTk0NjggMDAwMDAgbg0KMDAwMDA3OTk1NiAwMDAwMCBuDQowMDAwMDgwMTg0IDAwMDAwIG4NCjAwMDAwODA2NjEgMDAwMDAgbg0KNjAgMjANCjAwMDAwODEwMzQgMDAwMDAgbg0KMDAwMDA4MTMxMiAwMDAwMCBuDQowMDAwMDgxMzk5IDAwMDAwIG4NCjAwMDAwODE0OTEgMDAwMDAgbg0KMDAwMDA4Mjg4OCAwMDAwMCBuDQowMDAwMDg0MDk5IDAwMDAwIG4NCjAwMDAwODUzMTAgMDAwMDAgbg0KMDAwMDA4NjQwOSAwMDAwMCBuDQowMDAwMDg3NTE1IDAwMDAwIG4NCjAwMDAwODg2MjEgMDAwMDAgbg0KMDAwMDA4OTY2MCAwMDAwMCBuDQowMDAwMDkwNzAzIDAwMDAwIG4NCjAwMDAwOTE3MTAgMDAwMDAgbg0KMDAwMDA5MjcxNyAwMDAwMCBuDQowMDAwMDkzNTY0IDAwMDAwIG4NCjAwMDAwOTQ0MTEgMDAwMDAgbg0KMDAwMDA5NTI1OCAwMDAwMCBuDQowMDAwMDk2MTA1IDAwMDAwIG4NCjAwMDAwOTYzNDYgMDAwMDAgbg0KMDAwMDA5NjYyOSAwMDAwMCBuDQp0cmFpbGVyDQo8PC9JbmZvIDEgMCBSIC9Sb290IDUzIDAgUiAvU2l6ZSA4MC9JRFs8RDY5RURBMDEzNEQ2QzBDOEExMDM1RTE1QjhBMUQwNTY+PEQ2OUVEQTAxMzRENkMwQzhBMTAzNUUxNUI4QTFEMDU2Pl0+Pg0Kc3RhcnR4cmVmDQo5NjkxNg0KJSVFT0YNCg==" style="text;html=1;" vertex="1" parent="1">
          <mxGeometry width="981600" height="30" as="geometry" />
        </mxCell>
      </root>
    </mxGraphModel>
  </diagram>
</mxfile>
